<mxfile host="app.diagrams.net" agent="Mozilla/5.0 (Windows NT 10.0; Win64; x64) AppleWebKit/537.36 (KHTML, like Gecko) Chrome/126.0.0.0 YaBrowser/24.7.0.0 Safari/537.36" version="24.7.6">
  <diagram name="DF" id="BleSmaJVXqo2yb7Co1eL">
    <mxGraphModel dx="13127" dy="-1953" grid="0" gridSize="10" guides="0" tooltips="0" connect="1" arrows="1" fold="1" page="0" pageScale="1" pageWidth="827" pageHeight="1169" math="0" shadow="0">
      <root>
        <mxCell id="0" />
        <mxCell id="1" parent="0" />
        <mxCell id="qusNSolM188rsnw8EbCe-90" value="" style="rounded=0;whiteSpace=wrap;html=1;strokeColor=#CC0000;fillColor=#E6E6E6;" parent="1" vertex="1">
          <mxGeometry x="-3656" y="9045" width="384" height="606" as="geometry" />
        </mxCell>
        <mxCell id="DStSpTCO8v8UND9olX9u-1276" style="edgeStyle=orthogonalEdgeStyle;rounded=0;orthogonalLoop=1;jettySize=auto;html=1;exitX=0.811;exitY=0.031;exitDx=0;exitDy=0;exitPerimeter=0;entryX=0;entryY=0.5;entryDx=0;entryDy=0;" parent="1" source="qusNSolM188rsnw8EbCe-91" target="DStSpTCO8v8UND9olX9u-1283" edge="1">
          <mxGeometry relative="1" as="geometry">
            <mxPoint x="-2747" y="7838" as="targetPoint" />
            <Array as="points">
              <mxPoint x="-3390" y="8741" />
              <mxPoint x="-2873" y="8741" />
              <mxPoint x="-2873" y="7838" />
            </Array>
          </mxGeometry>
        </mxCell>
        <mxCell id="qusNSolM188rsnw8EbCe-91" value="Сервис аукционов" style="text;html=1;align=center;verticalAlign=middle;resizable=0;points=[];autosize=1;strokeColor=none;fillColor=none;fontSize=30;" parent="1" vertex="1">
          <mxGeometry x="-3611.4982722513087" y="9046" width="273" height="48" as="geometry" />
        </mxCell>
        <mxCell id="nSNsVnWKuV0-D2llhVNN-1001" value="" style="rounded=1;whiteSpace=wrap;html=1;fillColor=#1C57CD;strokeColor=none;" parent="1" vertex="1">
          <mxGeometry x="-3616.996666666664" y="9132" width="309" height="39" as="geometry" />
        </mxCell>
        <mxCell id="nSNsVnWKuV0-D2llhVNN-1002" value="" style="sketch=0;outlineConnect=0;fontColor=#232F3E;gradientColor=none;fillColor=#FFFFFF;strokeColor=none;dashed=0;verticalLabelPosition=bottom;verticalAlign=top;align=center;html=1;fontSize=12;fontStyle=0;aspect=fixed;pointerEvents=1;shape=mxgraph.aws4.gear;rounded=1;" parent="1" vertex="1">
          <mxGeometry x="-3330.996666666664" y="9143" width="17" height="17" as="geometry" />
        </mxCell>
        <mxCell id="nSNsVnWKuV0-D2llhVNN-1003" value="Создать аукцион" style="text;html=1;align=center;verticalAlign=middle;whiteSpace=wrap;rounded=1;fontSize=13;fontColor=#FFFFFF;strokeColor=none;" parent="1" vertex="1">
          <mxGeometry x="-3613.996666666664" y="9136.5" width="113" height="30" as="geometry" />
        </mxCell>
        <mxCell id="nSNsVnWKuV0-D2llhVNN-1004" value="" style="rounded=1;whiteSpace=wrap;html=1;fillColor=#1C57CD;strokeColor=none;" parent="1" vertex="1">
          <mxGeometry x="-3616.996666666664" y="9179.5" width="309" height="39" as="geometry" />
        </mxCell>
        <mxCell id="nSNsVnWKuV0-D2llhVNN-1005" value="" style="sketch=0;outlineConnect=0;fontColor=#232F3E;gradientColor=none;fillColor=#FFFFFF;strokeColor=none;dashed=0;verticalLabelPosition=bottom;verticalAlign=top;align=center;html=1;fontSize=12;fontStyle=0;aspect=fixed;pointerEvents=1;shape=mxgraph.aws4.gear;rounded=1;" parent="1" vertex="1">
          <mxGeometry x="-3330.996666666664" y="9190.5" width="17" height="17" as="geometry" />
        </mxCell>
        <mxCell id="nSNsVnWKuV0-D2llhVNN-1006" value="Редактировать аукцион" style="text;html=1;align=center;verticalAlign=middle;whiteSpace=wrap;rounded=1;fontSize=13;fontColor=#FFFFFF;strokeColor=none;" parent="1" vertex="1">
          <mxGeometry x="-3613.996666666664" y="9184" width="160" height="30" as="geometry" />
        </mxCell>
        <mxCell id="nSNsVnWKuV0-D2llhVNN-1007" value="" style="rounded=1;whiteSpace=wrap;html=1;fillColor=#1C57CD;strokeColor=none;" parent="1" vertex="1">
          <mxGeometry x="-3616.996666666664" y="9227" width="309" height="39" as="geometry" />
        </mxCell>
        <mxCell id="nSNsVnWKuV0-D2llhVNN-1008" value="" style="sketch=0;outlineConnect=0;fontColor=#232F3E;gradientColor=none;fillColor=#FFFFFF;strokeColor=none;dashed=0;verticalLabelPosition=bottom;verticalAlign=top;align=center;html=1;fontSize=12;fontStyle=0;aspect=fixed;pointerEvents=1;shape=mxgraph.aws4.gear;rounded=1;" parent="1" vertex="1">
          <mxGeometry x="-3330.996666666664" y="9238" width="17" height="17" as="geometry" />
        </mxCell>
        <mxCell id="nSNsVnWKuV0-D2llhVNN-1009" value="Обработать новую заявку на аукцион" style="text;html=1;align=center;verticalAlign=middle;whiteSpace=wrap;rounded=1;fontSize=13;fontColor=#FFFFFF;strokeColor=none;" parent="1" vertex="1">
          <mxGeometry x="-3613.996666666664" y="9231.5" width="241" height="30" as="geometry" />
        </mxCell>
        <mxCell id="nSNsVnWKuV0-D2llhVNN-1010" value="" style="rounded=1;whiteSpace=wrap;html=1;fillColor=#1C57CD;strokeColor=none;" parent="1" vertex="1">
          <mxGeometry x="-3616.996666666664" y="9275" width="309" height="39" as="geometry" />
        </mxCell>
        <mxCell id="nSNsVnWKuV0-D2llhVNN-1011" value="" style="sketch=0;outlineConnect=0;fontColor=#232F3E;gradientColor=none;fillColor=#FFFFFF;strokeColor=none;dashed=0;verticalLabelPosition=bottom;verticalAlign=top;align=center;html=1;fontSize=12;fontStyle=0;aspect=fixed;pointerEvents=1;shape=mxgraph.aws4.gear;rounded=1;" parent="1" vertex="1">
          <mxGeometry x="-3330.996666666664" y="9286" width="17" height="17" as="geometry" />
        </mxCell>
        <mxCell id="nSNsVnWKuV0-D2llhVNN-1012" value="Обновление ставок аукциона" style="text;html=1;align=center;verticalAlign=middle;whiteSpace=wrap;rounded=1;fontSize=13;fontColor=#FFFFFF;strokeColor=none;" parent="1" vertex="1">
          <mxGeometry x="-3612.996666666664" y="9279.5" width="189" height="30" as="geometry" />
        </mxCell>
        <mxCell id="nSNsVnWKuV0-D2llhVNN-1052" value="" style="rounded=1;whiteSpace=wrap;html=1;fillColor=#1C57CD;strokeColor=none;" parent="1" vertex="1">
          <mxGeometry x="-3616.996666666664" y="9322" width="309" height="39" as="geometry" />
        </mxCell>
        <mxCell id="nSNsVnWKuV0-D2llhVNN-1053" value="" style="sketch=0;outlineConnect=0;fontColor=#232F3E;gradientColor=none;fillColor=#FFFFFF;strokeColor=none;dashed=0;verticalLabelPosition=bottom;verticalAlign=top;align=center;html=1;fontSize=12;fontStyle=0;aspect=fixed;pointerEvents=1;shape=mxgraph.aws4.gear;rounded=1;" parent="1" vertex="1">
          <mxGeometry x="-3336.996666666664" y="9333" width="17" height="17" as="geometry" />
        </mxCell>
        <mxCell id="nSNsVnWKuV0-D2llhVNN-1054" value="Обновление статуса аукциона" style="text;html=1;align=center;verticalAlign=middle;whiteSpace=wrap;rounded=1;fontSize=13;fontColor=#FFFFFF;strokeColor=none;" parent="1" vertex="1">
          <mxGeometry x="-3616.996666666664" y="9326.5" width="202" height="30" as="geometry" />
        </mxCell>
        <mxCell id="qusNSolM188rsnw8EbCe-1" value="" style="rounded=0;whiteSpace=wrap;html=1;strokeColor=#CC0000;fillColor=#E6E6E6;" parent="1" vertex="1">
          <mxGeometry x="-2755" y="8423" width="384" height="606" as="geometry" />
        </mxCell>
        <mxCell id="qusNSolM188rsnw8EbCe-2" value="Сервис ТП" style="text;html=1;align=center;verticalAlign=middle;resizable=0;points=[];autosize=1;strokeColor=none;fillColor=none;fontSize=30;" parent="1" vertex="1">
          <mxGeometry x="-2659.4982722513087" y="8423" width="170" height="50" as="geometry" />
        </mxCell>
        <mxCell id="nSNsVnWKuV0-D2llhVNN-1046" value="" style="rounded=1;whiteSpace=wrap;html=1;fillColor=#1C57CD;strokeColor=none;" parent="1" vertex="1">
          <mxGeometry x="-2721.996666666664" y="8510" width="309" height="39" as="geometry" />
        </mxCell>
        <mxCell id="nSNsVnWKuV0-D2llhVNN-1047" value="" style="sketch=0;outlineConnect=0;fontColor=#232F3E;gradientColor=none;fillColor=#FFFFFF;strokeColor=none;dashed=0;verticalLabelPosition=bottom;verticalAlign=top;align=center;html=1;fontSize=12;fontStyle=0;aspect=fixed;pointerEvents=1;shape=mxgraph.aws4.gear;rounded=1;" parent="1" vertex="1">
          <mxGeometry x="-2439.996666666664" y="8521" width="17" height="17" as="geometry" />
        </mxCell>
        <mxCell id="nSNsVnWKuV0-D2llhVNN-1048" value="Создать заявку на тех.поддержку" style="text;html=1;align=left;verticalAlign=middle;whiteSpace=wrap;rounded=1;fontSize=13;fontColor=#FFFFFF;strokeColor=none;" parent="1" vertex="1">
          <mxGeometry x="-2719.996666666664" y="8514" width="230" height="30" as="geometry" />
        </mxCell>
        <mxCell id="nSNsVnWKuV0-D2llhVNN-1049" value="" style="rounded=1;whiteSpace=wrap;html=1;fillColor=#1C57CD;strokeColor=none;" parent="1" vertex="1">
          <mxGeometry x="-2721.996666666664" y="8556" width="309" height="39" as="geometry" />
        </mxCell>
        <mxCell id="nSNsVnWKuV0-D2llhVNN-1050" value="" style="sketch=0;outlineConnect=0;fontColor=#232F3E;gradientColor=none;fillColor=#FFFFFF;strokeColor=none;dashed=0;verticalLabelPosition=bottom;verticalAlign=top;align=center;html=1;fontSize=12;fontStyle=0;aspect=fixed;pointerEvents=1;shape=mxgraph.aws4.gear;rounded=1;" parent="1" vertex="1">
          <mxGeometry x="-2438.996666666664" y="8567" width="17" height="17" as="geometry" />
        </mxCell>
        <mxCell id="nSNsVnWKuV0-D2llhVNN-1051" value="Регистрация заявки на тех.поддержку" style="text;html=1;align=left;verticalAlign=middle;whiteSpace=wrap;rounded=1;fontSize=13;fontColor=#FFFFFF;strokeColor=none;" parent="1" vertex="1">
          <mxGeometry x="-2719.996666666664" y="8560" width="249" height="30" as="geometry" />
        </mxCell>
        <mxCell id="nSNsVnWKuV0-D2llhVNN-1055" value="" style="rounded=1;whiteSpace=wrap;html=1;fillColor=#1C57CD;strokeColor=none;" parent="1" vertex="1">
          <mxGeometry x="-2721.996666666664" y="8601" width="309" height="39" as="geometry" />
        </mxCell>
        <mxCell id="nSNsVnWKuV0-D2llhVNN-1056" value="" style="sketch=0;outlineConnect=0;fontColor=#232F3E;gradientColor=none;fillColor=#FFFFFF;strokeColor=none;dashed=0;verticalLabelPosition=bottom;verticalAlign=top;align=center;html=1;fontSize=12;fontStyle=0;aspect=fixed;pointerEvents=1;shape=mxgraph.aws4.gear;rounded=1;" parent="1" vertex="1">
          <mxGeometry x="-2439.996666666664" y="8612" width="17" height="17" as="geometry" />
        </mxCell>
        <mxCell id="nSNsVnWKuV0-D2llhVNN-1057" value="Обновление статуса заявки" style="text;html=1;align=left;verticalAlign=middle;whiteSpace=wrap;rounded=1;fontSize=13;fontColor=#FFFFFF;strokeColor=none;" parent="1" vertex="1">
          <mxGeometry x="-2719.996666666664" y="8605" width="176" height="30" as="geometry" />
        </mxCell>
        <mxCell id="qusNSolM188rsnw8EbCe-58" value="" style="strokeWidth=2;html=1;shape=mxgraph.flowchart.database;whiteSpace=wrap;rounded=1;movable=1;resizable=1;rotatable=1;deletable=1;editable=1;locked=0;connectable=1;" parent="1" vertex="1">
          <mxGeometry x="-2742" y="8803" width="337" height="213" as="geometry" />
        </mxCell>
        <mxCell id="qusNSolM188rsnw8EbCe-59" value="&lt;p style=&quot;margin: 0px 0px 0px 13px; text-indent: -13px; font-variant-numeric: normal; font-variant-east-asian: normal; font-variant-alternates: normal; font-kerning: auto; font-optical-sizing: auto; font-feature-settings: normal; font-variation-settings: normal; font-variant-position: normal; font-stretch: normal; font-size: 14px; line-height: normal; color: rgb(14, 14, 14); text-align: start;&quot; class=&quot;p1&quot;&gt;&lt;br&gt;&lt;/p&gt;" style="rounded=1;whiteSpace=wrap;html=1;fillColor=#FF77BF;strokeColor=none;arcSize=50;" parent="1" vertex="1">
          <mxGeometry x="-2646.996666666664" y="8825" width="151" height="33" as="geometry" />
        </mxCell>
        <mxCell id="qusNSolM188rsnw8EbCe-60" value="&lt;font style=&quot;font-size: 18px;&quot;&gt;&lt;i&gt;PostgreSQL&lt;/i&gt;&lt;/font&gt;" style="text;html=1;align=center;verticalAlign=middle;whiteSpace=wrap;rounded=1;shadow=0;fontSize=23;fontStyle=1" parent="1" vertex="1">
          <mxGeometry x="-2615.996666666664" y="8816" width="89" height="49" as="geometry" />
        </mxCell>
        <mxCell id="qusNSolM188rsnw8EbCe-55" value="&lt;p style=&quot;margin: 0px 0px 0px 13px; text-indent: -13px; font-variant-numeric: normal; font-variant-east-asian: normal; font-variant-alternates: normal; font-kerning: auto; font-optical-sizing: auto; font-feature-settings: normal; font-variation-settings: normal; font-variant-position: normal; font-stretch: normal; font-size: 14px; line-height: normal; color: rgb(14, 14, 14); text-align: start;&quot; class=&quot;p1&quot;&gt;&lt;font face=&quot;Times New Roman&quot;&gt;Заявка ТП.ID&lt;/font&gt;&lt;/p&gt;" style="rounded=1;whiteSpace=wrap;html=1;fillColor=#b1ddf0;strokeColor=#10739E;container=0;" parent="1" vertex="1">
          <mxGeometry x="-2724" y="8915" width="151" height="21" as="geometry" />
        </mxCell>
        <mxCell id="qusNSolM188rsnw8EbCe-56" value="&lt;p style=&quot;margin: 0px 0px 0px 13px; text-indent: -13px; font-variant-numeric: normal; font-variant-east-asian: normal; font-variant-alternates: normal; font-kerning: auto; font-optical-sizing: auto; font-feature-settings: normal; font-variation-settings: normal; font-variant-position: normal; font-stretch: normal; font-size: 14px; line-height: normal; color: rgb(14, 14, 14); text-align: start;&quot; class=&quot;p1&quot;&gt;&lt;font face=&quot;Times New Roman&quot;&gt;Заявка ТП.Статус&lt;/font&gt;&lt;/p&gt;" style="rounded=1;whiteSpace=wrap;html=1;fillColor=#b1ddf0;strokeColor=#10739E;container=0;" parent="1" vertex="1">
          <mxGeometry x="-2724" y="8940.5" width="151" height="21" as="geometry" />
        </mxCell>
        <mxCell id="qusNSolM188rsnw8EbCe-63" value="&lt;p style=&quot;margin: 0px 0px 0px 13px; text-indent: -13px; font-variant-numeric: normal; font-variant-east-asian: normal; font-variant-alternates: normal; font-kerning: auto; font-optical-sizing: auto; font-feature-settings: normal; font-variation-settings: normal; font-variant-position: normal; font-stretch: normal; line-height: normal; text-align: start;&quot; class=&quot;p1&quot;&gt;&lt;span style=&quot;text-align: center; text-indent: 0px;&quot;&gt;&lt;font style=&quot;font-size: 14px;&quot; face=&quot;Times New Roman&quot;&gt;[Пользователь.ID]&lt;/font&gt;&lt;/span&gt;&lt;br&gt;&lt;/p&gt;" style="rounded=1;whiteSpace=wrap;html=1;fillColor=#B8B8B8;strokeColor=#FFD966;" parent="1" vertex="1">
          <mxGeometry x="-2534" y="8914" width="114" height="21" as="geometry" />
        </mxCell>
        <mxCell id="qusNSolM188rsnw8EbCe-64" value="" style="rounded=0;whiteSpace=wrap;html=1;strokeColor=#CC0000;fillColor=#E6E6E6;" parent="1" vertex="1">
          <mxGeometry x="-2754" y="9063" width="384" height="606" as="geometry" />
        </mxCell>
        <mxCell id="qusNSolM188rsnw8EbCe-65" value="Сервис апелляций" style="text;html=1;align=center;verticalAlign=middle;resizable=0;points=[];autosize=1;strokeColor=none;fillColor=none;fontSize=30;" parent="1" vertex="1">
          <mxGeometry x="-2713.4982722513087" y="9063" width="280" height="48" as="geometry" />
        </mxCell>
        <mxCell id="qusNSolM188rsnw8EbCe-66" value="" style="rounded=1;whiteSpace=wrap;html=1;fillColor=#1C57CD;strokeColor=none;" parent="1" vertex="1">
          <mxGeometry x="-2722.996666666664" y="9148" width="309" height="39" as="geometry" />
        </mxCell>
        <mxCell id="qusNSolM188rsnw8EbCe-67" value="" style="sketch=0;outlineConnect=0;fontColor=#232F3E;gradientColor=none;fillColor=#FFFFFF;strokeColor=none;dashed=0;verticalLabelPosition=bottom;verticalAlign=top;align=center;html=1;fontSize=12;fontStyle=0;aspect=fixed;pointerEvents=1;shape=mxgraph.aws4.gear;rounded=1;" parent="1" vertex="1">
          <mxGeometry x="-2442.996666666664" y="9159" width="17" height="17" as="geometry" />
        </mxCell>
        <mxCell id="qusNSolM188rsnw8EbCe-68" value="Создать заявку на апелляцию&amp;nbsp;" style="text;html=1;align=left;verticalAlign=middle;whiteSpace=wrap;rounded=1;fontSize=13;fontColor=#FFFFFF;strokeColor=none;" parent="1" vertex="1">
          <mxGeometry x="-2720.996666666664" y="9152.5" width="202" height="30" as="geometry" />
        </mxCell>
        <mxCell id="qusNSolM188rsnw8EbCe-69" value="" style="rounded=1;whiteSpace=wrap;html=1;fillColor=#1C57CD;strokeColor=none;" parent="1" vertex="1">
          <mxGeometry x="-2722.996666666664" y="9193" width="309" height="39" as="geometry" />
        </mxCell>
        <mxCell id="qusNSolM188rsnw8EbCe-70" value="" style="sketch=0;outlineConnect=0;fontColor=#232F3E;gradientColor=none;fillColor=#FFFFFF;strokeColor=none;dashed=0;verticalLabelPosition=bottom;verticalAlign=top;align=center;html=1;fontSize=12;fontStyle=0;aspect=fixed;pointerEvents=1;shape=mxgraph.aws4.gear;rounded=1;" parent="1" vertex="1">
          <mxGeometry x="-2441.996666666664" y="9206" width="17" height="17" as="geometry" />
        </mxCell>
        <mxCell id="qusNSolM188rsnw8EbCe-71" value="Регистрация заявки на апелляцию" style="text;html=1;align=left;verticalAlign=middle;whiteSpace=wrap;rounded=1;fontSize=13;fontColor=#FFFFFF;strokeColor=none;" parent="1" vertex="1">
          <mxGeometry x="-2720.996666666664" y="9198" width="227" height="30" as="geometry" />
        </mxCell>
        <mxCell id="qusNSolM188rsnw8EbCe-72" value="" style="rounded=1;whiteSpace=wrap;html=1;fillColor=#1C57CD;strokeColor=none;" parent="1" vertex="1">
          <mxGeometry x="-2722.996666666664" y="9239" width="309" height="39" as="geometry" />
        </mxCell>
        <mxCell id="qusNSolM188rsnw8EbCe-73" value="" style="sketch=0;outlineConnect=0;fontColor=#232F3E;gradientColor=none;fillColor=#FFFFFF;strokeColor=none;dashed=0;verticalLabelPosition=bottom;verticalAlign=top;align=center;html=1;fontSize=12;fontStyle=0;aspect=fixed;pointerEvents=1;shape=mxgraph.aws4.gear;rounded=1;" parent="1" vertex="1">
          <mxGeometry x="-2441.996666666664" y="9251" width="17" height="17" as="geometry" />
        </mxCell>
        <mxCell id="qusNSolM188rsnw8EbCe-74" value="Обновить статус заявки на апелляцию" style="text;html=1;align=left;verticalAlign=middle;whiteSpace=wrap;rounded=1;fontSize=13;fontColor=#FFFFFF;strokeColor=none;" parent="1" vertex="1">
          <mxGeometry x="-2720.996666666664" y="9243" width="250" height="30" as="geometry" />
        </mxCell>
        <mxCell id="qusNSolM188rsnw8EbCe-84" value="" style="strokeWidth=2;html=1;shape=mxgraph.flowchart.database;whiteSpace=wrap;rounded=1;movable=1;resizable=1;rotatable=1;deletable=1;editable=1;locked=0;connectable=1;" parent="1" vertex="1">
          <mxGeometry x="-2741" y="9443" width="337" height="213" as="geometry" />
        </mxCell>
        <mxCell id="qusNSolM188rsnw8EbCe-85" value="&lt;p style=&quot;margin: 0px 0px 0px 13px; text-indent: -13px; font-variant-numeric: normal; font-variant-east-asian: normal; font-variant-alternates: normal; font-kerning: auto; font-optical-sizing: auto; font-feature-settings: normal; font-variation-settings: normal; font-variant-position: normal; font-stretch: normal; font-size: 14px; line-height: normal; color: rgb(14, 14, 14); text-align: start;&quot; class=&quot;p1&quot;&gt;&lt;br&gt;&lt;/p&gt;" style="rounded=1;whiteSpace=wrap;html=1;fillColor=#FF77BF;strokeColor=none;arcSize=50;" parent="1" vertex="1">
          <mxGeometry x="-2645.996666666664" y="9465" width="151" height="33" as="geometry" />
        </mxCell>
        <mxCell id="qusNSolM188rsnw8EbCe-86" value="&lt;font style=&quot;font-size: 18px;&quot;&gt;&lt;i&gt;PostgreSQL&lt;/i&gt;&lt;/font&gt;" style="text;html=1;align=center;verticalAlign=middle;whiteSpace=wrap;rounded=1;shadow=0;fontSize=23;fontStyle=1" parent="1" vertex="1">
          <mxGeometry x="-2614.996666666664" y="9456" width="89" height="49" as="geometry" />
        </mxCell>
        <mxCell id="qusNSolM188rsnw8EbCe-87" value="&lt;p style=&quot;margin: 0px 0px 0px 13px; text-indent: -13px; font-variant-numeric: normal; font-variant-east-asian: normal; font-variant-alternates: normal; font-kerning: auto; font-optical-sizing: auto; font-feature-settings: normal; font-variation-settings: normal; font-variant-position: normal; font-stretch: normal; font-size: 14px; line-height: normal; color: rgb(14, 14, 14); text-align: start;&quot; class=&quot;p1&quot;&gt;&lt;span style=&quot;font-family: &amp;quot;Times New Roman&amp;quot;; background-color: initial;&quot;&gt;Заявка на апелляцию&lt;/span&gt;&lt;font face=&quot;Times New Roman&quot;&gt;.ID&lt;/font&gt;&lt;/p&gt;" style="rounded=1;whiteSpace=wrap;html=1;fillColor=#b1ddf0;strokeColor=#10739E;container=0;" parent="1" vertex="1">
          <mxGeometry x="-2723" y="9555" width="151" height="21" as="geometry" />
        </mxCell>
        <mxCell id="qusNSolM188rsnw8EbCe-88" value="&lt;p style=&quot;margin: 0px 0px 0px 13px; text-indent: -13px; font-variant-numeric: normal; font-variant-east-asian: normal; font-variant-alternates: normal; font-kerning: auto; font-optical-sizing: auto; font-feature-settings: normal; font-variation-settings: normal; font-variant-position: normal; font-stretch: normal; font-size: 14px; line-height: normal; color: rgb(14, 14, 14); text-align: start;&quot; class=&quot;p1&quot;&gt;&lt;span style=&quot;font-family: &amp;quot;Times New Roman&amp;quot;; background-color: initial;&quot;&gt;Заявка на апелляцию&lt;/span&gt;&lt;font face=&quot;Times New Roman&quot;&gt;.Статус&lt;/font&gt;&lt;/p&gt;" style="rounded=1;whiteSpace=wrap;html=1;fillColor=#b1ddf0;strokeColor=#10739E;container=0;" parent="1" vertex="1">
          <mxGeometry x="-2723" y="9580.5" width="175" height="21" as="geometry" />
        </mxCell>
        <mxCell id="qusNSolM188rsnw8EbCe-89" value="&lt;p style=&quot;margin: 0px 0px 0px 13px; text-indent: -13px; font-variant-numeric: normal; font-variant-east-asian: normal; font-variant-alternates: normal; font-kerning: auto; font-optical-sizing: auto; font-feature-settings: normal; font-variation-settings: normal; font-variant-position: normal; font-stretch: normal; line-height: normal; text-align: start;&quot; class=&quot;p1&quot;&gt;&lt;span style=&quot;text-align: center; text-indent: 0px;&quot;&gt;&lt;font style=&quot;font-size: 14px;&quot; face=&quot;Times New Roman&quot;&gt;[Пользователь.ID]&lt;/font&gt;&lt;/span&gt;&lt;br&gt;&lt;/p&gt;" style="rounded=1;whiteSpace=wrap;html=1;fillColor=#B8B8B8;strokeColor=#FFD966;" parent="1" vertex="1">
          <mxGeometry x="-2533" y="9554" width="114" height="21" as="geometry" />
        </mxCell>
        <mxCell id="DStSpTCO8v8UND9olX9u-1260" value="&lt;span style=&quot;font-size: 18px;&quot;&gt;События&lt;/span&gt;&lt;div style=&quot;font-size: 18px;&quot;&gt;Аукциона&lt;/div&gt;" style="edgeStyle=orthogonalEdgeStyle;rounded=0;orthogonalLoop=1;jettySize=auto;html=1;" parent="1" source="qusNSolM188rsnw8EbCe-92" edge="1">
          <mxGeometry relative="1" as="geometry">
            <mxPoint x="-3463" y="9733" as="targetPoint" />
          </mxGeometry>
        </mxCell>
        <mxCell id="qusNSolM188rsnw8EbCe-92" value="" style="strokeWidth=2;html=1;shape=mxgraph.flowchart.database;whiteSpace=wrap;rounded=1;movable=1;resizable=1;rotatable=1;deletable=1;editable=1;locked=0;connectable=1;" parent="1" vertex="1">
          <mxGeometry x="-3632" y="9370" width="337" height="278" as="geometry" />
        </mxCell>
        <mxCell id="qusNSolM188rsnw8EbCe-93" value="&lt;p style=&quot;margin: 0px 0px 0px 13px; text-indent: -13px; font-variant-numeric: normal; font-variant-east-asian: normal; font-variant-alternates: normal; font-kerning: auto; font-optical-sizing: auto; font-feature-settings: normal; font-variation-settings: normal; font-variant-position: normal; font-stretch: normal; font-size: 14px; line-height: normal; color: rgb(14, 14, 14); text-align: start;&quot; class=&quot;p1&quot;&gt;&lt;br&gt;&lt;/p&gt;" style="rounded=1;whiteSpace=wrap;html=1;fillColor=#FF77BF;strokeColor=none;arcSize=50;" parent="1" vertex="1">
          <mxGeometry x="-3536.996666666664" y="9396" width="151" height="33" as="geometry" />
        </mxCell>
        <mxCell id="qusNSolM188rsnw8EbCe-94" value="&lt;font style=&quot;font-size: 18px;&quot;&gt;&lt;i&gt;PostgreSQL&lt;/i&gt;&lt;/font&gt;" style="text;html=1;align=center;verticalAlign=middle;whiteSpace=wrap;rounded=1;shadow=0;fontSize=23;fontStyle=1" parent="1" vertex="1">
          <mxGeometry x="-3505.996666666664" y="9387" width="89" height="49" as="geometry" />
        </mxCell>
        <mxCell id="qusNSolM188rsnw8EbCe-95" value="&lt;p style=&quot;margin: 0px 0px 0px 13px; text-indent: -13px; font-variant-numeric: normal; font-variant-east-asian: normal; font-variant-alternates: normal; font-kerning: auto; font-optical-sizing: auto; font-feature-settings: normal; font-variation-settings: normal; font-variant-position: normal; font-stretch: normal; font-size: 14px; line-height: normal; color: rgb(14, 14, 14); text-align: start;&quot; class=&quot;p1&quot;&gt;&lt;font face=&quot;Times New Roman&quot;&gt;Аукцион.ID&lt;/font&gt;&lt;/p&gt;" style="rounded=1;whiteSpace=wrap;html=1;fillColor=#b1ddf0;strokeColor=#10739E;container=0;" parent="1" vertex="1">
          <mxGeometry x="-3618" y="9472" width="151" height="21" as="geometry" />
        </mxCell>
        <mxCell id="qusNSolM188rsnw8EbCe-96" value="&lt;p style=&quot;margin: 0px 0px 0px 13px; text-indent: -13px; font-variant-numeric: normal; font-variant-east-asian: normal; font-variant-alternates: normal; font-kerning: auto; font-optical-sizing: auto; font-feature-settings: normal; font-variation-settings: normal; font-variant-position: normal; font-stretch: normal; font-size: 14px; line-height: normal; color: rgb(14, 14, 14); text-align: start;&quot; class=&quot;p1&quot;&gt;&lt;font face=&quot;Times New Roman&quot;&gt;Аукцион.Статус&lt;/font&gt;&lt;/p&gt;" style="rounded=1;whiteSpace=wrap;html=1;fillColor=#b1ddf0;strokeColor=#10739E;container=0;" parent="1" vertex="1">
          <mxGeometry x="-3618" y="9497.5" width="151" height="21" as="geometry" />
        </mxCell>
        <mxCell id="qusNSolM188rsnw8EbCe-97" value="&lt;p style=&quot;margin: 0px 0px 0px 13px; text-indent: -13px; font-variant-numeric: normal; font-variant-east-asian: normal; font-variant-alternates: normal; font-kerning: auto; font-optical-sizing: auto; font-feature-settings: normal; font-variation-settings: normal; font-variant-position: normal; font-stretch: normal; line-height: normal; text-align: start;&quot; class=&quot;p1&quot;&gt;&lt;span style=&quot;text-align: center; text-indent: 0px;&quot;&gt;&lt;font style=&quot;font-size: 14px;&quot; face=&quot;Times New Roman&quot;&gt;[Пользователь.ID]&lt;/font&gt;&lt;/span&gt;&lt;br&gt;&lt;/p&gt;" style="rounded=1;whiteSpace=wrap;html=1;fillColor=#B8B8B8;strokeColor=#FFD966;" parent="1" vertex="1">
          <mxGeometry x="-3440" y="9575" width="114" height="21" as="geometry" />
        </mxCell>
        <mxCell id="qusNSolM188rsnw8EbCe-99" value="&lt;p style=&quot;margin: 0px 0px 0px 13px; text-indent: -13px; font-variant-numeric: normal; font-variant-east-asian: normal; font-variant-alternates: normal; font-kerning: auto; font-optical-sizing: auto; font-feature-settings: normal; font-variation-settings: normal; font-variant-position: normal; font-stretch: normal; font-size: 14px; line-height: normal; color: rgb(14, 14, 14); text-align: start;&quot; class=&quot;p1&quot;&gt;&lt;font face=&quot;Times New Roman&quot;&gt;Аукцион.Описание&lt;/font&gt;&lt;/p&gt;" style="rounded=1;whiteSpace=wrap;html=1;fillColor=#b1ddf0;strokeColor=#10739E;container=0;" parent="1" vertex="1">
          <mxGeometry x="-3618" y="9522" width="151" height="21" as="geometry" />
        </mxCell>
        <mxCell id="qusNSolM188rsnw8EbCe-100" value="&lt;p style=&quot;margin: 0px 0px 0px 13px; text-indent: -13px; font-variant-numeric: normal; font-variant-east-asian: normal; font-variant-alternates: normal; font-kerning: auto; font-optical-sizing: auto; font-feature-settings: normal; font-variation-settings: normal; font-variant-position: normal; font-stretch: normal; font-size: 14px; line-height: normal; color: rgb(14, 14, 14); text-align: start;&quot; class=&quot;p1&quot;&gt;&lt;font face=&quot;Times New Roman&quot;&gt;Ставка.ID&lt;/font&gt;&lt;/p&gt;" style="rounded=1;whiteSpace=wrap;html=1;fillColor=#b1ddf0;strokeColor=#10739E;container=0;" parent="1" vertex="1">
          <mxGeometry x="-3459" y="9471" width="151" height="21" as="geometry" />
        </mxCell>
        <mxCell id="qusNSolM188rsnw8EbCe-101" value="&lt;p style=&quot;margin: 0px 0px 0px 13px; text-indent: -13px; font-variant-numeric: normal; font-variant-east-asian: normal; font-variant-alternates: normal; font-kerning: auto; font-optical-sizing: auto; font-feature-settings: normal; font-variation-settings: normal; font-variant-position: normal; font-stretch: normal; line-height: normal; text-align: start;&quot; class=&quot;p1&quot;&gt;&lt;span style=&quot;text-align: center; text-indent: 0px;&quot;&gt;&lt;font style=&quot;font-size: 14px;&quot; face=&quot;Times New Roman&quot;&gt;[Товар.ID]&lt;/font&gt;&lt;/span&gt;&lt;br&gt;&lt;/p&gt;" style="rounded=1;whiteSpace=wrap;html=1;fillColor=#B8B8B8;strokeColor=#FFD966;" parent="1" vertex="1">
          <mxGeometry x="-3439" y="9599" width="114" height="21" as="geometry" />
        </mxCell>
        <mxCell id="qusNSolM188rsnw8EbCe-103" value="&lt;p style=&quot;margin: 0px 0px 0px 13px; text-indent: -13px; font-variant-numeric: normal; font-variant-east-asian: normal; font-variant-alternates: normal; font-kerning: auto; font-optical-sizing: auto; font-feature-settings: normal; font-variation-settings: normal; font-variant-position: normal; font-stretch: normal; font-size: 14px; line-height: normal; color: rgb(14, 14, 14); text-align: start;&quot; class=&quot;p1&quot;&gt;&lt;font face=&quot;Times New Roman&quot;&gt;Ставка.Сумма&lt;/font&gt;&lt;/p&gt;" style="rounded=1;whiteSpace=wrap;html=1;fillColor=#b1ddf0;strokeColor=#10739E;container=0;" parent="1" vertex="1">
          <mxGeometry x="-3458" y="9497" width="151" height="21" as="geometry" />
        </mxCell>
        <mxCell id="qusNSolM188rsnw8EbCe-104" value="&lt;p style=&quot;margin: 0px 0px 0px 13px; text-indent: -13px; font-variant-numeric: normal; font-variant-east-asian: normal; font-variant-alternates: normal; font-kerning: auto; font-optical-sizing: auto; font-feature-settings: normal; font-variation-settings: normal; font-variant-position: normal; font-stretch: normal; font-size: 14px; line-height: normal; color: rgb(14, 14, 14); text-align: start;&quot; class=&quot;p1&quot;&gt;&lt;font face=&quot;Times New Roman&quot;&gt;Ставка.Дата/Время&lt;/font&gt;&lt;/p&gt;" style="rounded=1;whiteSpace=wrap;html=1;fillColor=#b1ddf0;strokeColor=#10739E;container=0;" parent="1" vertex="1">
          <mxGeometry x="-3458" y="9522" width="151" height="21" as="geometry" />
        </mxCell>
        <mxCell id="qusNSolM188rsnw8EbCe-108" value="&lt;p style=&quot;margin: 0px 0px 0px 13px; text-indent: -13px; font-variant-numeric: normal; font-variant-east-asian: normal; font-variant-alternates: normal; font-kerning: auto; font-optical-sizing: auto; font-feature-settings: normal; font-variation-settings: normal; font-variant-position: normal; font-stretch: normal; font-size: 14px; line-height: normal; color: rgb(14, 14, 14); text-align: start;&quot; class=&quot;p1&quot;&gt;&lt;font face=&quot;Times New Roman&quot;&gt;Ставка.Статус&lt;/font&gt;&lt;/p&gt;" style="rounded=1;whiteSpace=wrap;html=1;fillColor=#b1ddf0;strokeColor=#10739E;container=0;" parent="1" vertex="1">
          <mxGeometry x="-3458" y="9547" width="151" height="21" as="geometry" />
        </mxCell>
        <mxCell id="qusNSolM188rsnw8EbCe-109" value="&lt;p style=&quot;margin: 0px 0px 0px 13px; text-indent: -13px; font-variant-numeric: normal; font-variant-east-asian: normal; font-variant-alternates: normal; font-kerning: auto; font-optical-sizing: auto; font-feature-settings: normal; font-variation-settings: normal; font-variant-position: normal; font-stretch: normal; font-size: 14px; line-height: normal; color: rgb(14, 14, 14); text-align: start;&quot; class=&quot;p1&quot;&gt;&lt;font face=&quot;Times New Roman&quot;&gt;Заявка ТП.Дата/время&lt;/font&gt;&lt;/p&gt;" style="rounded=1;whiteSpace=wrap;html=1;fillColor=#b1ddf0;strokeColor=#10739E;container=0;" parent="1" vertex="1">
          <mxGeometry x="-2724" y="8967" width="151" height="21" as="geometry" />
        </mxCell>
        <mxCell id="qusNSolM188rsnw8EbCe-110" value="&lt;p style=&quot;margin: 0px 0px 0px 13px; text-indent: -13px; font-variant-numeric: normal; font-variant-east-asian: normal; font-variant-alternates: normal; font-kerning: auto; font-optical-sizing: auto; font-feature-settings: normal; font-variation-settings: normal; font-variant-position: normal; font-stretch: normal; font-size: 14px; line-height: normal; color: rgb(14, 14, 14); text-align: start;&quot; class=&quot;p1&quot;&gt;&lt;span style=&quot;font-family: &amp;quot;Times New Roman&amp;quot;; background-color: initial;&quot;&gt;Заявка на апелляцию&lt;/span&gt;&lt;font face=&quot;Times New Roman&quot;&gt;.Дата/время&lt;/font&gt;&lt;/p&gt;" style="rounded=1;whiteSpace=wrap;html=1;fillColor=#b1ddf0;strokeColor=#10739E;container=0;arcSize=0;" parent="1" vertex="1">
          <mxGeometry x="-2723" y="9606" width="205" height="21" as="geometry" />
        </mxCell>
        <mxCell id="DStSpTCO8v8UND9olX9u-1264" value="&#xa;&lt;span style=&quot;color: rgb(0, 0, 0); font-family: Helvetica; font-size: 18px; font-style: normal; font-variant-ligatures: normal; font-variant-caps: normal; font-weight: 400; letter-spacing: normal; orphans: 2; text-align: center; text-indent: 0px; text-transform: none; widows: 2; word-spacing: 0px; -webkit-text-stroke-width: 0px; white-space: nowrap; background-color: rgb(255, 255, 255); text-decoration-thickness: initial; text-decoration-style: initial; text-decoration-color: initial; display: inline !important; float: none;&quot;&gt;События&lt;/span&gt;&lt;div style=&quot;forced-color-adjust: none; color: rgb(0, 0, 0); font-family: Helvetica; font-size: 18px; font-style: normal; font-variant-ligatures: normal; font-variant-caps: normal; font-weight: 400; letter-spacing: normal; orphans: 2; text-align: center; text-indent: 0px; text-transform: none; widows: 2; word-spacing: 0px; -webkit-text-stroke-width: 0px; white-space: nowrap; text-decoration-thickness: initial; text-decoration-style: initial; text-decoration-color: initial;&quot;&gt;для отчетов&lt;/div&gt;&#xa;&#xa;" style="edgeStyle=orthogonalEdgeStyle;rounded=0;orthogonalLoop=1;jettySize=auto;html=1;" parent="1" source="qusNSolM188rsnw8EbCe-111" edge="1">
          <mxGeometry x="0.0066" y="63" relative="1" as="geometry">
            <mxPoint x="-3936.000000000001" y="9736.190359933036" as="targetPoint" />
            <mxPoint y="-1" as="offset" />
          </mxGeometry>
        </mxCell>
        <mxCell id="qusNSolM188rsnw8EbCe-111" value="" style="rounded=0;whiteSpace=wrap;html=1;strokeColor=#CC0000;fillColor=#E6E6E6;" parent="1" vertex="1">
          <mxGeometry x="-4128" y="9039" width="384" height="606" as="geometry" />
        </mxCell>
        <mxCell id="qusNSolM188rsnw8EbCe-112" value="Сервис статистики" style="text;html=1;align=center;verticalAlign=middle;resizable=0;points=[];autosize=1;strokeColor=none;fillColor=none;fontSize=30;" parent="1" vertex="1">
          <mxGeometry x="-4086.4982722513087" y="9040" width="279" height="48" as="geometry" />
        </mxCell>
        <mxCell id="qusNSolM188rsnw8EbCe-122" value="" style="strokeWidth=2;html=1;shape=mxgraph.flowchart.database;whiteSpace=wrap;rounded=1;movable=1;resizable=1;rotatable=1;deletable=1;editable=1;locked=0;connectable=1;" parent="1" vertex="1">
          <mxGeometry x="-4115" y="9419" width="337" height="213" as="geometry" />
        </mxCell>
        <mxCell id="qusNSolM188rsnw8EbCe-123" value="&lt;p style=&quot;margin: 0px 0px 0px 13px; text-indent: -13px; font-variant-numeric: normal; font-variant-east-asian: normal; font-variant-alternates: normal; font-kerning: auto; font-optical-sizing: auto; font-feature-settings: normal; font-variation-settings: normal; font-variant-position: normal; font-stretch: normal; font-size: 14px; line-height: normal; color: rgb(14, 14, 14); text-align: start;&quot; class=&quot;p1&quot;&gt;&lt;br&gt;&lt;/p&gt;" style="rounded=1;whiteSpace=wrap;html=1;fillColor=#FF77BF;strokeColor=none;arcSize=50;" parent="1" vertex="1">
          <mxGeometry x="-4019.996666666664" y="9441" width="151" height="33" as="geometry" />
        </mxCell>
        <mxCell id="qusNSolM188rsnw8EbCe-124" value="&lt;font style=&quot;font-size: 18px;&quot;&gt;&lt;i&gt;PostgreSQL&lt;/i&gt;&lt;/font&gt;" style="text;html=1;align=center;verticalAlign=middle;whiteSpace=wrap;rounded=1;shadow=0;fontSize=23;fontStyle=1" parent="1" vertex="1">
          <mxGeometry x="-3988.996666666664" y="9432" width="89" height="49" as="geometry" />
        </mxCell>
        <mxCell id="qusNSolM188rsnw8EbCe-125" value="&lt;p style=&quot;margin: 0px 0px 0px 13px; text-indent: -13px; font-variant-numeric: normal; font-variant-east-asian: normal; font-variant-alternates: normal; font-kerning: auto; font-optical-sizing: auto; font-feature-settings: normal; font-variation-settings: normal; font-variant-position: normal; font-stretch: normal; font-size: 14px; line-height: normal; color: rgb(14, 14, 14); text-align: start;&quot; class=&quot;p1&quot;&gt;&lt;font face=&quot;Times New Roman&quot;&gt;Заявка ТП.ID&lt;/font&gt;&lt;/p&gt;" style="rounded=1;whiteSpace=wrap;html=1;fillColor=#b1ddf0;strokeColor=#10739E;container=0;" parent="1" vertex="1">
          <mxGeometry x="-4097" y="9531" width="151" height="21" as="geometry" />
        </mxCell>
        <mxCell id="qusNSolM188rsnw8EbCe-126" value="&lt;p style=&quot;margin: 0px 0px 0px 13px; text-indent: -13px; font-variant-numeric: normal; font-variant-east-asian: normal; font-variant-alternates: normal; font-kerning: auto; font-optical-sizing: auto; font-feature-settings: normal; font-variation-settings: normal; font-variant-position: normal; font-stretch: normal; font-size: 14px; line-height: normal; color: rgb(14, 14, 14); text-align: start;&quot; class=&quot;p1&quot;&gt;&lt;font face=&quot;Times New Roman&quot;&gt;Заявка ТП.Статус&lt;/font&gt;&lt;/p&gt;" style="rounded=1;whiteSpace=wrap;html=1;fillColor=#b1ddf0;strokeColor=#10739E;container=0;" parent="1" vertex="1">
          <mxGeometry x="-4097" y="9556.5" width="151" height="21" as="geometry" />
        </mxCell>
        <mxCell id="qusNSolM188rsnw8EbCe-127" value="&lt;p style=&quot;margin: 0px 0px 0px 13px; text-indent: -13px; font-variant-numeric: normal; font-variant-east-asian: normal; font-variant-alternates: normal; font-kerning: auto; font-optical-sizing: auto; font-feature-settings: normal; font-variation-settings: normal; font-variant-position: normal; font-stretch: normal; line-height: normal; text-align: start;&quot; class=&quot;p1&quot;&gt;&lt;span style=&quot;text-align: center; text-indent: 0px;&quot;&gt;&lt;font style=&quot;font-size: 14px;&quot; face=&quot;Times New Roman&quot;&gt;[Пользователь.ID]&lt;/font&gt;&lt;/span&gt;&lt;br&gt;&lt;/p&gt;" style="rounded=1;whiteSpace=wrap;html=1;fillColor=#B8B8B8;strokeColor=#FFD966;" parent="1" vertex="1">
          <mxGeometry x="-3907" y="9530" width="114" height="21" as="geometry" />
        </mxCell>
        <mxCell id="qusNSolM188rsnw8EbCe-128" value="&lt;p style=&quot;margin: 0px 0px 0px 13px; text-indent: -13px; font-variant-numeric: normal; font-variant-east-asian: normal; font-variant-alternates: normal; font-kerning: auto; font-optical-sizing: auto; font-feature-settings: normal; font-variation-settings: normal; font-variant-position: normal; font-stretch: normal; font-size: 14px; line-height: normal; color: rgb(14, 14, 14); text-align: start;&quot; class=&quot;p1&quot;&gt;&lt;font face=&quot;Times New Roman&quot;&gt;Заявка ТП.Дата/время&lt;/font&gt;&lt;/p&gt;" style="rounded=1;whiteSpace=wrap;html=1;fillColor=#b1ddf0;strokeColor=#10739E;container=0;" parent="1" vertex="1">
          <mxGeometry x="-4097" y="9583" width="151" height="21" as="geometry" />
        </mxCell>
        <mxCell id="nSNsVnWKuV0-D2llhVNN-1025" value="" style="rounded=1;whiteSpace=wrap;html=1;fillColor=#1C57CD;strokeColor=none;" parent="1" vertex="1">
          <mxGeometry x="-4083.996666666664" y="9149" width="309" height="39" as="geometry" />
        </mxCell>
        <mxCell id="nSNsVnWKuV0-D2llhVNN-1026" value="" style="sketch=0;outlineConnect=0;fontColor=#232F3E;gradientColor=none;fillColor=#FFFFFF;strokeColor=none;dashed=0;verticalLabelPosition=bottom;verticalAlign=top;align=center;html=1;fontSize=12;fontStyle=0;aspect=fixed;pointerEvents=1;shape=mxgraph.aws4.gear;rounded=1;" parent="1" vertex="1">
          <mxGeometry x="-3797.996666666664" y="9160" width="17" height="17" as="geometry" />
        </mxCell>
        <mxCell id="nSNsVnWKuV0-D2llhVNN-1027" value="Сгенерировать отчет по продажам" style="text;html=1;align=center;verticalAlign=middle;whiteSpace=wrap;rounded=1;fontSize=13;fontColor=#FFFFFF;strokeColor=none;" parent="1" vertex="1">
          <mxGeometry x="-4077.996666666664" y="9153.5" width="226" height="30" as="geometry" />
        </mxCell>
        <mxCell id="nSNsVnWKuV0-D2llhVNN-1028" value="" style="rounded=1;whiteSpace=wrap;html=1;fillColor=#1C57CD;strokeColor=none;" parent="1" vertex="1">
          <mxGeometry x="-4083.996666666664" y="9194" width="309" height="39" as="geometry" />
        </mxCell>
        <mxCell id="nSNsVnWKuV0-D2llhVNN-1029" value="" style="sketch=0;outlineConnect=0;fontColor=#232F3E;gradientColor=none;fillColor=#FFFFFF;strokeColor=none;dashed=0;verticalLabelPosition=bottom;verticalAlign=top;align=center;html=1;fontSize=12;fontStyle=0;aspect=fixed;pointerEvents=1;shape=mxgraph.aws4.gear;rounded=1;" parent="1" vertex="1">
          <mxGeometry x="-3797.996666666664" y="9205" width="17" height="17" as="geometry" />
        </mxCell>
        <mxCell id="nSNsVnWKuV0-D2llhVNN-1030" value="Отобразить статистику заказов" style="text;html=1;align=center;verticalAlign=middle;whiteSpace=wrap;rounded=1;fontSize=13;fontColor=#FFFFFF;strokeColor=none;" parent="1" vertex="1">
          <mxGeometry x="-4077.496666666664" y="9198.5" width="202" height="30" as="geometry" />
        </mxCell>
        <mxCell id="nSNsVnWKuV0-D2llhVNN-1031" value="" style="rounded=1;whiteSpace=wrap;html=1;fillColor=#1C57CD;strokeColor=none;" parent="1" vertex="1">
          <mxGeometry x="-4083.996666666664" y="9103" width="309" height="39" as="geometry" />
        </mxCell>
        <mxCell id="nSNsVnWKuV0-D2llhVNN-1032" value="" style="sketch=0;outlineConnect=0;fontColor=#232F3E;gradientColor=none;fillColor=#FFFFFF;strokeColor=none;dashed=0;verticalLabelPosition=bottom;verticalAlign=top;align=center;html=1;fontSize=12;fontStyle=0;aspect=fixed;pointerEvents=1;shape=mxgraph.aws4.gear;rounded=1;" parent="1" vertex="1">
          <mxGeometry x="-3797.996666666664" y="9114" width="17" height="17" as="geometry" />
        </mxCell>
        <mxCell id="nSNsVnWKuV0-D2llhVNN-1033" value="Сгенерировать отчет активности пользователей" style="text;html=1;align=center;verticalAlign=middle;whiteSpace=wrap;rounded=1;fontSize=13;fontColor=#FFFFFF;strokeColor=none;" parent="1" vertex="1">
          <mxGeometry x="-4078.996666666664" y="9109" width="215" height="30" as="geometry" />
        </mxCell>
        <mxCell id="qusNSolM188rsnw8EbCe-129" value="&lt;p style=&quot;margin: 0px 0px 0px 13px; text-indent: -13px; font-variant-numeric: normal; font-variant-east-asian: normal; font-variant-alternates: normal; font-kerning: auto; font-optical-sizing: auto; font-feature-settings: normal; font-variation-settings: normal; font-variant-position: normal; font-stretch: normal; font-size: 14px; line-height: normal; color: rgb(14, 14, 14); text-align: start;&quot; class=&quot;p1&quot;&gt;&lt;font face=&quot;Times New Roman&quot;&gt;Аукцион.итоговая сумма&lt;/font&gt;&lt;/p&gt;" style="rounded=1;whiteSpace=wrap;html=1;fillColor=#b1ddf0;strokeColor=#10739E;container=0;" parent="1" vertex="1">
          <mxGeometry x="-3617" y="9547" width="151" height="21" as="geometry" />
        </mxCell>
        <mxCell id="qusNSolM188rsnw8EbCe-130" value="&lt;p style=&quot;margin: 0px 0px 0px 13px; text-indent: -13px; font-variant-numeric: normal; font-variant-east-asian: normal; font-variant-alternates: normal; font-kerning: auto; font-optical-sizing: auto; font-feature-settings: normal; font-variation-settings: normal; font-variant-position: normal; font-stretch: normal; font-size: 14px; line-height: normal; color: rgb(14, 14, 14); text-align: start;&quot; class=&quot;p1&quot;&gt;&lt;font face=&quot;Times New Roman&quot;&gt;Аукцион.Дата начала&lt;/font&gt;&lt;/p&gt;" style="rounded=1;whiteSpace=wrap;html=1;fillColor=#b1ddf0;strokeColor=#10739E;container=0;" parent="1" vertex="1">
          <mxGeometry x="-3617" y="9572" width="151" height="21" as="geometry" />
        </mxCell>
        <mxCell id="qusNSolM188rsnw8EbCe-131" value="&lt;p style=&quot;margin: 0px 0px 0px 13px; text-indent: -13px; font-variant-numeric: normal; font-variant-east-asian: normal; font-variant-alternates: normal; font-kerning: auto; font-optical-sizing: auto; font-feature-settings: normal; font-variation-settings: normal; font-variant-position: normal; font-stretch: normal; font-size: 14px; line-height: normal; color: rgb(14, 14, 14); text-align: start;&quot; class=&quot;p1&quot;&gt;&lt;font face=&quot;Times New Roman&quot;&gt;Аукцион.Дата завершения&lt;/font&gt;&lt;/p&gt;" style="rounded=1;whiteSpace=wrap;html=1;fillColor=#b1ddf0;strokeColor=#10739E;container=0;" parent="1" vertex="1">
          <mxGeometry x="-3615" y="9597" width="166" height="21" as="geometry" />
        </mxCell>
        <mxCell id="qusNSolM188rsnw8EbCe-132" value="" style="rounded=0;whiteSpace=wrap;html=1;strokeColor=#CC0000;fillColor=#E6E6E6;" parent="1" vertex="1">
          <mxGeometry x="-4603" y="9046" width="384" height="606" as="geometry" />
        </mxCell>
        <mxCell id="qusNSolM188rsnw8EbCe-133" value="Сервис нотификаций" style="text;html=1;align=center;verticalAlign=middle;resizable=0;points=[];autosize=1;strokeColor=none;fillColor=none;fontSize=30;" parent="1" vertex="1">
          <mxGeometry x="-4575.498272251309" y="9046" width="315" height="48" as="geometry" />
        </mxCell>
        <mxCell id="qusNSolM188rsnw8EbCe-143" value="" style="strokeWidth=2;html=1;shape=mxgraph.flowchart.database;whiteSpace=wrap;rounded=1;movable=1;resizable=1;rotatable=1;deletable=1;editable=1;locked=0;connectable=1;" parent="1" vertex="1">
          <mxGeometry x="-4586" y="9393" width="337" height="246" as="geometry" />
        </mxCell>
        <mxCell id="qusNSolM188rsnw8EbCe-144" value="&lt;p style=&quot;margin: 0px 0px 0px 13px; text-indent: -13px; font-variant-numeric: normal; font-variant-east-asian: normal; font-variant-alternates: normal; font-kerning: auto; font-optical-sizing: auto; font-feature-settings: normal; font-variation-settings: normal; font-variant-position: normal; font-stretch: normal; font-size: 14px; line-height: normal; color: rgb(14, 14, 14); text-align: start;&quot; class=&quot;p1&quot;&gt;&lt;br&gt;&lt;/p&gt;" style="rounded=1;whiteSpace=wrap;html=1;fillColor=#FF77BF;strokeColor=none;arcSize=50;" parent="1" vertex="1">
          <mxGeometry x="-4491.996666666664" y="9417" width="151" height="33" as="geometry" />
        </mxCell>
        <mxCell id="qusNSolM188rsnw8EbCe-145" value="&lt;font style=&quot;font-size: 18px;&quot;&gt;&lt;i&gt;PostgreSQL&lt;/i&gt;&lt;/font&gt;" style="text;html=1;align=center;verticalAlign=middle;whiteSpace=wrap;rounded=1;shadow=0;fontSize=23;fontStyle=1" parent="1" vertex="1">
          <mxGeometry x="-4460.996666666664" y="9408" width="89" height="49" as="geometry" />
        </mxCell>
        <mxCell id="qusNSolM188rsnw8EbCe-146" value="&lt;p style=&quot;margin: 0px 0px 0px 13px; text-indent: -13px; font-variant-numeric: normal; font-variant-east-asian: normal; font-variant-alternates: normal; font-kerning: auto; font-optical-sizing: auto; font-feature-settings: normal; font-variation-settings: normal; font-variant-position: normal; font-stretch: normal; font-size: 14px; line-height: normal; color: rgb(14, 14, 14); text-align: start;&quot; class=&quot;p1&quot;&gt;&lt;span style=&quot;font-family: &amp;quot;Times New Roman&amp;quot;; background-color: initial;&quot;&gt;Нотифиуация&lt;/span&gt;&lt;font face=&quot;Times New Roman&quot;&gt;.ID&lt;/font&gt;&lt;/p&gt;" style="rounded=1;whiteSpace=wrap;html=1;fillColor=#b1ddf0;strokeColor=#10739E;container=0;" parent="1" vertex="1">
          <mxGeometry x="-4570" y="9485" width="151" height="21" as="geometry" />
        </mxCell>
        <mxCell id="qusNSolM188rsnw8EbCe-147" value="&lt;p style=&quot;margin: 0px 0px 0px 13px; text-indent: -13px; font-variant-numeric: normal; font-variant-east-asian: normal; font-variant-alternates: normal; font-kerning: auto; font-optical-sizing: auto; font-feature-settings: normal; font-variation-settings: normal; font-variant-position: normal; font-stretch: normal; font-size: 14px; line-height: normal; color: rgb(14, 14, 14); text-align: start;&quot; class=&quot;p1&quot;&gt;&lt;span style=&quot;font-family: &amp;quot;Times New Roman&amp;quot;; background-color: initial;&quot;&gt;Нотификация&lt;/span&gt;&lt;font face=&quot;Times New Roman&quot;&gt;.Статус&lt;/font&gt;&lt;/p&gt;" style="rounded=1;whiteSpace=wrap;html=1;fillColor=#b1ddf0;strokeColor=#10739E;container=0;" parent="1" vertex="1">
          <mxGeometry x="-4570" y="9510.5" width="175" height="21" as="geometry" />
        </mxCell>
        <mxCell id="qusNSolM188rsnw8EbCe-148" value="&lt;p style=&quot;margin: 0px 0px 0px 13px; text-indent: -13px; font-variant-numeric: normal; font-variant-east-asian: normal; font-variant-alternates: normal; font-kerning: auto; font-optical-sizing: auto; font-feature-settings: normal; font-variation-settings: normal; font-variant-position: normal; font-stretch: normal; line-height: normal; text-align: start;&quot; class=&quot;p1&quot;&gt;&lt;span style=&quot;text-align: center; text-indent: 0px;&quot;&gt;&lt;font style=&quot;font-size: 14px;&quot; face=&quot;Times New Roman&quot;&gt;[Пользователь.ID]&lt;/font&gt;&lt;/span&gt;&lt;br&gt;&lt;/p&gt;" style="rounded=1;whiteSpace=wrap;html=1;fillColor=#B8B8B8;strokeColor=#FFD966;" parent="1" vertex="1">
          <mxGeometry x="-4380" y="9484" width="114" height="21" as="geometry" />
        </mxCell>
        <mxCell id="qusNSolM188rsnw8EbCe-149" value="&lt;p style=&quot;margin: 0px 0px 0px 13px; text-indent: -13px; font-variant-numeric: normal; font-variant-east-asian: normal; font-variant-alternates: normal; font-kerning: auto; font-optical-sizing: auto; font-feature-settings: normal; font-variation-settings: normal; font-variant-position: normal; font-stretch: normal; font-size: 14px; line-height: normal; color: rgb(14, 14, 14); text-align: start;&quot; class=&quot;p1&quot;&gt;&lt;span style=&quot;font-family: &amp;quot;Times New Roman&amp;quot;; background-color: initial;&quot;&gt;Нотификация&lt;/span&gt;&lt;font face=&quot;Times New Roman&quot;&gt;.Тип&lt;/font&gt;&lt;/p&gt;" style="rounded=1;whiteSpace=wrap;html=1;fillColor=#b1ddf0;strokeColor=#10739E;container=0;arcSize=0;" parent="1" vertex="1">
          <mxGeometry x="-4570" y="9536" width="151" height="21" as="geometry" />
        </mxCell>
        <mxCell id="nSNsVnWKuV0-D2llhVNN-950" value="" style="rounded=1;whiteSpace=wrap;html=1;fillColor=#1C57CD;strokeColor=none;" parent="1" vertex="1">
          <mxGeometry x="-4563.996666666664" y="9170" width="309" height="39" as="geometry" />
        </mxCell>
        <mxCell id="nSNsVnWKuV0-D2llhVNN-951" value="" style="sketch=0;outlineConnect=0;fontColor=#232F3E;gradientColor=none;fillColor=default;strokeColor=none;dashed=0;verticalLabelPosition=bottom;verticalAlign=top;align=center;html=1;fontSize=12;fontStyle=0;aspect=fixed;pointerEvents=1;shape=mxgraph.aws4.gear;rounded=1;" parent="1" vertex="1">
          <mxGeometry x="-4283.996666666664" y="9181" width="17" height="17" as="geometry" />
        </mxCell>
        <mxCell id="nSNsVnWKuV0-D2llhVNN-952" value="Нотификация нового пользователя" style="text;html=1;align=center;verticalAlign=middle;whiteSpace=wrap;rounded=1;fontSize=13;fontColor=#FFFFFF;strokeColor=none;" parent="1" vertex="1">
          <mxGeometry x="-4557.996666666664" y="9174.5" width="227" height="30" as="geometry" />
        </mxCell>
        <mxCell id="nSNsVnWKuV0-D2llhVNN-974" value="" style="rounded=1;whiteSpace=wrap;html=1;fillColor=#1C57CD;strokeColor=none;" parent="1" vertex="1">
          <mxGeometry x="-4563.996666666664" y="9122" width="309" height="39" as="geometry" />
        </mxCell>
        <mxCell id="nSNsVnWKuV0-D2llhVNN-975" value="" style="sketch=0;outlineConnect=0;fontColor=#232F3E;gradientColor=none;fillColor=default;strokeColor=none;dashed=0;verticalLabelPosition=bottom;verticalAlign=top;align=center;html=1;fontSize=12;fontStyle=0;aspect=fixed;pointerEvents=1;shape=mxgraph.aws4.gear;rounded=1;" parent="1" vertex="1">
          <mxGeometry x="-4283.996666666664" y="9133" width="17" height="17" as="geometry" />
        </mxCell>
        <mxCell id="nSNsVnWKuV0-D2llhVNN-976" value="Нотификация об изменении состояния заказа" style="text;html=1;align=center;verticalAlign=middle;whiteSpace=wrap;rounded=1;fontSize=13;fontColor=#FFFFFF;strokeColor=none;" parent="1" vertex="1">
          <mxGeometry x="-4557.996666666664" y="9126.5" width="247" height="30" as="geometry" />
        </mxCell>
        <mxCell id="nSNsVnWKuV0-D2llhVNN-1013" value="" style="rounded=1;whiteSpace=wrap;html=1;fillColor=#1C57CD;strokeColor=none;" parent="1" vertex="1">
          <mxGeometry x="-4563.996666666664" y="9217" width="309" height="39" as="geometry" />
        </mxCell>
        <mxCell id="nSNsVnWKuV0-D2llhVNN-1014" value="" style="sketch=0;outlineConnect=0;fontColor=#232F3E;gradientColor=none;fillColor=#FFFFFF;strokeColor=none;dashed=0;verticalLabelPosition=bottom;verticalAlign=top;align=center;html=1;fontSize=12;fontStyle=0;aspect=fixed;pointerEvents=1;shape=mxgraph.aws4.gear;rounded=1;" parent="1" vertex="1">
          <mxGeometry x="-4283.996666666664" y="9228" width="17" height="17" as="geometry" />
        </mxCell>
        <mxCell id="nSNsVnWKuV0-D2llhVNN-1015" value="Нотификация участника аукциона" style="text;html=1;align=center;verticalAlign=middle;whiteSpace=wrap;rounded=1;fontSize=13;fontColor=#FFFFFF;strokeColor=none;" parent="1" vertex="1">
          <mxGeometry x="-4557.996666666664" y="9221.5" width="218" height="30" as="geometry" />
        </mxCell>
        <mxCell id="qusNSolM188rsnw8EbCe-150" value="&lt;p style=&quot;margin: 0px 0px 0px 13px; text-indent: -13px; font-variant-numeric: normal; font-variant-east-asian: normal; font-variant-alternates: normal; font-kerning: auto; font-optical-sizing: auto; font-feature-settings: normal; font-variation-settings: normal; font-variant-position: normal; font-stretch: normal; line-height: normal; text-align: start;&quot; class=&quot;p1&quot;&gt;&lt;span style=&quot;text-align: center; text-indent: 0px;&quot;&gt;&lt;font style=&quot;font-size: 14px;&quot; face=&quot;Times New Roman&quot;&gt;[Аукцион.ID]&lt;/font&gt;&lt;/span&gt;&lt;br&gt;&lt;/p&gt;" style="rounded=1;whiteSpace=wrap;html=1;fillColor=#B8B8B8;strokeColor=#FFD966;" parent="1" vertex="1">
          <mxGeometry x="-4378" y="9510" width="114" height="21" as="geometry" />
        </mxCell>
        <mxCell id="qusNSolM188rsnw8EbCe-151" value="&lt;p style=&quot;margin: 0px 0px 0px 13px; text-indent: -13px; font-variant-numeric: normal; font-variant-east-asian: normal; font-variant-alternates: normal; font-kerning: auto; font-optical-sizing: auto; font-feature-settings: normal; font-variation-settings: normal; font-variant-position: normal; font-stretch: normal; line-height: normal; text-align: start;&quot; class=&quot;p1&quot;&gt;&lt;span style=&quot;text-align: center; text-indent: 0px;&quot;&gt;&lt;font style=&quot;font-size: 14px;&quot; face=&quot;Times New Roman&quot;&gt;[Заказ.ID]&lt;/font&gt;&lt;/span&gt;&lt;br&gt;&lt;/p&gt;" style="rounded=1;whiteSpace=wrap;html=1;fillColor=#B8B8B8;strokeColor=#FFD966;" parent="1" vertex="1">
          <mxGeometry x="-4378" y="9536" width="114" height="21" as="geometry" />
        </mxCell>
        <mxCell id="qusNSolM188rsnw8EbCe-152" value="&lt;p style=&quot;margin: 0px 0px 0px 13px; text-indent: -13px; font-variant-numeric: normal; font-variant-east-asian: normal; font-variant-alternates: normal; font-kerning: auto; font-optical-sizing: auto; font-feature-settings: normal; font-variation-settings: normal; font-variant-position: normal; font-stretch: normal; font-size: 14px; line-height: normal; color: rgb(14, 14, 14); text-align: start;&quot; class=&quot;p1&quot;&gt;&lt;span style=&quot;font-family: &amp;quot;Times New Roman&amp;quot;; background-color: initial;&quot;&gt;Нотификация&lt;/span&gt;&lt;font face=&quot;Times New Roman&quot;&gt;.Дата/Время&lt;/font&gt;&lt;/p&gt;" style="rounded=1;whiteSpace=wrap;html=1;fillColor=#b1ddf0;strokeColor=#10739E;container=0;" parent="1" vertex="1">
          <mxGeometry x="-4570" y="9561" width="175" height="21" as="geometry" />
        </mxCell>
        <mxCell id="qusNSolM188rsnw8EbCe-153" value="&lt;p style=&quot;margin: 0px 0px 0px 13px; text-indent: -13px; font-variant-numeric: normal; font-variant-east-asian: normal; font-variant-alternates: normal; font-kerning: auto; font-optical-sizing: auto; font-feature-settings: normal; font-variation-settings: normal; font-variant-position: normal; font-stretch: normal; font-size: 14px; line-height: normal; color: rgb(14, 14, 14); text-align: start;&quot; class=&quot;p1&quot;&gt;&lt;span style=&quot;font-family: &amp;quot;Times New Roman&amp;quot;; background-color: initial;&quot;&gt;Нотификация&lt;/span&gt;&lt;font face=&quot;Times New Roman&quot;&gt;.Способ отправки&lt;/font&gt;&lt;/p&gt;" style="rounded=1;whiteSpace=wrap;html=1;fillColor=#b1ddf0;strokeColor=#10739E;container=0;" parent="1" vertex="1">
          <mxGeometry x="-4570" y="9587" width="202" height="21" as="geometry" />
        </mxCell>
        <mxCell id="qusNSolM188rsnw8EbCe-154" value="&lt;p style=&quot;margin: 0px 0px 0px 13px; text-indent: -13px; font-variant-numeric: normal; font-variant-east-asian: normal; font-variant-alternates: normal; font-kerning: auto; font-optical-sizing: auto; font-feature-settings: normal; font-variation-settings: normal; font-variant-position: normal; font-stretch: normal; line-height: normal; text-align: start;&quot; class=&quot;p1&quot;&gt;&lt;span style=&quot;text-align: center; text-indent: 0px;&quot;&gt;&lt;font style=&quot;font-size: 14px;&quot; face=&quot;Times New Roman&quot;&gt;[Аукцион.ID]&lt;/font&gt;&lt;/span&gt;&lt;br&gt;&lt;/p&gt;" style="rounded=1;whiteSpace=wrap;html=1;fillColor=#B8B8B8;strokeColor=#FFD966;" parent="1" vertex="1">
          <mxGeometry x="-2533" y="9579" width="114" height="21" as="geometry" />
        </mxCell>
        <mxCell id="qusNSolM188rsnw8EbCe-170" value="" style="group;strokeColor=#CC0000;fillColor=#E6E6E6;container=0;" parent="1" vertex="1" connectable="0">
          <mxGeometry x="-4603" y="8306" width="384" height="718" as="geometry" />
        </mxCell>
        <mxCell id="DStSpTCO8v8UND9olX9u-1238" value="&lt;div&gt;&lt;span style=&quot;font-size: 18px;&quot;&gt;Новый&lt;/span&gt;&lt;div style=&quot;font-size: 18px;&quot;&gt;&amp;nbsp;пользователь&lt;/div&gt;&lt;/div&gt;" style="edgeStyle=orthogonalEdgeStyle;rounded=0;orthogonalLoop=1;jettySize=auto;html=1;" parent="1" edge="1">
          <mxGeometry relative="1" as="geometry">
            <mxPoint x="-4614" y="9785" as="targetPoint" />
            <mxPoint x="-4606" y="8793" as="sourcePoint" />
            <Array as="points">
              <mxPoint x="-4776" y="8793" />
              <mxPoint x="-4776" y="9785" />
            </Array>
          </mxGeometry>
        </mxCell>
        <mxCell id="qusNSolM188rsnw8EbCe-183" value="" style="strokeWidth=2;html=1;shape=mxgraph.flowchart.database;whiteSpace=wrap;movable=1;resizable=1;rotatable=1;deletable=1;editable=1;locked=0;connectable=1;" parent="1" vertex="1">
          <mxGeometry x="-4566.25" y="8588" width="290" height="410" as="geometry" />
        </mxCell>
        <mxCell id="qusNSolM188rsnw8EbCe-184" value="" style="group" parent="1" vertex="1" connectable="0">
          <mxGeometry x="-4551.25" y="8741.5" width="268" height="213" as="geometry" />
        </mxCell>
        <mxCell id="qusNSolM188rsnw8EbCe-185" value="&lt;p style=&quot;margin: 0px 0px 0px 13px; text-indent: -13px; font-variant-numeric: normal; font-variant-east-asian: normal; font-variant-alternates: normal; font-kerning: auto; font-optical-sizing: auto; font-feature-settings: normal; font-variation-settings: normal; font-variant-position: normal; font-stretch: normal; line-height: normal; color: rgb(14, 14, 14); text-align: start;&quot; class=&quot;p1&quot;&gt;&lt;font face=&quot;Times New Roman&quot;&gt;&lt;span style=&quot;font-size: 14px;&quot;&gt;JWT&lt;/span&gt;&lt;/font&gt;&lt;/p&gt;" style="rounded=1;whiteSpace=wrap;html=1;fillColor=#b1ddf0;strokeColor=#10739e;" parent="qusNSolM188rsnw8EbCe-184" vertex="1">
          <mxGeometry x="1" y="192" width="49" height="21" as="geometry" />
        </mxCell>
        <mxCell id="qusNSolM188rsnw8EbCe-186" value="&lt;p style=&quot;margin: 0px 0px 0px 13px; text-indent: -13px; font-variant-numeric: normal; font-variant-east-asian: normal; font-variant-alternates: normal; font-kerning: auto; font-optical-sizing: auto; font-feature-settings: normal; font-variation-settings: normal; font-variant-position: normal; font-stretch: normal; font-size: 14px; line-height: normal; color: rgb(14, 14, 14); text-align: start;&quot; class=&quot;p1&quot;&gt;&lt;font face=&quot;Times New Roman&quot;&gt;Пользователь.Роль&lt;/font&gt;&lt;/p&gt;" style="rounded=1;whiteSpace=wrap;html=1;fillColor=#b1ddf0;strokeColor=#10739e;" parent="qusNSolM188rsnw8EbCe-184" vertex="1">
          <mxGeometry x="150.5" y="72" width="117.5" height="21" as="geometry" />
        </mxCell>
        <mxCell id="qusNSolM188rsnw8EbCe-187" value="&lt;p style=&quot;margin: 0px 0px 0px 13px; text-indent: -13px; font-variant-numeric: normal; font-variant-east-asian: normal; font-variant-alternates: normal; font-kerning: auto; font-optical-sizing: auto; font-feature-settings: normal; font-variation-settings: normal; font-variant-position: normal; font-stretch: normal; font-size: 14px; line-height: normal; color: rgb(14, 14, 14); text-align: start;&quot; class=&quot;p1&quot;&gt;&lt;font face=&quot;Times New Roman&quot;&gt;Пользователь.ID&lt;/font&gt;&lt;/p&gt;" style="rounded=1;whiteSpace=wrap;html=1;fillColor=#b1ddf0;strokeColor=#10739e;" parent="qusNSolM188rsnw8EbCe-184" vertex="1">
          <mxGeometry x="1" width="151" height="21" as="geometry" />
        </mxCell>
        <mxCell id="qusNSolM188rsnw8EbCe-188" value="&lt;p style=&quot;margin: 0px 0px 0px 13px; text-indent: -13px; font-variant-numeric: normal; font-variant-east-asian: normal; font-variant-alternates: normal; font-kerning: auto; font-optical-sizing: auto; font-feature-settings: normal; font-variation-settings: normal; font-variant-position: normal; font-stretch: normal; font-size: 14px; line-height: normal; color: rgb(14, 14, 14); text-align: start;&quot; class=&quot;p1&quot;&gt;&lt;font face=&quot;Times New Roman&quot;&gt;Пользователь.Имя&lt;/font&gt;&lt;/p&gt;" style="rounded=1;whiteSpace=wrap;html=1;fillColor=#b1ddf0;strokeColor=#10739e;" parent="qusNSolM188rsnw8EbCe-184" vertex="1">
          <mxGeometry x="1" y="23.75" width="119" height="21" as="geometry" />
        </mxCell>
        <mxCell id="qusNSolM188rsnw8EbCe-189" value="&lt;p style=&quot;margin: 0px 0px 0px 13px; text-indent: -13px; font-variant-numeric: normal; font-variant-east-asian: normal; font-variant-alternates: normal; font-kerning: auto; font-optical-sizing: auto; font-feature-settings: normal; font-variation-settings: normal; font-variant-position: normal; font-stretch: normal; font-size: 14px; line-height: normal; color: rgb(14, 14, 14); text-align: start;&quot; class=&quot;p1&quot;&gt;&lt;font face=&quot;Times New Roman&quot;&gt;Пользователь.Фамилия&lt;/font&gt;&lt;/p&gt;" style="rounded=1;whiteSpace=wrap;html=1;fillColor=#b1ddf0;strokeColor=#10739e;" parent="qusNSolM188rsnw8EbCe-184" vertex="1">
          <mxGeometry x="1" y="120" width="151" height="21" as="geometry" />
        </mxCell>
        <mxCell id="qusNSolM188rsnw8EbCe-190" value="&lt;p style=&quot;margin: 0px 0px 0px 13px; text-indent: -13px; font-variant-numeric: normal; font-variant-east-asian: normal; font-variant-alternates: normal; font-kerning: auto; font-optical-sizing: auto; font-feature-settings: normal; font-variation-settings: normal; font-variant-position: normal; font-stretch: normal; font-size: 14px; line-height: normal; color: rgb(14, 14, 14); text-align: start;&quot; class=&quot;p1&quot;&gt;&lt;font face=&quot;Times New Roman&quot;&gt;Пользователь.Адрес&lt;/font&gt;&lt;/p&gt;" style="rounded=1;whiteSpace=wrap;html=1;fillColor=#b1ddf0;strokeColor=#10739e;" parent="qusNSolM188rsnw8EbCe-184" vertex="1">
          <mxGeometry x="0.5" y="144" width="130" height="21" as="geometry" />
        </mxCell>
        <mxCell id="qusNSolM188rsnw8EbCe-191" value="&lt;p style=&quot;margin: 0px 0px 0px 13px; text-indent: -13px; font-variant-numeric: normal; font-variant-east-asian: normal; font-variant-alternates: normal; font-kerning: auto; font-optical-sizing: auto; font-feature-settings: normal; font-variation-settings: normal; font-variant-position: normal; font-stretch: normal; font-size: 14px; line-height: normal; color: rgb(14, 14, 14); text-align: start;&quot; class=&quot;p1&quot;&gt;&lt;font face=&quot;Times New Roman&quot;&gt;Пользователь.Дата регистрации&lt;/font&gt;&lt;/p&gt;" style="rounded=1;whiteSpace=wrap;html=1;fillColor=#b1ddf0;strokeColor=#10739e;" parent="qusNSolM188rsnw8EbCe-184" vertex="1">
          <mxGeometry x="1" y="48" width="199" height="21" as="geometry" />
        </mxCell>
        <mxCell id="qusNSolM188rsnw8EbCe-192" value="&lt;p style=&quot;margin: 0px 0px 0px 13px; text-indent: -13px; font-variant-numeric: normal; font-variant-east-asian: normal; font-variant-alternates: normal; font-kerning: auto; font-optical-sizing: auto; font-feature-settings: normal; font-variation-settings: normal; font-variant-position: normal; font-stretch: normal; font-size: 14px; line-height: normal; color: rgb(14, 14, 14); text-align: start;&quot; class=&quot;p1&quot;&gt;&lt;font face=&quot;Times New Roman&quot;&gt;Пользователь.Статус&lt;/font&gt;&lt;/p&gt;" style="rounded=1;whiteSpace=wrap;html=1;fillColor=#b1ddf0;strokeColor=#10739e;" parent="qusNSolM188rsnw8EbCe-184" vertex="1">
          <mxGeometry x="124" y="23.75" width="136" height="21" as="geometry" />
        </mxCell>
        <mxCell id="qusNSolM188rsnw8EbCe-193" value="&lt;p style=&quot;margin: 0px 0px 0px 13px; text-indent: -13px; font-variant-numeric: normal; font-variant-east-asian: normal; font-variant-alternates: normal; font-kerning: auto; font-optical-sizing: auto; font-feature-settings: normal; font-variation-settings: normal; font-variant-position: normal; font-stretch: normal; font-size: 14px; line-height: normal; color: rgb(14, 14, 14); text-align: start;&quot; class=&quot;p1&quot;&gt;&lt;font face=&quot;Times New Roman&quot;&gt;Пользователь.Электронная почта&lt;/font&gt;&lt;/p&gt;" style="rounded=1;whiteSpace=wrap;html=1;fillColor=#b1ddf0;strokeColor=#10739e;" parent="qusNSolM188rsnw8EbCe-184" vertex="1">
          <mxGeometry y="168" width="209" height="21" as="geometry" />
        </mxCell>
        <mxCell id="qusNSolM188rsnw8EbCe-194" value="&lt;p style=&quot;margin: 0px 0px 0px 13px; text-indent: -13px; font-variant-numeric: normal; font-variant-east-asian: normal; font-variant-alternates: normal; font-kerning: auto; font-optical-sizing: auto; font-feature-settings: normal; font-variation-settings: normal; font-variant-position: normal; font-stretch: normal; font-size: 14px; line-height: normal; color: rgb(14, 14, 14); text-align: start;&quot; class=&quot;p1&quot;&gt;&lt;font face=&quot;Times New Roman&quot;&gt;Пользователь.Номер телефона&lt;/font&gt;&lt;/p&gt;" style="rounded=1;whiteSpace=wrap;html=1;fillColor=#b1ddf0;strokeColor=#10739e;" parent="qusNSolM188rsnw8EbCe-184" vertex="1">
          <mxGeometry x="0.5" y="96" width="190" height="21" as="geometry" />
        </mxCell>
        <mxCell id="qusNSolM188rsnw8EbCe-195" value="&lt;p style=&quot;margin: 0px 0px 0px 13px; text-indent: -13px; font-variant-numeric: normal; font-variant-east-asian: normal; font-variant-alternates: normal; font-kerning: auto; font-optical-sizing: auto; font-feature-settings: normal; font-variation-settings: normal; font-variant-position: normal; font-stretch: normal; font-size: 14px; line-height: normal; color: rgb(14, 14, 14); text-align: start;&quot; class=&quot;p1&quot;&gt;&lt;font face=&quot;Times New Roman&quot;&gt;Пользователь.Активен&lt;/font&gt;&lt;/p&gt;" style="rounded=1;whiteSpace=wrap;html=1;fillColor=#b1ddf0;strokeColor=#10739e;" parent="qusNSolM188rsnw8EbCe-184" vertex="1">
          <mxGeometry x="0.5" y="72" width="147" height="21" as="geometry" />
        </mxCell>
        <mxCell id="qusNSolM188rsnw8EbCe-196" value="Сервис пользователей" style="text;html=1;align=center;verticalAlign=middle;resizable=0;points=[];autosize=1;strokeColor=none;fillColor=none;fontSize=30;" parent="1" vertex="1">
          <mxGeometry x="-4587.248272251309" y="8314" width="340" height="50" as="geometry" />
        </mxCell>
        <mxCell id="qusNSolM188rsnw8EbCe-197" value="&lt;p style=&quot;margin: 0px 0px 0px 13px; text-indent: -13px; font-variant-numeric: normal; font-variant-east-asian: normal; font-variant-alternates: normal; font-kerning: auto; font-optical-sizing: auto; font-feature-settings: normal; font-variation-settings: normal; font-variant-position: normal; font-stretch: normal; font-size: 14px; line-height: normal; color: rgb(14, 14, 14); text-align: start;&quot; class=&quot;p1&quot;&gt;&lt;font face=&quot;Times New Roman&quot;&gt;Торговая площадка.ID&lt;/font&gt;&lt;/p&gt;" style="rounded=1;whiteSpace=wrap;html=1;fillColor=#b1ddf0;strokeColor=#10739e;" parent="1" vertex="1">
          <mxGeometry x="-4484.75" y="8935" width="144.5" height="21" as="geometry" />
        </mxCell>
        <mxCell id="qusNSolM188rsnw8EbCe-198" value="&lt;p style=&quot;margin: 0px 0px 0px 13px; text-indent: -13px; font-variant-numeric: normal; font-variant-east-asian: normal; font-variant-alternates: normal; font-kerning: auto; font-optical-sizing: auto; font-feature-settings: normal; font-variation-settings: normal; font-variant-position: normal; font-stretch: normal; font-size: 14px; line-height: normal; color: rgb(14, 14, 14); text-align: start;&quot; class=&quot;p1&quot;&gt;&lt;font face=&quot;Times New Roman&quot;&gt;Торговая площадка.Наименование&lt;/font&gt;&lt;/p&gt;" style="rounded=1;whiteSpace=wrap;html=1;fillColor=#b1ddf0;strokeColor=#10739e;" parent="1" vertex="1">
          <mxGeometry x="-4483.25" y="8963.75" width="214" height="21" as="geometry" />
        </mxCell>
        <mxCell id="qusNSolM188rsnw8EbCe-199" value="&lt;span style=&quot;font-size: 18px;&quot;&gt;&lt;i&gt;PostgresQL&lt;/i&gt;&lt;/span&gt;" style="text;html=1;align=center;verticalAlign=middle;whiteSpace=wrap;rounded=1;shadow=0;fontSize=23;fontStyle=1;fillColor=#f8cecc;strokeColor=#b85450;" parent="1" vertex="1">
          <mxGeometry x="-4491.5" y="8626" width="161" height="49" as="geometry" />
        </mxCell>
        <mxCell id="nSNsVnWKuV0-D2llhVNN-920" value="" style="rounded=1;whiteSpace=wrap;html=1;gradientColor=none;fillColor=#1C57CD;strokeColor=none;" parent="1" vertex="1">
          <mxGeometry x="-4560.996666666664" y="8374" width="309" height="39" as="geometry" />
        </mxCell>
        <mxCell id="nSNsVnWKuV0-D2llhVNN-921" value="" style="sketch=0;outlineConnect=0;dashed=0;verticalLabelPosition=bottom;verticalAlign=top;align=center;html=1;fontSize=12;fontStyle=0;aspect=fixed;pointerEvents=1;shape=mxgraph.aws4.gear;rounded=1;strokeColor=none;fillColor=default;" parent="1" vertex="1">
          <mxGeometry x="-4280.996666666664" y="8385" width="17" height="17" as="geometry" />
        </mxCell>
        <mxCell id="nSNsVnWKuV0-D2llhVNN-922" value="Регистрация пользователя" style="text;html=1;align=center;verticalAlign=middle;whiteSpace=wrap;rounded=1;fontSize=13;fontColor=#FFFFFF;strokeColor=none;" parent="1" vertex="1">
          <mxGeometry x="-4557.996666666664" y="8378.5" width="172" height="30" as="geometry" />
        </mxCell>
        <mxCell id="nSNsVnWKuV0-D2llhVNN-923" value="" style="rounded=1;whiteSpace=wrap;html=1;fillColor=#1C57CD;strokeColor=none;" parent="1" vertex="1">
          <mxGeometry x="-4560.996666666664" y="8420" width="309" height="39" as="geometry" />
        </mxCell>
        <mxCell id="nSNsVnWKuV0-D2llhVNN-924" value="" style="sketch=0;outlineConnect=0;fontColor=#232F3E;gradientColor=none;fillColor=default;strokeColor=none;dashed=0;verticalLabelPosition=bottom;verticalAlign=top;align=center;html=1;fontSize=12;fontStyle=0;aspect=fixed;pointerEvents=1;shape=mxgraph.aws4.gear;rounded=1;" parent="1" vertex="1">
          <mxGeometry x="-4280.996666666664" y="8431" width="17" height="17" as="geometry" />
        </mxCell>
        <mxCell id="nSNsVnWKuV0-D2llhVNN-925" value="Аутентификация" style="text;html=1;align=center;verticalAlign=middle;whiteSpace=wrap;rounded=1;fontSize=13;fontColor=#FFFFFF;strokeColor=none;" parent="1" vertex="1">
          <mxGeometry x="-4558.996666666664" y="8424.5" width="114" height="30" as="geometry" />
        </mxCell>
        <mxCell id="nSNsVnWKuV0-D2llhVNN-926" value="" style="rounded=1;whiteSpace=wrap;html=1;fillColor=#1C57CD;strokeColor=none;" parent="1" vertex="1">
          <mxGeometry x="-4560.996666666664" y="8465" width="309" height="39" as="geometry" />
        </mxCell>
        <mxCell id="nSNsVnWKuV0-D2llhVNN-927" value="" style="sketch=0;outlineConnect=0;fontColor=#232F3E;gradientColor=none;fillColor=default;strokeColor=none;dashed=0;verticalLabelPosition=bottom;verticalAlign=top;align=center;html=1;fontSize=12;fontStyle=0;aspect=fixed;pointerEvents=1;shape=mxgraph.aws4.gear;rounded=1;" parent="1" vertex="1">
          <mxGeometry x="-4280.996666666664" y="8476" width="17" height="17" as="geometry" />
        </mxCell>
        <mxCell id="nSNsVnWKuV0-D2llhVNN-928" value="Присвоение ролей" style="text;html=1;align=center;verticalAlign=middle;whiteSpace=wrap;rounded=1;fontSize=13;fontColor=#FFFFFF;strokeColor=none;" parent="1" vertex="1">
          <mxGeometry x="-4557.996666666664" y="8470" width="122" height="30" as="geometry" />
        </mxCell>
        <mxCell id="nSNsVnWKuV0-D2llhVNN-929" value="" style="rounded=1;whiteSpace=wrap;html=1;fillColor=#1C57CD;strokeColor=none;" parent="1" vertex="1">
          <mxGeometry x="-4560.996666666664" y="8510" width="309" height="39" as="geometry" />
        </mxCell>
        <mxCell id="nSNsVnWKuV0-D2llhVNN-930" value="" style="sketch=0;outlineConnect=0;fontColor=#232F3E;gradientColor=none;fillColor=default;strokeColor=none;dashed=0;verticalLabelPosition=bottom;verticalAlign=top;align=center;html=1;fontSize=12;fontStyle=0;aspect=fixed;pointerEvents=1;shape=mxgraph.aws4.gear;rounded=1;" parent="1" vertex="1">
          <mxGeometry x="-4280.996666666664" y="8521" width="17" height="17" as="geometry" />
        </mxCell>
        <mxCell id="nSNsVnWKuV0-D2llhVNN-931" value="Валидация токена безопасности" style="text;html=1;align=center;verticalAlign=middle;whiteSpace=wrap;rounded=1;fontSize=13;fontColor=#FFFFFF;strokeColor=none;" parent="1" vertex="1">
          <mxGeometry x="-4557.996666666664" y="8514.5" width="209" height="30" as="geometry" />
        </mxCell>
        <mxCell id="DStSpTCO8v8UND9olX9u-1263" value="&#xa;&lt;span style=&quot;color: rgb(0, 0, 0); font-family: Helvetica; font-size: 18px; font-style: normal; font-variant-ligatures: normal; font-variant-caps: normal; font-weight: 400; letter-spacing: normal; orphans: 2; text-align: center; text-indent: 0px; text-transform: none; widows: 2; word-spacing: 0px; -webkit-text-stroke-width: 0px; white-space: nowrap; background-color: rgb(255, 255, 255); text-decoration-thickness: initial; text-decoration-style: initial; text-decoration-color: initial; display: inline !important; float: none;&quot;&gt;Статус&lt;/span&gt;&lt;div style=&quot;forced-color-adjust: none; color: rgb(0, 0, 0); font-family: Helvetica; font-size: 18px; font-style: normal; font-variant-ligatures: normal; font-variant-caps: normal; font-weight: 400; letter-spacing: normal; orphans: 2; text-align: center; text-indent: 0px; text-transform: none; widows: 2; word-spacing: 0px; -webkit-text-stroke-width: 0px; white-space: nowrap; text-decoration-thickness: initial; text-decoration-style: initial; text-decoration-color: initial;&quot;&gt;Заказа&lt;/div&gt;&#xa;&#xa;" style="edgeStyle=orthogonalEdgeStyle;rounded=0;orthogonalLoop=1;jettySize=auto;html=1;" parent="1" source="DStSpTCO8v8UND9olX9u-390" edge="1">
          <mxGeometry x="0.0065" y="40" relative="1" as="geometry">
            <mxPoint x="-3012" y="9737.761904761905" as="targetPoint" />
            <mxPoint y="-1" as="offset" />
          </mxGeometry>
        </mxCell>
        <mxCell id="DStSpTCO8v8UND9olX9u-1266" value="Формаирование платежа по заказу" style="edgeStyle=orthogonalEdgeStyle;rounded=0;orthogonalLoop=1;jettySize=auto;html=1;entryX=0;entryY=0.493;entryDx=0;entryDy=0;entryPerimeter=0;fontSize=18;horizontal=0;verticalAlign=bottom;" parent="1" target="DStSpTCO8v8UND9olX9u-1282" edge="1">
          <mxGeometry x="-0.6604" y="12" relative="1" as="geometry">
            <mxPoint x="-2834" y="7956" as="targetPoint" />
            <mxPoint x="-2842" y="8904" as="sourcePoint" />
            <Array as="points">
              <mxPoint x="-2834" y="8904" />
              <mxPoint x="-2834" y="7966" />
            </Array>
            <mxPoint as="offset" />
          </mxGeometry>
        </mxCell>
        <mxCell id="DStSpTCO8v8UND9olX9u-390" value="" style="rounded=0;whiteSpace=wrap;html=1;container=0;strokeColor=#CC0000;fillColor=#E6E6E6;" parent="1" vertex="1">
          <mxGeometry x="-3204" y="8906" width="384" height="759" as="geometry" />
        </mxCell>
        <mxCell id="DStSpTCO8v8UND9olX9u-391" value="" style="rounded=1;whiteSpace=wrap;html=1;fillColor=#1C57CD;strokeColor=none;container=0;" parent="1" vertex="1">
          <mxGeometry x="-3164" y="9325" width="309" height="39" as="geometry" />
        </mxCell>
        <mxCell id="DStSpTCO8v8UND9olX9u-392" value="" style="rounded=1;whiteSpace=wrap;html=1;fillColor=#1C57CD;strokeColor=none;container=0;" parent="1" vertex="1">
          <mxGeometry x="-3166.5" y="8986" width="309" height="39" as="geometry" />
        </mxCell>
        <mxCell id="DStSpTCO8v8UND9olX9u-393" value="" style="sketch=0;outlineConnect=0;fontColor=#232F3E;gradientColor=none;fillColor=default;strokeColor=none;dashed=0;verticalLabelPosition=bottom;verticalAlign=top;align=center;html=1;fontSize=12;fontStyle=0;aspect=fixed;pointerEvents=1;shape=mxgraph.aws4.gear;rounded=1;container=0;" parent="1" vertex="1">
          <mxGeometry x="-2884.5" y="8997" width="17" height="17" as="geometry" />
        </mxCell>
        <mxCell id="DStSpTCO8v8UND9olX9u-394" value="Создание заказа" style="text;html=1;align=center;verticalAlign=middle;whiteSpace=wrap;rounded=1;fontSize=13;fontColor=#FFFFFF;strokeColor=none;container=0;" parent="1" vertex="1">
          <mxGeometry x="-3161.5" y="8990.5" width="110" height="30" as="geometry" />
        </mxCell>
        <mxCell id="DStSpTCO8v8UND9olX9u-395" value="" style="rounded=1;whiteSpace=wrap;html=1;fillColor=#1C57CD;strokeColor=none;container=0;" parent="1" vertex="1">
          <mxGeometry x="-3166.5" y="9034" width="309" height="39" as="geometry" />
        </mxCell>
        <mxCell id="DStSpTCO8v8UND9olX9u-396" value="" style="sketch=0;outlineConnect=0;fontColor=#232F3E;gradientColor=none;fillColor=default;strokeColor=none;dashed=0;verticalLabelPosition=bottom;verticalAlign=top;align=center;html=1;fontSize=12;fontStyle=0;aspect=fixed;pointerEvents=1;shape=mxgraph.aws4.gear;rounded=1;container=0;" parent="1" vertex="1">
          <mxGeometry x="-2884.5" y="9045" width="17" height="17" as="geometry" />
        </mxCell>
        <mxCell id="DStSpTCO8v8UND9olX9u-397" value="Редактирование заказа" style="text;html=1;align=center;verticalAlign=middle;whiteSpace=wrap;rounded=1;fontSize=13;fontColor=#FFFFFF;strokeColor=none;container=0;" parent="1" vertex="1">
          <mxGeometry x="-3163.5" y="9038.5" width="154" height="30" as="geometry" />
        </mxCell>
        <mxCell id="DStSpTCO8v8UND9olX9u-398" value="" style="rounded=1;whiteSpace=wrap;html=1;fillColor=#1C57CD;strokeColor=none;container=0;" parent="1" vertex="1">
          <mxGeometry x="-3166.5" y="9082" width="309" height="39" as="geometry" />
        </mxCell>
        <mxCell id="DStSpTCO8v8UND9olX9u-399" value="" style="sketch=0;outlineConnect=0;fontColor=#232F3E;gradientColor=none;fillColor=default;strokeColor=none;dashed=0;verticalLabelPosition=bottom;verticalAlign=top;align=center;html=1;fontSize=12;fontStyle=0;aspect=fixed;pointerEvents=1;shape=mxgraph.aws4.gear;rounded=1;container=0;" parent="1" vertex="1">
          <mxGeometry x="-2884.5" y="9093" width="17" height="17" as="geometry" />
        </mxCell>
        <mxCell id="DStSpTCO8v8UND9olX9u-400" value="Сохранение заказа" style="text;html=1;align=center;verticalAlign=middle;whiteSpace=wrap;rounded=1;fontSize=13;fontColor=#FFFFFF;strokeColor=none;container=0;" parent="1" vertex="1">
          <mxGeometry x="-3162.5" y="9086" width="126" height="30" as="geometry" />
        </mxCell>
        <mxCell id="DStSpTCO8v8UND9olX9u-401" value="" style="rounded=1;whiteSpace=wrap;html=1;fillColor=#1C57CD;strokeColor=none;container=0;" parent="1" vertex="1">
          <mxGeometry x="-3166.5" y="9131" width="309" height="39" as="geometry" />
        </mxCell>
        <mxCell id="DStSpTCO8v8UND9olX9u-402" value="" style="sketch=0;outlineConnect=0;fontColor=#232F3E;gradientColor=none;fillColor=default;strokeColor=none;dashed=0;verticalLabelPosition=bottom;verticalAlign=top;align=center;html=1;fontSize=12;fontStyle=0;aspect=fixed;pointerEvents=1;shape=mxgraph.aws4.gear;rounded=1;container=0;" parent="1" vertex="1">
          <mxGeometry x="-2885" y="9142" width="17" height="17" as="geometry" />
        </mxCell>
        <mxCell id="DStSpTCO8v8UND9olX9u-403" value="Подтверждение заказа" style="text;html=1;align=center;verticalAlign=middle;whiteSpace=wrap;rounded=1;fontSize=13;fontColor=#FFFFFF;strokeColor=none;container=0;" parent="1" vertex="1">
          <mxGeometry x="-3162.5" y="9135.5" width="152" height="30" as="geometry" />
        </mxCell>
        <mxCell id="DStSpTCO8v8UND9olX9u-404" value="" style="rounded=1;whiteSpace=wrap;html=1;fillColor=#1C57CD;strokeColor=none;container=0;" parent="1" vertex="1">
          <mxGeometry x="-3166.5" y="9179" width="309" height="39" as="geometry" />
        </mxCell>
        <mxCell id="DStSpTCO8v8UND9olX9u-405" value="" style="sketch=0;outlineConnect=0;fontColor=#232F3E;gradientColor=none;fillColor=default;strokeColor=none;dashed=0;verticalLabelPosition=bottom;verticalAlign=top;align=center;html=1;fontSize=12;fontStyle=0;aspect=fixed;pointerEvents=1;shape=mxgraph.aws4.gear;rounded=1;container=0;" parent="1" vertex="1">
          <mxGeometry x="-2885" y="9190" width="17" height="17" as="geometry" />
        </mxCell>
        <mxCell id="DStSpTCO8v8UND9olX9u-406" value="Размещение заказа" style="text;html=1;align=center;verticalAlign=middle;whiteSpace=wrap;rounded=1;fontSize=13;fontColor=#FFFFFF;strokeColor=none;container=0;" parent="1" vertex="1">
          <mxGeometry x="-3163.5" y="9183.5" width="130.5" height="30" as="geometry" />
        </mxCell>
        <mxCell id="DStSpTCO8v8UND9olX9u-407" value="" style="rounded=1;whiteSpace=wrap;html=1;fillColor=#1C57CD;strokeColor=none;container=0;" parent="1" vertex="1">
          <mxGeometry x="-3166.5" y="9228" width="309" height="39" as="geometry" />
        </mxCell>
        <mxCell id="DStSpTCO8v8UND9olX9u-408" value="" style="sketch=0;outlineConnect=0;fontColor=#232F3E;gradientColor=none;fillColor=default;strokeColor=none;dashed=0;verticalLabelPosition=bottom;verticalAlign=top;align=center;html=1;fontSize=12;fontStyle=0;aspect=fixed;pointerEvents=1;shape=mxgraph.aws4.gear;rounded=1;container=0;" parent="1" vertex="1">
          <mxGeometry x="-2885" y="9239" width="17" height="17" as="geometry" />
        </mxCell>
        <mxCell id="DStSpTCO8v8UND9olX9u-409" value="Отобразить все заказы" style="text;html=1;align=center;verticalAlign=middle;whiteSpace=wrap;rounded=1;fontSize=13;fontColor=#FFFFFF;strokeColor=none;container=0;" parent="1" vertex="1">
          <mxGeometry x="-3163.5" y="9232.5" width="152" height="30" as="geometry" />
        </mxCell>
        <mxCell id="DStSpTCO8v8UND9olX9u-410" value="" style="rounded=1;whiteSpace=wrap;html=1;fillColor=#1C57CD;strokeColor=none;container=0;" parent="1" vertex="1">
          <mxGeometry x="-3166.5" y="9278" width="309" height="39" as="geometry" />
        </mxCell>
        <mxCell id="DStSpTCO8v8UND9olX9u-411" value="" style="sketch=0;outlineConnect=0;fontColor=#232F3E;gradientColor=none;fillColor=default;strokeColor=none;dashed=0;verticalLabelPosition=bottom;verticalAlign=top;align=center;html=1;fontSize=12;fontStyle=0;aspect=fixed;pointerEvents=1;shape=mxgraph.aws4.gear;rounded=1;container=0;" parent="1" vertex="1">
          <mxGeometry x="-2884.5" y="9289" width="17" height="17" as="geometry" />
        </mxCell>
        <mxCell id="DStSpTCO8v8UND9olX9u-412" value="Отобразить детали заказа" style="text;html=1;align=center;verticalAlign=middle;whiteSpace=wrap;rounded=1;fontSize=13;fontColor=#FFFFFF;strokeColor=none;container=0;" parent="1" vertex="1">
          <mxGeometry x="-3161.5" y="9283" width="169" height="30" as="geometry" />
        </mxCell>
        <mxCell id="DStSpTCO8v8UND9olX9u-413" value="Сервис заказ" style="text;html=1;align=center;verticalAlign=middle;resizable=0;points=[];autosize=1;strokeColor=none;fillColor=none;fontSize=30;container=0;" parent="1" vertex="1">
          <mxGeometry x="-3116.9982722513087" y="8911" width="210" height="50" as="geometry" />
        </mxCell>
        <mxCell id="DStSpTCO8v8UND9olX9u-414" value="" style="strokeWidth=2;html=1;shape=mxgraph.flowchart.database;whiteSpace=wrap;container=0;" parent="1" vertex="1">
          <mxGeometry x="-3147" y="9384" width="270" height="260" as="geometry" />
        </mxCell>
        <mxCell id="DStSpTCO8v8UND9olX9u-415" value="&lt;p style=&quot;margin: 0px 0px 0px 13px; text-indent: -13px; font-variant-numeric: normal; font-variant-east-asian: normal; font-variant-alternates: normal; font-kerning: auto; font-optical-sizing: auto; font-feature-settings: normal; font-variation-settings: normal; font-variant-position: normal; font-stretch: normal; font-size: 14px; line-height: normal; color: rgb(14, 14, 14); text-align: start;&quot; class=&quot;p1&quot;&gt;&lt;font face=&quot;Times New Roman&quot;&gt;Заказ.ID&lt;/font&gt;&lt;/p&gt;" style="rounded=1;whiteSpace=wrap;html=1;fillColor=#b1ddf0;strokeColor=#10739e;container=0;" parent="1" vertex="1">
          <mxGeometry x="-3115" y="9498.25" width="151" height="21" as="geometry" />
        </mxCell>
        <mxCell id="DStSpTCO8v8UND9olX9u-416" value="&lt;p style=&quot;margin: 0px 0px 0px 13px; text-indent: -13px; font-variant-numeric: normal; font-variant-east-asian: normal; font-variant-alternates: normal; font-kerning: auto; font-optical-sizing: auto; font-feature-settings: normal; font-variation-settings: normal; font-variant-position: normal; font-stretch: normal; font-size: 14px; line-height: normal; color: rgb(14, 14, 14); text-align: start;&quot; class=&quot;p1&quot;&gt;&lt;font face=&quot;Times New Roman&quot;&gt;Заказ.Товары&lt;/font&gt;&lt;/p&gt;" style="rounded=1;whiteSpace=wrap;html=1;fillColor=#b1ddf0;strokeColor=#10739e;container=0;" parent="1" vertex="1">
          <mxGeometry x="-3115" y="9522.75" width="151" height="21" as="geometry" />
        </mxCell>
        <mxCell id="DStSpTCO8v8UND9olX9u-417" value="Определить способ оплаты" style="text;html=1;align=center;verticalAlign=middle;whiteSpace=wrap;rounded=1;fontSize=13;fontColor=#FFFFFF;strokeColor=none;container=0;" parent="1" vertex="1">
          <mxGeometry x="-3157" y="9329.5" width="173" height="30" as="geometry" />
        </mxCell>
        <mxCell id="DStSpTCO8v8UND9olX9u-418" value="" style="sketch=0;outlineConnect=0;fontColor=#232F3E;gradientColor=none;fillColor=#FFFFFF;strokeColor=none;dashed=0;verticalLabelPosition=bottom;verticalAlign=top;align=center;html=1;fontSize=12;fontStyle=0;aspect=fixed;pointerEvents=1;shape=mxgraph.aws4.gear;rounded=1;container=0;" parent="1" vertex="1">
          <mxGeometry x="-2878" y="9336" width="17" height="17" as="geometry" />
        </mxCell>
        <mxCell id="DStSpTCO8v8UND9olX9u-419" value="&lt;span style=&quot;font-size: 18px;&quot;&gt;&lt;i&gt;PostgresQL&lt;/i&gt;&lt;/span&gt;" style="text;html=1;align=center;verticalAlign=middle;whiteSpace=wrap;rounded=1;shadow=0;fontSize=23;fontStyle=1;fillColor=#f8cecc;strokeColor=#b85450;" parent="1" vertex="1">
          <mxGeometry x="-3090" y="9400.25" width="161" height="49" as="geometry" />
        </mxCell>
        <mxCell id="DStSpTCO8v8UND9olX9u-452" value="" style="group;strokeColor=#CC0000;container=0;fillColor=#E6E6E6;" parent="1" vertex="1" connectable="0">
          <mxGeometry x="-4603" y="7357" width="384" height="920" as="geometry" />
        </mxCell>
        <mxCell id="DStSpTCO8v8UND9olX9u-453" value="Сервис товаров и услуг" style="text;html=1;align=center;verticalAlign=middle;resizable=0;points=[];autosize=1;strokeColor=none;fillColor=none;fontSize=30;" parent="1" vertex="1">
          <mxGeometry x="-4582.628272251309" y="7368" width="350" height="50" as="geometry" />
        </mxCell>
        <mxCell id="DStSpTCO8v8UND9olX9u-454" value="" style="rounded=1;whiteSpace=wrap;html=1;fillColor=#1C57CD;strokeColor=none;container=0;" parent="1" vertex="1">
          <mxGeometry x="-4566.832460732984" y="7747.5" width="310.6178010471204" height="39" as="geometry" />
        </mxCell>
        <mxCell id="DStSpTCO8v8UND9olX9u-455" value="" style="sketch=0;outlineConnect=0;fontColor=#232F3E;gradientColor=none;fillColor=#FFFFFF;strokeColor=none;dashed=0;verticalLabelPosition=bottom;verticalAlign=top;align=center;html=1;fontSize=12;fontStyle=0;aspect=fixed;pointerEvents=1;shape=mxgraph.aws4.gear;rounded=1;container=0;" parent="1" vertex="1">
          <mxGeometry x="-4279.335078534032" y="7758.5" width="17" height="17" as="geometry" />
        </mxCell>
        <mxCell id="DStSpTCO8v8UND9olX9u-456" value="Добавить товар в профиль пользователя" style="text;html=1;align=center;verticalAlign=middle;whiteSpace=wrap;rounded=1;fontSize=13;fontColor=#FFFFFF;strokeColor=none;container=0;" parent="1" vertex="1">
          <mxGeometry x="-4558.79057591623" y="7751.5" width="263.3717277486911" height="30" as="geometry" />
        </mxCell>
        <mxCell id="DStSpTCO8v8UND9olX9u-457" value="" style="rounded=1;whiteSpace=wrap;html=1;fillColor=#1C57CD;strokeColor=none;container=0;" parent="1" vertex="1">
          <mxGeometry x="-4566.832460732984" y="7698" width="310.6178010471204" height="39" as="geometry" />
        </mxCell>
        <mxCell id="DStSpTCO8v8UND9olX9u-458" value="" style="sketch=0;outlineConnect=0;fontColor=#232F3E;gradientColor=none;fillColor=#FFFFFF;strokeColor=none;dashed=0;verticalLabelPosition=bottom;verticalAlign=top;align=center;html=1;fontSize=12;fontStyle=0;aspect=fixed;pointerEvents=1;shape=mxgraph.aws4.gear;rounded=1;container=0;" parent="1" vertex="1">
          <mxGeometry x="-4279.335078534032" y="7708" width="17" height="17" as="geometry" />
        </mxCell>
        <mxCell id="DStSpTCO8v8UND9olX9u-459" value="Добавить услугу в профиль пользователя" style="text;html=1;align=center;verticalAlign=middle;whiteSpace=wrap;rounded=1;fontSize=13;fontColor=#FFFFFF;strokeColor=none;container=0;" parent="1" vertex="1">
          <mxGeometry x="-4564.821989528796" y="7703" width="274.42931937172773" height="30" as="geometry" />
        </mxCell>
        <mxCell id="DStSpTCO8v8UND9olX9u-460" value="" style="rounded=1;whiteSpace=wrap;html=1;fillColor=#1C57CD;strokeColor=none;container=0;" parent="1" vertex="1">
          <mxGeometry x="-4566.832460732984" y="7846.5" width="310.6178010471204" height="39" as="geometry" />
        </mxCell>
        <mxCell id="DStSpTCO8v8UND9olX9u-461" value="" style="sketch=0;outlineConnect=0;fontColor=#232F3E;gradientColor=none;fillColor=#FFFFFF;strokeColor=none;dashed=0;verticalLabelPosition=bottom;verticalAlign=top;align=center;html=1;fontSize=12;fontStyle=0;aspect=fixed;pointerEvents=1;shape=mxgraph.aws4.gear;rounded=1;container=0;" parent="1" vertex="1">
          <mxGeometry x="-4279.335078534032" y="7857.5" width="17" height="17" as="geometry" />
        </mxCell>
        <mxCell id="DStSpTCO8v8UND9olX9u-462" value="Изменить товар пользователя" style="text;html=1;align=center;verticalAlign=middle;whiteSpace=wrap;rounded=1;fontSize=13;fontColor=#FFFFFF;strokeColor=none;container=0;" parent="1" vertex="1">
          <mxGeometry x="-4559.795811518325" y="7849.5" width="196.02094240837695" height="30" as="geometry" />
        </mxCell>
        <mxCell id="DStSpTCO8v8UND9olX9u-463" value="" style="rounded=1;whiteSpace=wrap;html=1;fillColor=#1C57CD;strokeColor=none;container=0;" parent="1" vertex="1">
          <mxGeometry x="-4566.832460732984" y="7648" width="310.6178010471204" height="39" as="geometry" />
        </mxCell>
        <mxCell id="DStSpTCO8v8UND9olX9u-464" value="" style="sketch=0;outlineConnect=0;fontColor=#232F3E;gradientColor=none;fillColor=#FFFFFF;strokeColor=none;dashed=0;verticalLabelPosition=bottom;verticalAlign=top;align=center;html=1;fontSize=12;fontStyle=0;aspect=fixed;pointerEvents=1;shape=mxgraph.aws4.gear;rounded=1;container=0;" parent="1" vertex="1">
          <mxGeometry x="-4279.335078534032" y="7659" width="17" height="17" as="geometry" />
        </mxCell>
        <mxCell id="DStSpTCO8v8UND9olX9u-465" value="Изменить услугу пользователя" style="text;html=1;align=center;verticalAlign=middle;whiteSpace=wrap;rounded=1;fontSize=13;fontColor=#FFFFFF;strokeColor=none;container=0;" parent="1" vertex="1">
          <mxGeometry x="-4562.811518324607" y="7652.5" width="196.02094240837695" height="30" as="geometry" />
        </mxCell>
        <mxCell id="DStSpTCO8v8UND9olX9u-466" value="" style="rounded=1;whiteSpace=wrap;html=1;fillColor=#1C57CD;strokeColor=none;container=0;" parent="1" vertex="1">
          <mxGeometry x="-4566.832460732984" y="7597" width="310.6178010471204" height="39" as="geometry" />
        </mxCell>
        <mxCell id="DStSpTCO8v8UND9olX9u-467" value="" style="sketch=0;outlineConnect=0;dashed=0;verticalLabelPosition=bottom;verticalAlign=top;align=center;html=1;fontSize=12;fontStyle=0;aspect=fixed;pointerEvents=1;shape=mxgraph.aws4.gear;rounded=1;container=0;fillColor=#f5f5f5;fontColor=#333333;strokeColor=#666666;" parent="1" vertex="1">
          <mxGeometry x="-4283.356020942409" y="7608" width="17" height="17" as="geometry" />
        </mxCell>
        <mxCell id="DStSpTCO8v8UND9olX9u-468" value="Удалить услугу пользователя" style="text;html=1;align=center;verticalAlign=middle;whiteSpace=wrap;rounded=1;fontSize=13;fontColor=#FFFFFF;strokeColor=none;container=0;" parent="1" vertex="1">
          <mxGeometry x="-4563.8167539267015" y="7601.5" width="189.9895287958115" height="30" as="geometry" />
        </mxCell>
        <mxCell id="DStSpTCO8v8UND9olX9u-469" value="" style="rounded=1;whiteSpace=wrap;html=1;fillColor=#1C57CD;strokeColor=none;container=0;" parent="1" vertex="1">
          <mxGeometry x="-4566.832460732984" y="7796" width="310.6178010471204" height="39" as="geometry" />
        </mxCell>
        <mxCell id="DStSpTCO8v8UND9olX9u-470" value="" style="sketch=0;outlineConnect=0;dashed=0;verticalLabelPosition=bottom;verticalAlign=top;align=center;html=1;fontSize=12;fontStyle=0;aspect=fixed;pointerEvents=1;shape=mxgraph.aws4.gear;rounded=1;container=0;fillColor=#f5f5f5;fontColor=#333333;strokeColor=#666666;" parent="1" vertex="1">
          <mxGeometry x="-4283.356020942409" y="7807" width="17" height="17" as="geometry" />
        </mxCell>
        <mxCell id="DStSpTCO8v8UND9olX9u-471" value="Удалить товар пользователя" style="text;html=1;align=center;verticalAlign=middle;whiteSpace=wrap;rounded=1;fontSize=13;fontColor=#FFFFFF;strokeColor=none;container=0;" parent="1" vertex="1">
          <mxGeometry x="-4564.821989528796" y="7800.5" width="188.98429319371726" height="30" as="geometry" />
        </mxCell>
        <mxCell id="DStSpTCO8v8UND9olX9u-472" value="" style="rounded=1;whiteSpace=wrap;html=1;fillColor=#1C57CD;strokeColor=none;container=0;" parent="1" vertex="1">
          <mxGeometry x="-4566.832460732984" y="7443" width="310.6178010471204" height="39" as="geometry" />
        </mxCell>
        <mxCell id="DStSpTCO8v8UND9olX9u-473" value="" style="sketch=0;outlineConnect=0;fontColor=#232F3E;gradientColor=none;fillColor=#FFFFFF;strokeColor=none;dashed=0;verticalLabelPosition=bottom;verticalAlign=top;align=center;html=1;fontSize=12;fontStyle=0;aspect=fixed;pointerEvents=1;shape=mxgraph.aws4.gear;rounded=1;container=0;" parent="1" vertex="1">
          <mxGeometry x="-4279.335078534032" y="7454" width="17" height="17" as="geometry" />
        </mxCell>
        <mxCell id="DStSpTCO8v8UND9olX9u-474" value="Поиск товаров" style="text;html=1;align=center;verticalAlign=middle;whiteSpace=wrap;rounded=1;fontSize=13;fontColor=#FFFFFF;strokeColor=none;container=0;" parent="1" vertex="1">
          <mxGeometry x="-4563.8167539267015" y="7447.5" width="99.51832460732984" height="30" as="geometry" />
        </mxCell>
        <mxCell id="DStSpTCO8v8UND9olX9u-475" value="" style="rounded=1;whiteSpace=wrap;html=1;fillColor=#1C57CD;strokeColor=none;container=0;" parent="1" vertex="1">
          <mxGeometry x="-4566.832460732984" y="7495.5" width="310.6178010471204" height="39" as="geometry" />
        </mxCell>
        <mxCell id="DStSpTCO8v8UND9olX9u-476" value="" style="sketch=0;outlineConnect=0;fontColor=#232F3E;gradientColor=none;fillColor=#FFFFFF;strokeColor=none;dashed=0;verticalLabelPosition=bottom;verticalAlign=top;align=center;html=1;fontSize=12;fontStyle=0;aspect=fixed;pointerEvents=1;shape=mxgraph.aws4.gear;rounded=1;container=0;" parent="1" vertex="1">
          <mxGeometry x="-4279.335078534032" y="7506.5" width="17" height="17" as="geometry" />
        </mxCell>
        <mxCell id="DStSpTCO8v8UND9olX9u-477" value="Поиск услуг" style="text;html=1;align=center;verticalAlign=middle;whiteSpace=wrap;rounded=1;fontSize=13;fontColor=#FFFFFF;strokeColor=none;container=0;" parent="1" vertex="1">
          <mxGeometry x="-4562.811518324607" y="7499.5" width="81.4240837696335" height="30" as="geometry" />
        </mxCell>
        <mxCell id="DStSpTCO8v8UND9olX9u-478" value="" style="rounded=1;whiteSpace=wrap;html=1;fillColor=#1C57CD;strokeColor=none;container=0;" parent="1" vertex="1">
          <mxGeometry x="-4566.832460732984" y="7545" width="310.6178010471204" height="39" as="geometry" />
        </mxCell>
        <mxCell id="DStSpTCO8v8UND9olX9u-479" value="" style="sketch=0;outlineConnect=0;fontColor=#232F3E;gradientColor=none;fillColor=#FFFFFF;strokeColor=none;dashed=0;verticalLabelPosition=bottom;verticalAlign=top;align=center;html=1;fontSize=12;fontStyle=0;aspect=fixed;pointerEvents=1;shape=mxgraph.aws4.gear;rounded=1;container=0;" parent="1" vertex="1">
          <mxGeometry x="-4279.335078534032" y="7556" width="17" height="17" as="geometry" />
        </mxCell>
        <mxCell id="DStSpTCO8v8UND9olX9u-480" value="Фильтрация и сортировка результатов" style="text;html=1;align=center;verticalAlign=middle;whiteSpace=wrap;rounded=1;fontSize=13;fontColor=#FFFFFF;strokeColor=none;container=0;" parent="1" vertex="1">
          <mxGeometry x="-4561.806282722513" y="7549.5" width="249.2984293193717" height="30" as="geometry" />
        </mxCell>
        <mxCell id="DStSpTCO8v8UND9olX9u-481" value="" style="strokeWidth=2;html=1;shape=mxgraph.flowchart.database;whiteSpace=wrap;container=0;" parent="1" vertex="1">
          <mxGeometry x="-4518.581151832461" y="7931.5" width="231.20418848167537" height="305" as="geometry" />
        </mxCell>
        <mxCell id="DStSpTCO8v8UND9olX9u-482" value="&lt;p style=&quot;margin: 0px 0px 0px 13px; text-indent: -13px; font-variant-numeric: normal; font-variant-east-asian: normal; font-variant-alternates: normal; font-kerning: auto; font-optical-sizing: auto; font-feature-settings: normal; font-variation-settings: normal; font-variant-position: normal; font-stretch: normal; font-size: 14px; line-height: normal; color: rgb(14, 14, 14); text-align: start;&quot; class=&quot;p1&quot;&gt;&lt;font face=&quot;Times New Roman&quot;&gt;Услуга.ID&lt;/font&gt;&lt;/p&gt;" style="rounded=1;whiteSpace=wrap;html=1;fillColor=#b1ddf0;strokeColor=#10739e;container=0;" parent="1" vertex="1">
          <mxGeometry x="-4502.497382198953" y="8049" width="87.45549738219894" height="21" as="geometry" />
        </mxCell>
        <mxCell id="DStSpTCO8v8UND9olX9u-483" value="&lt;p style=&quot;margin: 0px 0px 0px 13px; text-indent: -13px; font-variant-numeric: normal; font-variant-east-asian: normal; font-variant-alternates: normal; font-kerning: auto; font-optical-sizing: auto; font-feature-settings: normal; font-variation-settings: normal; font-variant-position: normal; font-stretch: normal; font-size: 14px; line-height: normal; color: rgb(14, 14, 14); text-align: start;&quot; class=&quot;p1&quot;&gt;&lt;font face=&quot;Times New Roman&quot;&gt;Услуга.Название&lt;/font&gt;&lt;/p&gt;" style="rounded=1;whiteSpace=wrap;html=1;fillColor=#b1ddf0;strokeColor=#10739e;container=0;" parent="1" vertex="1">
          <mxGeometry x="-4411.020942408377" y="8049" width="110.57591623036649" height="21" as="geometry" />
        </mxCell>
        <mxCell id="DStSpTCO8v8UND9olX9u-484" value="&lt;p style=&quot;margin: 0px 0px 0px 13px; text-indent: -13px; font-variant-numeric: normal; font-variant-east-asian: normal; font-variant-alternates: normal; font-kerning: auto; font-optical-sizing: auto; font-feature-settings: normal; font-variation-settings: normal; font-variant-position: normal; font-stretch: normal; font-size: 14px; line-height: normal; color: rgb(14, 14, 14); text-align: start;&quot; class=&quot;p1&quot;&gt;&lt;font face=&quot;Times New Roman&quot;&gt;Услуга. Описание&lt;/font&gt;&lt;/p&gt;" style="rounded=1;whiteSpace=wrap;html=1;fillColor=#b1ddf0;strokeColor=#10739e;container=0;" parent="1" vertex="1">
          <mxGeometry x="-4502.497382198953" y="8079" width="112.58638743455496" height="21" as="geometry" />
        </mxCell>
        <mxCell id="DStSpTCO8v8UND9olX9u-485" value="&lt;p style=&quot;margin: 0px 0px 0px 13px; text-indent: -13px; font-variant-numeric: normal; font-variant-east-asian: normal; font-variant-alternates: normal; font-kerning: auto; font-optical-sizing: auto; font-feature-settings: normal; font-variation-settings: normal; font-variant-position: normal; font-stretch: normal; font-size: 14px; line-height: normal; color: rgb(14, 14, 14); text-align: start;&quot; class=&quot;p1&quot;&gt;&lt;font face=&quot;Times New Roman&quot;&gt;Товар.ID&lt;/font&gt;&lt;/p&gt;" style="rounded=1;whiteSpace=wrap;html=1;fillColor=#b1ddf0;strokeColor=#10739e;container=0;" parent="1" vertex="1">
          <mxGeometry x="-4497.471204188481" y="8112" width="78.40837696335078" height="21" as="geometry" />
        </mxCell>
        <mxCell id="DStSpTCO8v8UND9olX9u-486" value="&lt;p style=&quot;margin: 0px 0px 0px 13px; text-indent: -13px; font-variant-numeric: normal; font-variant-east-asian: normal; font-variant-alternates: normal; font-kerning: auto; font-optical-sizing: auto; font-feature-settings: normal; font-variation-settings: normal; font-variant-position: normal; font-stretch: normal; font-size: 14px; line-height: normal; color: rgb(14, 14, 14); text-align: start;&quot; class=&quot;p1&quot;&gt;&lt;font face=&quot;Times New Roman&quot;&gt;Товар.Название&lt;/font&gt;&lt;/p&gt;" style="rounded=1;whiteSpace=wrap;html=1;fillColor=#b1ddf0;strokeColor=#10739e;container=0;" parent="1" vertex="1">
          <mxGeometry x="-4502.497382198953" y="8170" width="111.58115183246073" height="21" as="geometry" />
        </mxCell>
        <mxCell id="DStSpTCO8v8UND9olX9u-487" value="&lt;p style=&quot;margin: 0px 0px 0px 13px; text-indent: -13px; font-variant-numeric: normal; font-variant-east-asian: normal; font-variant-alternates: normal; font-kerning: auto; font-optical-sizing: auto; font-feature-settings: normal; font-variation-settings: normal; font-variant-position: normal; font-stretch: normal; font-size: 14px; line-height: normal; color: rgb(14, 14, 14); text-align: start;&quot; class=&quot;p1&quot;&gt;&lt;font face=&quot;Times New Roman&quot;&gt;Товар.Описание&lt;/font&gt;&lt;/p&gt;" style="rounded=1;whiteSpace=wrap;html=1;fillColor=#b1ddf0;strokeColor=#10739e;container=0;" parent="1" vertex="1">
          <mxGeometry x="-4498.4764397905765" y="8138" width="107.56020942408377" height="21" as="geometry" />
        </mxCell>
        <mxCell id="DStSpTCO8v8UND9olX9u-488" value="&lt;span style=&quot;font-size: 18px;&quot;&gt;&lt;i&gt;PostgresQL&lt;/i&gt;&lt;/span&gt;" style="text;html=1;align=center;verticalAlign=middle;whiteSpace=wrap;rounded=1;shadow=0;fontSize=23;fontStyle=1;fillColor=#f8cecc;strokeColor=#b85450;" parent="1" vertex="1">
          <mxGeometry x="-4487.5" y="7957" width="161" height="49" as="geometry" />
        </mxCell>
        <mxCell id="DStSpTCO8v8UND9olX9u-704" value="Клиент" style="shape=umlActor;verticalLabelPosition=bottom;verticalAlign=top;html=1;outlineConnect=0;rounded=1;" parent="1" vertex="1">
          <mxGeometry x="-3504.0027966308594" y="7757.995508422851" width="65" height="141" as="geometry" />
        </mxCell>
        <mxCell id="DStSpTCO8v8UND9olX9u-705" value="" style="rounded=0;whiteSpace=wrap;html=1;" parent="1" vertex="1">
          <mxGeometry x="-4112" y="8089" width="1206" height="300" as="geometry" />
        </mxCell>
        <mxCell id="DStSpTCO8v8UND9olX9u-706" value="" style="rounded=0;whiteSpace=wrap;html=1;strokeColor=#CC0000;fillColor=#E6E6E6;" parent="1" vertex="1">
          <mxGeometry x="-3951" y="8507" width="955" height="130" as="geometry" />
        </mxCell>
        <mxCell id="DStSpTCO8v8UND9olX9u-707" value="" style="group;strokeColor=#CC0000;container=0;fillColor=#E6E6E6;" parent="1" vertex="1" connectable="0">
          <mxGeometry x="-4076" y="8190" width="183" height="159" as="geometry" />
        </mxCell>
        <mxCell id="DStSpTCO8v8UND9olX9u-708" value="" style="group;strokeColor=#CC0000;container=0;fillColor=#E6E6E6;" parent="1" vertex="1" connectable="0">
          <mxGeometry x="-3836" y="8189" width="180" height="160" as="geometry" />
        </mxCell>
        <mxCell id="DStSpTCO8v8UND9olX9u-709" value="" style="group;strokeColor=#CC0000;container=0;fillColor=#E6E6E6;" parent="1" vertex="1" connectable="0">
          <mxGeometry x="-3596" y="8189" width="180" height="160" as="geometry" />
        </mxCell>
        <mxCell id="DStSpTCO8v8UND9olX9u-710" value="" style="group;strokeColor=#CC0000;container=0;fillColor=#E6E6E6;" parent="1" vertex="1" connectable="0">
          <mxGeometry x="-3351" y="8190" width="180" height="160" as="geometry" />
        </mxCell>
        <mxCell id="DStSpTCO8v8UND9olX9u-711" value="" style="group;strokeColor=#CC0000;container=0;fillColor=#E6E6E6;" parent="1" vertex="1" connectable="0">
          <mxGeometry x="-3112" y="8189" width="180" height="160" as="geometry" />
        </mxCell>
        <mxCell id="DStSpTCO8v8UND9olX9u-712" style="edgeStyle=orthogonalEdgeStyle;rounded=0;orthogonalLoop=1;jettySize=auto;html=1;entryX=0.288;entryY=0;entryDx=0;entryDy=0;entryPerimeter=0;" parent="1" source="DStSpTCO8v8UND9olX9u-738" target="DStSpTCO8v8UND9olX9u-706" edge="1">
          <mxGeometry relative="1" as="geometry">
            <mxPoint x="-3745.9629629629635" y="8349" as="sourcePoint" />
          </mxGeometry>
        </mxCell>
        <mxCell id="DStSpTCO8v8UND9olX9u-713" style="edgeStyle=orthogonalEdgeStyle;rounded=0;orthogonalLoop=1;jettySize=auto;html=1;entryX=0.465;entryY=-0.01;entryDx=0;entryDy=0;entryPerimeter=0;" parent="1" source="DStSpTCO8v8UND9olX9u-740" target="DStSpTCO8v8UND9olX9u-706" edge="1">
          <mxGeometry relative="1" as="geometry">
            <mxPoint x="-3505.9629629629635" y="8349" as="sourcePoint" />
          </mxGeometry>
        </mxCell>
        <mxCell id="DStSpTCO8v8UND9olX9u-716" style="edgeStyle=orthogonalEdgeStyle;rounded=0;orthogonalLoop=1;jettySize=auto;html=1;entryX=0.723;entryY=-0.01;entryDx=0;entryDy=0;entryPerimeter=0;" parent="1" target="DStSpTCO8v8UND9olX9u-706" edge="1">
          <mxGeometry relative="1" as="geometry">
            <mxPoint x="-3261" y="8350" as="sourcePoint" />
          </mxGeometry>
        </mxCell>
        <mxCell id="DStSpTCO8v8UND9olX9u-718" style="edgeStyle=orthogonalEdgeStyle;rounded=0;orthogonalLoop=1;jettySize=auto;html=1;entryX=0.916;entryY=0.021;entryDx=0;entryDy=0;entryPerimeter=0;" parent="1" target="DStSpTCO8v8UND9olX9u-706" edge="1">
          <mxGeometry relative="1" as="geometry">
            <mxPoint x="-3021.9629629629635" y="8349" as="sourcePoint" />
          </mxGeometry>
        </mxCell>
        <mxCell id="DStSpTCO8v8UND9olX9u-722" style="edgeStyle=orthogonalEdgeStyle;rounded=0;orthogonalLoop=1;jettySize=auto;html=1;entryX=0.073;entryY=0.013;entryDx=0;entryDy=0;entryPerimeter=0;" parent="1" source="DStSpTCO8v8UND9olX9u-736" target="DStSpTCO8v8UND9olX9u-706" edge="1">
          <mxGeometry relative="1" as="geometry">
            <mxPoint x="-3986" y="8350" as="sourcePoint" />
            <Array as="points">
              <mxPoint x="-3986" y="8429" />
              <mxPoint x="-3881" y="8429" />
            </Array>
          </mxGeometry>
        </mxCell>
        <mxCell id="DStSpTCO8v8UND9olX9u-723" value="Shell App" style="text;html=1;align=center;verticalAlign=middle;resizable=0;points=[];autosize=1;strokeColor=none;fillColor=none;fontSize=20;" parent="1" vertex="1">
          <mxGeometry x="-4095.9982722513087" y="8109" width="110" height="40" as="geometry" />
        </mxCell>
        <mxCell id="DStSpTCO8v8UND9olX9u-724" value="&lt;font style=&quot;font-size: 18px;&quot;&gt;&lt;i&gt;React/Microfronted Module Federation/html/css&lt;/i&gt;&lt;/font&gt;" style="text;html=1;align=center;verticalAlign=middle;whiteSpace=wrap;rounded=1;shadow=0;fontSize=23;fontStyle=1;fillColor=#f8cecc;strokeColor=#b85450;" parent="1" vertex="1">
          <mxGeometry x="-4112" y="8049" width="460" height="43" as="geometry" />
        </mxCell>
        <mxCell id="DStSpTCO8v8UND9olX9u-725" value="API Gateway" style="text;html=1;align=center;verticalAlign=middle;resizable=0;points=[];autosize=1;strokeColor=none;fillColor=none;fontSize=30;rotation=0;" parent="1" vertex="1">
          <mxGeometry x="-3573.5" y="8547" width="200" height="50" as="geometry" />
        </mxCell>
        <mxCell id="DStSpTCO8v8UND9olX9u-726" value="Авторизация" style="rounded=1;whiteSpace=wrap;html=1;" parent="1" vertex="1">
          <mxGeometry x="-4046" y="8270" width="130" height="60" as="geometry" />
        </mxCell>
        <mxCell id="DStSpTCO8v8UND9olX9u-727" value="Microfrontend" style="text;html=1;align=center;verticalAlign=middle;resizable=0;points=[];autosize=1;strokeColor=none;fillColor=none;fontSize=20;" parent="1" vertex="1">
          <mxGeometry x="-4066" y="8200" width="150" height="40" as="geometry" />
        </mxCell>
        <mxCell id="DStSpTCO8v8UND9olX9u-728" value="Microfrontend" style="text;html=1;align=center;verticalAlign=middle;resizable=0;points=[];autosize=1;strokeColor=none;fillColor=none;fontSize=20;" parent="1" vertex="1">
          <mxGeometry x="-3826" y="8199" width="150" height="40" as="geometry" />
        </mxCell>
        <mxCell id="DStSpTCO8v8UND9olX9u-729" value="Заказ" style="rounded=1;whiteSpace=wrap;html=1;" parent="1" vertex="1">
          <mxGeometry x="-3806" y="8269" width="120" height="60" as="geometry" />
        </mxCell>
        <mxCell id="DStSpTCO8v8UND9olX9u-730" value="Услуга/Товар" style="rounded=1;whiteSpace=wrap;html=1;" parent="1" vertex="1">
          <mxGeometry x="-3566" y="8269" width="120" height="60" as="geometry" />
        </mxCell>
        <mxCell id="DStSpTCO8v8UND9olX9u-731" value="Microfrontend" style="text;html=1;align=center;verticalAlign=middle;resizable=0;points=[];autosize=1;strokeColor=none;fillColor=none;fontSize=20;" parent="1" vertex="1">
          <mxGeometry x="-3586" y="8199" width="150" height="40" as="geometry" />
        </mxCell>
        <mxCell id="DStSpTCO8v8UND9olX9u-732" value="Профиль" style="rounded=1;whiteSpace=wrap;html=1;" parent="1" vertex="1">
          <mxGeometry x="-3321" y="8270" width="120" height="60" as="geometry" />
        </mxCell>
        <mxCell id="DStSpTCO8v8UND9olX9u-733" value="Microfrontend" style="text;html=1;align=center;verticalAlign=middle;resizable=0;points=[];autosize=1;strokeColor=none;fillColor=none;fontSize=20;" parent="1" vertex="1">
          <mxGeometry x="-3341" y="8200" width="150" height="40" as="geometry" />
        </mxCell>
        <mxCell id="DStSpTCO8v8UND9olX9u-734" value="Microfrontend" style="text;html=1;align=center;verticalAlign=middle;resizable=0;points=[];autosize=1;strokeColor=none;fillColor=none;fontSize=20;" parent="1" vertex="1">
          <mxGeometry x="-3102" y="8199" width="150" height="40" as="geometry" />
        </mxCell>
        <mxCell id="DStSpTCO8v8UND9olX9u-735" value="Аукцион" style="rounded=1;whiteSpace=wrap;html=1;" parent="1" vertex="1">
          <mxGeometry x="-3080.5" y="8269" width="120" height="60" as="geometry" />
        </mxCell>
        <mxCell id="DStSpTCO8v8UND9olX9u-736" value="1" style="ellipse;whiteSpace=wrap;html=1;aspect=fixed;rounded=1;fillColor=#FF77BF;" parent="1" vertex="1">
          <mxGeometry x="-3997.2700000000004" y="8339" width="23" height="23" as="geometry" />
        </mxCell>
        <mxCell id="DStSpTCO8v8UND9olX9u-737" value="" style="edgeStyle=orthogonalEdgeStyle;rounded=0;orthogonalLoop=1;jettySize=auto;html=1;entryX=0.288;entryY=0;entryDx=0;entryDy=0;entryPerimeter=0;" parent="1" target="DStSpTCO8v8UND9olX9u-738" edge="1">
          <mxGeometry relative="1" as="geometry">
            <mxPoint x="-3745.9629629629635" y="8349" as="sourcePoint" />
            <mxPoint x="-3676" y="8507" as="targetPoint" />
          </mxGeometry>
        </mxCell>
        <mxCell id="DStSpTCO8v8UND9olX9u-738" value="2" style="ellipse;whiteSpace=wrap;html=1;aspect=fixed;rounded=1;fillColor=#FF77BF;" parent="1" vertex="1">
          <mxGeometry x="-3757.5" y="8339" width="23" height="23" as="geometry" />
        </mxCell>
        <mxCell id="DStSpTCO8v8UND9olX9u-739" value="" style="edgeStyle=orthogonalEdgeStyle;rounded=0;orthogonalLoop=1;jettySize=auto;html=1;entryX=0.465;entryY=-0.01;entryDx=0;entryDy=0;entryPerimeter=0;" parent="1" target="DStSpTCO8v8UND9olX9u-740" edge="1">
          <mxGeometry relative="1" as="geometry">
            <mxPoint x="-3505.9629629629635" y="8349" as="sourcePoint" />
            <mxPoint x="-3507" y="8506" as="targetPoint" />
          </mxGeometry>
        </mxCell>
        <mxCell id="DStSpTCO8v8UND9olX9u-740" value="3" style="ellipse;whiteSpace=wrap;html=1;aspect=fixed;rounded=1;fillColor=#FF77BF;" parent="1" vertex="1">
          <mxGeometry x="-3516" y="8339" width="23" height="23" as="geometry" />
        </mxCell>
        <mxCell id="DStSpTCO8v8UND9olX9u-741" value="4" style="ellipse;whiteSpace=wrap;html=1;aspect=fixed;rounded=1;fillColor=#FF77BF;" parent="1" vertex="1">
          <mxGeometry x="-3272.5" y="8339" width="23" height="23" as="geometry" />
        </mxCell>
        <mxCell id="DStSpTCO8v8UND9olX9u-742" value="5" style="ellipse;whiteSpace=wrap;html=1;aspect=fixed;rounded=1;fillColor=#FF77BF;" parent="1" vertex="1">
          <mxGeometry x="-3032" y="8339" width="23" height="23" as="geometry" />
        </mxCell>
        <mxCell id="DStSpTCO8v8UND9olX9u-1217" style="edgeStyle=orthogonalEdgeStyle;rounded=0;orthogonalLoop=1;jettySize=auto;html=1;" parent="1" edge="1">
          <mxGeometry relative="1" as="geometry">
            <mxPoint x="-4220" y="8734" as="targetPoint" />
            <mxPoint x="-3914.34" y="8646.75" as="sourcePoint" />
            <Array as="points">
              <mxPoint x="-3914" y="8734" />
              <mxPoint x="-4196" y="8734" />
            </Array>
          </mxGeometry>
        </mxCell>
        <mxCell id="DStSpTCO8v8UND9olX9u-743" value="1" style="ellipse;whiteSpace=wrap;html=1;aspect=fixed;rounded=1;fillColor=#FF77BF;" parent="1" vertex="1">
          <mxGeometry x="-3925.84" y="8624.75" width="23" height="23" as="geometry" />
        </mxCell>
        <mxCell id="DStSpTCO8v8UND9olX9u-744" value="2" style="ellipse;whiteSpace=wrap;html=1;aspect=fixed;rounded=1;fillColor=#FF77BF;" parent="1" vertex="1">
          <mxGeometry x="-3102" y="8626" width="23" height="23" as="geometry" />
        </mxCell>
        <mxCell id="DStSpTCO8v8UND9olX9u-1220" style="edgeStyle=orthogonalEdgeStyle;rounded=0;orthogonalLoop=1;jettySize=auto;html=1;" parent="1" source="DStSpTCO8v8UND9olX9u-745" edge="1">
          <mxGeometry relative="1" as="geometry">
            <mxPoint x="-4218" y="7937" as="targetPoint" />
            <Array as="points">
              <mxPoint x="-4176" y="8569" />
              <mxPoint x="-4176" y="7937" />
            </Array>
          </mxGeometry>
        </mxCell>
        <mxCell id="DStSpTCO8v8UND9olX9u-745" value="3" style="ellipse;whiteSpace=wrap;html=1;aspect=fixed;rounded=1;fillColor=#FF77BF;" parent="1" vertex="1">
          <mxGeometry x="-3964" y="8558" width="23" height="23" as="geometry" />
        </mxCell>
        <mxCell id="DStSpTCO8v8UND9olX9u-1222" style="edgeStyle=orthogonalEdgeStyle;rounded=0;orthogonalLoop=1;jettySize=auto;html=1;" parent="1" source="DStSpTCO8v8UND9olX9u-746" edge="1">
          <mxGeometry relative="1" as="geometry">
            <mxPoint x="-3474" y="9042" as="targetPoint" />
            <Array as="points">
              <mxPoint x="-3474" y="8868" />
              <mxPoint x="-3474" y="8868" />
            </Array>
          </mxGeometry>
        </mxCell>
        <mxCell id="DStSpTCO8v8UND9olX9u-746" value="5" style="ellipse;whiteSpace=wrap;html=1;aspect=fixed;rounded=1;fillColor=#FF77BF;" parent="1" vertex="1">
          <mxGeometry x="-3485" y="8624.75" width="23" height="23" as="geometry" />
        </mxCell>
        <mxCell id="DStSpTCO8v8UND9olX9u-1218" style="edgeStyle=orthogonalEdgeStyle;rounded=0;orthogonalLoop=1;jettySize=auto;html=1;exitX=0.5;exitY=1;exitDx=0;exitDy=0;" parent="1" source="DStSpTCO8v8UND9olX9u-747" edge="1">
          <mxGeometry relative="1" as="geometry">
            <mxPoint x="-4219" y="8780" as="targetPoint" />
            <Array as="points">
              <mxPoint x="-3879" y="8780" />
              <mxPoint x="-4168" y="8780" />
            </Array>
          </mxGeometry>
        </mxCell>
        <mxCell id="DStSpTCO8v8UND9olX9u-747" value="4" style="ellipse;whiteSpace=wrap;html=1;aspect=fixed;rounded=1;fillColor=#FF77BF;" parent="1" vertex="1">
          <mxGeometry x="-3891" y="8626.75" width="23" height="23" as="geometry" />
        </mxCell>
        <mxCell id="DStSpTCO8v8UND9olX9u-1265" value="&lt;br&gt;&lt;span style=&quot;font-size: 18px;&quot;&gt;События платежей&lt;/span&gt;&lt;span style=&quot;font-size: 18px;&quot;&gt;&lt;br&gt;&lt;/span&gt;" style="edgeStyle=orthogonalEdgeStyle;rounded=0;orthogonalLoop=1;jettySize=auto;html=1;horizontal=0;verticalAlign=bottom;" parent="1" source="DStSpTCO8v8UND9olX9u-754" edge="1">
          <mxGeometry x="-0.1369" relative="1" as="geometry">
            <mxPoint x="-2789.9996948242188" y="9751.666870117188" as="targetPoint" />
            <mxPoint y="1" as="offset" />
          </mxGeometry>
        </mxCell>
        <mxCell id="DStSpTCO8v8UND9olX9u-754" value="" style="rounded=0;whiteSpace=wrap;html=1;strokeColor=#CC0000;fillColor=#E6E6E6;" parent="1" vertex="1">
          <mxGeometry x="-2743" y="7673" width="384" height="712" as="geometry" />
        </mxCell>
        <mxCell id="DStSpTCO8v8UND9olX9u-755" value="" style="strokeWidth=2;html=1;shape=mxgraph.flowchart.database;whiteSpace=wrap;container=0;" parent="1" vertex="1">
          <mxGeometry x="-2666.5" y="8138" width="240" height="215" as="geometry" />
        </mxCell>
        <mxCell id="DStSpTCO8v8UND9olX9u-756" value="" style="rounded=1;whiteSpace=wrap;html=1;fillColor=#1C57CD;strokeColor=none;" parent="1" vertex="1">
          <mxGeometry x="-2701" y="7810" width="309" height="39" as="geometry" />
        </mxCell>
        <mxCell id="DStSpTCO8v8UND9olX9u-757" value="" style="sketch=0;outlineConnect=0;fontColor=#232F3E;gradientColor=none;fillColor=#FFFFFF;strokeColor=none;dashed=0;verticalLabelPosition=bottom;verticalAlign=top;align=center;html=1;fontSize=12;fontStyle=0;aspect=fixed;pointerEvents=1;shape=mxgraph.aws4.gear;rounded=1;" parent="1" vertex="1">
          <mxGeometry x="-2421" y="7821" width="17" height="17" as="geometry" />
        </mxCell>
        <mxCell id="DStSpTCO8v8UND9olX9u-758" value="Инициировать платежную операцию" style="text;html=1;align=center;verticalAlign=middle;whiteSpace=wrap;rounded=1;fontSize=13;fontColor=#FFFFFF;strokeColor=none;" parent="1" vertex="1">
          <mxGeometry x="-2701" y="7814.5" width="243" height="30" as="geometry" />
        </mxCell>
        <mxCell id="DStSpTCO8v8UND9olX9u-759" value="" style="rounded=1;whiteSpace=wrap;html=1;fillColor=#1C57CD;strokeColor=none;" parent="1" vertex="1">
          <mxGeometry x="-2701" y="7855" width="309" height="39" as="geometry" />
        </mxCell>
        <mxCell id="DStSpTCO8v8UND9olX9u-760" value="" style="sketch=0;outlineConnect=0;fontColor=#232F3E;gradientColor=none;fillColor=#FFFFFF;strokeColor=none;dashed=0;verticalLabelPosition=bottom;verticalAlign=top;align=center;html=1;fontSize=12;fontStyle=0;aspect=fixed;pointerEvents=1;shape=mxgraph.aws4.gear;rounded=1;" parent="1" vertex="1">
          <mxGeometry x="-2421" y="7866" width="17" height="17" as="geometry" />
        </mxCell>
        <mxCell id="DStSpTCO8v8UND9olX9u-761" value="Учет платежной операции" style="text;html=1;align=center;verticalAlign=middle;whiteSpace=wrap;rounded=1;fontSize=13;fontColor=#FFFFFF;strokeColor=none;" parent="1" vertex="1">
          <mxGeometry x="-2696" y="7859.5" width="173" height="30" as="geometry" />
        </mxCell>
        <mxCell id="DStSpTCO8v8UND9olX9u-762" value="" style="rounded=1;whiteSpace=wrap;html=1;fillColor=#1C57CD;strokeColor=none;" parent="1" vertex="1">
          <mxGeometry x="-2701" y="7899" width="309" height="39" as="geometry" />
        </mxCell>
        <mxCell id="DStSpTCO8v8UND9olX9u-763" value="" style="sketch=0;outlineConnect=0;fontColor=#232F3E;gradientColor=none;fillColor=#FFFFFF;strokeColor=none;dashed=0;verticalLabelPosition=bottom;verticalAlign=top;align=center;html=1;fontSize=12;fontStyle=0;aspect=fixed;pointerEvents=1;shape=mxgraph.aws4.gear;rounded=1;" parent="1" vertex="1">
          <mxGeometry x="-2421" y="7910" width="17" height="17" as="geometry" />
        </mxCell>
        <mxCell id="DStSpTCO8v8UND9olX9u-764" value="Авторизация платежной операции" style="text;html=1;align=center;verticalAlign=middle;whiteSpace=wrap;rounded=1;fontSize=13;fontColor=#FFFFFF;strokeColor=none;" parent="1" vertex="1">
          <mxGeometry x="-2708" y="7903.5" width="243" height="30" as="geometry" />
        </mxCell>
        <mxCell id="DStSpTCO8v8UND9olX9u-765" value="" style="rounded=1;whiteSpace=wrap;html=1;fillColor=#1C57CD;strokeColor=none;" parent="1" vertex="1">
          <mxGeometry x="-2701" y="7945" width="309" height="39" as="geometry" />
        </mxCell>
        <mxCell id="DStSpTCO8v8UND9olX9u-766" value="" style="sketch=0;outlineConnect=0;fontColor=#232F3E;gradientColor=none;fillColor=#FFFFFF;strokeColor=none;dashed=0;verticalLabelPosition=bottom;verticalAlign=top;align=center;html=1;fontSize=12;fontStyle=0;aspect=fixed;pointerEvents=1;shape=mxgraph.aws4.gear;rounded=1;" parent="1" vertex="1">
          <mxGeometry x="-2421" y="7956" width="17" height="17" as="geometry" />
        </mxCell>
        <mxCell id="DStSpTCO8v8UND9olX9u-767" value="Предоставить список и статус операций" style="text;html=1;align=center;verticalAlign=middle;whiteSpace=wrap;rounded=1;fontSize=13;fontColor=#FFFFFF;strokeColor=none;" parent="1" vertex="1">
          <mxGeometry x="-2701" y="7949.5" width="263" height="30" as="geometry" />
        </mxCell>
        <mxCell id="DStSpTCO8v8UND9olX9u-768" value="" style="rounded=1;whiteSpace=wrap;html=1;fillColor=#1C57CD;strokeColor=none;" parent="1" vertex="1">
          <mxGeometry x="-2701" y="7992" width="309" height="39" as="geometry" />
        </mxCell>
        <mxCell id="DStSpTCO8v8UND9olX9u-769" value="" style="sketch=0;outlineConnect=0;fontColor=#232F3E;gradientColor=none;fillColor=#FFFFFF;strokeColor=none;dashed=0;verticalLabelPosition=bottom;verticalAlign=top;align=center;html=1;fontSize=12;fontStyle=0;aspect=fixed;pointerEvents=1;shape=mxgraph.aws4.gear;rounded=1;" parent="1" vertex="1">
          <mxGeometry x="-2421" y="8003" width="17" height="17" as="geometry" />
        </mxCell>
        <mxCell id="DStSpTCO8v8UND9olX9u-770" value="Инициировать отмену транзакции" style="text;html=1;align=center;verticalAlign=middle;whiteSpace=wrap;rounded=1;fontSize=13;fontColor=#FFFFFF;strokeColor=none;" parent="1" vertex="1">
          <mxGeometry x="-2699" y="7996" width="223" height="30" as="geometry" />
        </mxCell>
        <mxCell id="DStSpTCO8v8UND9olX9u-771" value="" style="rounded=1;whiteSpace=wrap;html=1;fillColor=#1C57CD;strokeColor=none;" parent="1" vertex="1">
          <mxGeometry x="-2701" y="8038" width="309" height="39" as="geometry" />
        </mxCell>
        <mxCell id="DStSpTCO8v8UND9olX9u-772" value="" style="sketch=0;outlineConnect=0;fontColor=#232F3E;gradientColor=none;fillColor=#FFFFFF;strokeColor=none;dashed=0;verticalLabelPosition=bottom;verticalAlign=top;align=center;html=1;fontSize=12;fontStyle=0;aspect=fixed;pointerEvents=1;shape=mxgraph.aws4.gear;rounded=1;" parent="1" vertex="1">
          <mxGeometry x="-2421" y="8049" width="17" height="17" as="geometry" />
        </mxCell>
        <mxCell id="DStSpTCO8v8UND9olX9u-773" value="Запросить статус операции" style="text;html=1;align=center;verticalAlign=middle;whiteSpace=wrap;rounded=1;fontSize=13;fontColor=#FFFFFF;strokeColor=none;" parent="1" vertex="1">
          <mxGeometry x="-2698" y="8044" width="179" height="30" as="geometry" />
        </mxCell>
        <mxCell id="DStSpTCO8v8UND9olX9u-774" value="" style="rounded=1;whiteSpace=wrap;html=1;fillColor=#1C57CD;strokeColor=none;" parent="1" vertex="1">
          <mxGeometry x="-2701" y="8083" width="309" height="39" as="geometry" />
        </mxCell>
        <mxCell id="DStSpTCO8v8UND9olX9u-775" value="" style="sketch=0;outlineConnect=0;fontColor=#232F3E;gradientColor=none;fillColor=#FFFFFF;strokeColor=none;dashed=0;verticalLabelPosition=bottom;verticalAlign=top;align=center;html=1;fontSize=12;fontStyle=0;aspect=fixed;pointerEvents=1;shape=mxgraph.aws4.gear;rounded=1;" parent="1" vertex="1">
          <mxGeometry x="-2421" y="8094" width="17" height="17" as="geometry" />
        </mxCell>
        <mxCell id="DStSpTCO8v8UND9olX9u-776" value="Предоставить статус операции" style="text;html=1;align=center;verticalAlign=middle;whiteSpace=wrap;rounded=1;fontSize=13;fontColor=#FFFFFF;strokeColor=none;" parent="1" vertex="1">
          <mxGeometry x="-2701" y="8087.5" width="207" height="30" as="geometry" />
        </mxCell>
        <mxCell id="DStSpTCO8v8UND9olX9u-777" value="&lt;p style=&quot;margin: 0px 0px 0px 13px; text-indent: -13px; font-variant-numeric: normal; font-variant-east-asian: normal; font-variant-alternates: normal; font-kerning: auto; font-optical-sizing: auto; font-feature-settings: normal; font-variation-settings: normal; font-variant-position: normal; font-stretch: normal; line-height: normal; text-align: start;&quot; class=&quot;p1&quot;&gt;&lt;span style=&quot;text-align: center; text-indent: 0px;&quot;&gt;&lt;font style=&quot;font-size: 14px;&quot; face=&quot;Times New Roman&quot;&gt;[Транзакция.ID]&lt;/font&gt;&lt;/span&gt;&lt;br&gt;&lt;/p&gt;" style="rounded=1;whiteSpace=wrap;html=1;fillColor=#B8B8B8;strokeColor=#FFD966;" parent="1" vertex="1">
          <mxGeometry x="-2627" y="8229" width="104" height="21" as="geometry" />
        </mxCell>
        <mxCell id="DStSpTCO8v8UND9olX9u-778" value="&lt;p style=&quot;margin: 0px 0px 0px 13px; text-indent: -13px; font-variant-numeric: normal; font-variant-east-asian: normal; font-variant-alternates: normal; font-kerning: auto; font-optical-sizing: auto; font-feature-settings: normal; font-variation-settings: normal; font-variant-position: normal; font-stretch: normal; line-height: normal; text-align: start;&quot; class=&quot;p1&quot;&gt;&lt;span style=&quot;text-align: center; text-indent: 0px;&quot;&gt;&lt;font style=&quot;font-size: 14px;&quot; face=&quot;Times New Roman&quot;&gt;[Транзакция.Статус]&lt;/font&gt;&lt;/span&gt;&lt;br&gt;&lt;/p&gt;" style="rounded=1;whiteSpace=wrap;html=1;fillColor=#B8B8B8;strokeColor=#FFD966;" parent="1" vertex="1">
          <mxGeometry x="-2627" y="8255" width="125" height="21" as="geometry" />
        </mxCell>
        <mxCell id="DStSpTCO8v8UND9olX9u-779" value="Сервис Платежи" style="text;html=1;align=center;verticalAlign=middle;resizable=0;points=[];autosize=1;strokeColor=none;fillColor=none;fontSize=30;" parent="1" vertex="1">
          <mxGeometry x="-2676.4982722513087" y="7698" width="260" height="50" as="geometry" />
        </mxCell>
        <mxCell id="DStSpTCO8v8UND9olX9u-780" value="&lt;span style=&quot;font-size: 18px;&quot;&gt;&lt;i&gt;PostgresQL&lt;/i&gt;&lt;/span&gt;" style="text;html=1;align=center;verticalAlign=middle;whiteSpace=wrap;rounded=1;shadow=0;fontSize=23;fontStyle=1;fillColor=#f8cecc;strokeColor=#b85450;" parent="1" vertex="1">
          <mxGeometry x="-2627" y="8153" width="161" height="49" as="geometry" />
        </mxCell>
        <mxCell id="DStSpTCO8v8UND9olX9u-781" value="" style="rounded=1;whiteSpace=wrap;html=1;arcSize=5;fillColor=#fff2cc;strokeColor=#d6b656;" parent="1" vertex="1">
          <mxGeometry x="-2302" y="6463" width="518" height="220" as="geometry" />
        </mxCell>
        <mxCell id="DStSpTCO8v8UND9olX9u-782" value="TurboPay" style="text;html=1;align=center;verticalAlign=middle;whiteSpace=wrap;rounded=1;shadow=0;fontSize=23;fontStyle=1" parent="1" vertex="1">
          <mxGeometry x="-2319" y="6463" width="177" height="49" as="geometry" />
        </mxCell>
        <mxCell id="DStSpTCO8v8UND9olX9u-783" value="" style="rounded=1;whiteSpace=wrap;html=1;arcSize=5;fillColor=#fff2cc;strokeColor=#d6b656;" parent="1" vertex="1">
          <mxGeometry x="-2269" y="6523" width="518" height="224" as="geometry" />
        </mxCell>
        <mxCell id="DStSpTCO8v8UND9olX9u-784" value="FastMoney" style="text;html=1;align=center;verticalAlign=middle;whiteSpace=wrap;rounded=1;shadow=0;fontSize=23;fontStyle=1" parent="1" vertex="1">
          <mxGeometry x="-2267" y="6523" width="141" height="49" as="geometry" />
        </mxCell>
        <mxCell id="DStSpTCO8v8UND9olX9u-785" value="" style="rounded=1;whiteSpace=wrap;html=1;arcSize=5;fillColor=#fff2cc;strokeColor=#d6b656;" parent="1" vertex="1">
          <mxGeometry x="-2239" y="6583" width="514" height="244" as="geometry" />
        </mxCell>
        <mxCell id="DStSpTCO8v8UND9olX9u-786" value="Яндекс.Pay" style="text;html=1;align=center;verticalAlign=middle;whiteSpace=wrap;rounded=1;shadow=0;fontSize=23;fontStyle=1" parent="1" vertex="1">
          <mxGeometry x="-2239" y="6583" width="150" height="49" as="geometry" />
        </mxCell>
        <mxCell id="DStSpTCO8v8UND9olX9u-787" value="" style="endArrow=classic;html=1;rounded=1;curved=0;entryX=0.997;entryY=0.507;entryDx=0;entryDy=0;entryPerimeter=0;exitX=0.5;exitY=1;exitDx=0;exitDy=0;" parent="1" source="DStSpTCO8v8UND9olX9u-815" target="DStSpTCO8v8UND9olX9u-754" edge="1">
          <mxGeometry width="50" height="50" relative="1" as="geometry">
            <mxPoint x="-1959" y="7543" as="sourcePoint" />
            <mxPoint x="-2343" y="8033" as="targetPoint" />
            <Array as="points">
              <mxPoint x="-1959" y="8033" />
            </Array>
          </mxGeometry>
        </mxCell>
        <mxCell id="DStSpTCO8v8UND9olX9u-788" value="&lt;p style=&quot;margin: 0px 0px 0px 21px; text-indent: -21px; font-variant-numeric: normal; font-variant-east-asian: normal; font-variant-alternates: normal; font-kerning: auto; font-optical-sizing: auto; font-feature-settings: normal; font-variation-settings: normal; font-variant-position: normal; font-stretch: normal; line-height: normal; color: rgb(14, 14, 14); text-align: start; text-wrap: wrap;&quot; class=&quot;p1&quot;&gt;&lt;font style=&quot;font-size: 12px;&quot; face=&quot;Helvetica&quot;&gt;Подтверждение платежа&lt;/font&gt;&lt;/p&gt;" style="edgeLabel;html=1;align=center;verticalAlign=middle;resizable=0;points=[];rounded=1;" parent="DStSpTCO8v8UND9olX9u-787" vertex="1" connectable="0">
          <mxGeometry x="0.1936" y="1" relative="1" as="geometry">
            <mxPoint x="-303" y="293" as="offset" />
          </mxGeometry>
        </mxCell>
        <mxCell id="DStSpTCO8v8UND9olX9u-789" value="" style="endArrow=classic;html=1;rounded=1;exitX=1.001;exitY=0.325;exitDx=0;exitDy=0;exitPerimeter=0;curved=0;entryX=0.68;entryY=1.001;entryDx=0;entryDy=0;entryPerimeter=0;" parent="1" target="DStSpTCO8v8UND9olX9u-785" edge="1">
          <mxGeometry width="50" height="50" relative="1" as="geometry">
            <mxPoint x="-2343" y="8113" as="sourcePoint" />
            <mxPoint x="-1879" y="7733" as="targetPoint" />
            <Array as="points">
              <mxPoint x="-1879" y="8113" />
            </Array>
          </mxGeometry>
        </mxCell>
        <mxCell id="DStSpTCO8v8UND9olX9u-790" value="&lt;font style=&quot;font-size: 12px;&quot;&gt;Предоставить статус платежа&lt;/font&gt;" style="edgeLabel;html=1;align=center;verticalAlign=middle;resizable=0;points=[];rounded=1;" parent="DStSpTCO8v8UND9olX9u-789" vertex="1" connectable="0">
          <mxGeometry x="0.1936" y="1" relative="1" as="geometry">
            <mxPoint x="-229" y="467" as="offset" />
          </mxGeometry>
        </mxCell>
        <mxCell id="DStSpTCO8v8UND9olX9u-791" value="" style="endArrow=classic;html=1;rounded=1;curved=0;entryX=1;entryY=0.846;entryDx=0;entryDy=0;entryPerimeter=0;exitX=0.5;exitY=1;exitDx=0;exitDy=0;" parent="1" source="DStSpTCO8v8UND9olX9u-819" target="DStSpTCO8v8UND9olX9u-754" edge="1">
          <mxGeometry width="50" height="50" relative="1" as="geometry">
            <mxPoint x="-1719" y="7543" as="sourcePoint" />
            <mxPoint x="-2344" y="8272" as="targetPoint" />
            <Array as="points">
              <mxPoint x="-1719" y="8273" />
            </Array>
          </mxGeometry>
        </mxCell>
        <mxCell id="DStSpTCO8v8UND9olX9u-792" value="&lt;font style=&quot;font-size: 12px;&quot;&gt;Подтверждение отмены&amp;nbsp;&lt;/font&gt;&lt;div&gt;&lt;font style=&quot;font-size: 12px;&quot;&gt;платежа&lt;/font&gt;&lt;/div&gt;" style="edgeLabel;html=1;align=center;verticalAlign=middle;resizable=0;points=[];rounded=1;" parent="DStSpTCO8v8UND9olX9u-791" vertex="1" connectable="0">
          <mxGeometry x="0.1936" y="1" relative="1" as="geometry">
            <mxPoint x="-350" y="165" as="offset" />
          </mxGeometry>
        </mxCell>
        <mxCell id="DStSpTCO8v8UND9olX9u-793" value="" style="endArrow=classic;html=1;rounded=1;exitX=1;exitY=0.117;exitDx=0;exitDy=0;exitPerimeter=0;curved=0;entryX=0.214;entryY=1.007;entryDx=0;entryDy=0;entryPerimeter=0;" parent="1" target="DStSpTCO8v8UND9olX9u-785" edge="1">
          <mxGeometry width="50" height="50" relative="1" as="geometry">
            <mxPoint x="-2344" y="7952" as="sourcePoint" />
            <mxPoint x="-2124" y="7574" as="targetPoint" />
            <Array as="points">
              <mxPoint x="-2119" y="7953" />
            </Array>
          </mxGeometry>
        </mxCell>
        <mxCell id="DStSpTCO8v8UND9olX9u-794" value="&lt;span style=&quot;text-wrap: wrap;&quot;&gt;&lt;font style=&quot;font-size: 12px;&quot;&gt;Инициировать платеж&lt;/font&gt;&lt;/span&gt;" style="edgeLabel;html=1;align=center;verticalAlign=middle;resizable=0;points=[];rounded=1;" parent="DStSpTCO8v8UND9olX9u-793" vertex="1" connectable="0">
          <mxGeometry x="0.1936" y="1" relative="1" as="geometry">
            <mxPoint x="-114" y="521" as="offset" />
          </mxGeometry>
        </mxCell>
        <mxCell id="DStSpTCO8v8UND9olX9u-795" value="&lt;font style=&quot;font-size: 12px;&quot;&gt;[Транзакция.ID]&lt;/font&gt;" style="text;html=1;align=center;verticalAlign=middle;whiteSpace=wrap;rounded=1;fontSize=13;labelBackgroundColor=none;fontColor=#B8B8B8;" parent="1" vertex="1">
          <mxGeometry x="-2229" y="8001" width="100" height="30" as="geometry" />
        </mxCell>
        <mxCell id="DStSpTCO8v8UND9olX9u-796" value="&lt;font style=&quot;font-size: 12px;&quot;&gt;[Транзакция.Статус]&lt;/font&gt;" style="text;html=1;align=center;verticalAlign=middle;whiteSpace=wrap;rounded=1;fontSize=13;labelBackgroundColor=none;fontColor=#B8B8B8;" parent="1" vertex="1">
          <mxGeometry x="-2142" y="8001" width="160" height="30" as="geometry" />
        </mxCell>
        <mxCell id="DStSpTCO8v8UND9olX9u-797" value="&lt;font style=&quot;font-size: 12px;&quot;&gt;[Пользователь.ID]&lt;/font&gt;" style="text;html=1;align=center;verticalAlign=middle;whiteSpace=wrap;rounded=1;fontSize=13;labelBackgroundColor=none;fontColor=#007575;" parent="1" vertex="1">
          <mxGeometry x="-2319" y="7903" width="160" height="30" as="geometry" />
        </mxCell>
        <mxCell id="DStSpTCO8v8UND9olX9u-798" value="&lt;font style=&quot;font-size: 12px;&quot;&gt;[Заказ.ID]&lt;/font&gt;" style="text;html=1;align=center;verticalAlign=middle;whiteSpace=wrap;rounded=1;fontSize=13;labelBackgroundColor=none;fontColor=#007575;" parent="1" vertex="1">
          <mxGeometry x="-2359" y="7923" width="160" height="30" as="geometry" />
        </mxCell>
        <mxCell id="DStSpTCO8v8UND9olX9u-799" value="&lt;font style=&quot;font-size: 12px;&quot;&gt;[Заказ.Сумма]&lt;/font&gt;" style="text;html=1;align=center;verticalAlign=middle;whiteSpace=wrap;rounded=1;fontSize=13;labelBackgroundColor=none;fontColor=#007575;" parent="1" vertex="1">
          <mxGeometry x="-2289" y="7923" width="160" height="30" as="geometry" />
        </mxCell>
        <mxCell id="DStSpTCO8v8UND9olX9u-800" value="&lt;font style=&quot;font-size: 12px;&quot;&gt;[Транзакция.ID]&lt;/font&gt;" style="text;html=1;align=center;verticalAlign=middle;whiteSpace=wrap;rounded=1;fontSize=13;labelBackgroundColor=none;fontColor=#B8B8B8;" parent="1" vertex="1">
          <mxGeometry x="-2309" y="8083" width="100" height="30" as="geometry" />
        </mxCell>
        <mxCell id="DStSpTCO8v8UND9olX9u-801" value="" style="endArrow=classic;html=1;rounded=1;exitX=1;exitY=0.429;exitDx=0;exitDy=0;exitPerimeter=0;curved=0;entryX=0.837;entryY=1.005;entryDx=0;entryDy=0;entryPerimeter=0;" parent="1" source="DStSpTCO8v8UND9olX9u-818" target="DStSpTCO8v8UND9olX9u-785" edge="1">
          <mxGeometry width="50" height="50" relative="1" as="geometry">
            <mxPoint x="-2339" y="8197" as="sourcePoint" />
            <mxPoint x="-1875" y="7813" as="targetPoint" />
            <Array as="points">
              <mxPoint x="-1799" y="8193" />
            </Array>
          </mxGeometry>
        </mxCell>
        <mxCell id="DStSpTCO8v8UND9olX9u-802" value="&lt;font style=&quot;font-size: 12px;&quot;&gt;Запросить статус платежа&lt;/font&gt;" style="edgeLabel;html=1;align=center;verticalAlign=middle;resizable=0;points=[];rounded=1;" parent="DStSpTCO8v8UND9olX9u-801" vertex="1" connectable="0">
          <mxGeometry x="-0.4407" y="-1" relative="1" as="geometry">
            <mxPoint x="-445" y="-38" as="offset" />
          </mxGeometry>
        </mxCell>
        <mxCell id="DStSpTCO8v8UND9olX9u-803" value="&lt;font style=&quot;font-size: 12px;&quot;&gt;[Транзакция.ID]&lt;/font&gt;" style="text;html=1;align=center;verticalAlign=middle;whiteSpace=wrap;rounded=1;fontSize=13;labelBackgroundColor=none;fontColor=#B8B8B8;" parent="1" vertex="1">
          <mxGeometry x="-2309" y="8163" width="100" height="30" as="geometry" />
        </mxCell>
        <mxCell id="DStSpTCO8v8UND9olX9u-804" value="&lt;font style=&quot;font-size: 12px;&quot;&gt;[Транзакция.Статус]&lt;/font&gt;" style="text;html=1;align=center;verticalAlign=middle;whiteSpace=wrap;rounded=1;fontSize=13;labelBackgroundColor=none;fontColor=#B8B8B8;" parent="1" vertex="1">
          <mxGeometry x="-2149" y="8243" width="160" height="30" as="geometry" />
        </mxCell>
        <mxCell id="DStSpTCO8v8UND9olX9u-805" value="" style="rounded=1;whiteSpace=wrap;html=1;fillColor=#ffe6cc;strokeColor=#d79b00;" parent="1" vertex="1">
          <mxGeometry x="-2239" y="6683" width="250" height="39" as="geometry" />
        </mxCell>
        <mxCell id="DStSpTCO8v8UND9olX9u-806" value="" style="sketch=0;outlineConnect=0;fontColor=#232F3E;gradientColor=none;fillColor=#232F3D;strokeColor=none;dashed=0;verticalLabelPosition=bottom;verticalAlign=top;align=center;html=1;fontSize=12;fontStyle=0;aspect=fixed;pointerEvents=1;shape=mxgraph.aws4.gear;rounded=1;" parent="1" vertex="1">
          <mxGeometry x="-2019" y="6694" width="17" height="17" as="geometry" />
        </mxCell>
        <mxCell id="DStSpTCO8v8UND9olX9u-807" value="Подтвердить платеж" style="text;html=1;align=center;verticalAlign=middle;whiteSpace=wrap;rounded=1;fontSize=13;" parent="1" vertex="1">
          <mxGeometry x="-2249" y="6687.5" width="170" height="30" as="geometry" />
        </mxCell>
        <mxCell id="DStSpTCO8v8UND9olX9u-808" value="" style="rounded=1;whiteSpace=wrap;html=1;fillColor=#ffe6cc;strokeColor=#d79b00;" parent="1" vertex="1">
          <mxGeometry x="-2239" y="6733" width="250" height="39" as="geometry" />
        </mxCell>
        <mxCell id="DStSpTCO8v8UND9olX9u-809" value="" style="sketch=0;outlineConnect=0;fontColor=#232F3E;gradientColor=none;fillColor=#232F3D;strokeColor=none;dashed=0;verticalLabelPosition=bottom;verticalAlign=top;align=center;html=1;fontSize=12;fontStyle=0;aspect=fixed;pointerEvents=1;shape=mxgraph.aws4.gear;rounded=1;" parent="1" vertex="1">
          <mxGeometry x="-2019" y="6744" width="17" height="17" as="geometry" />
        </mxCell>
        <mxCell id="DStSpTCO8v8UND9olX9u-810" value="Предоставить статус платежа" style="text;html=1;align=center;verticalAlign=middle;whiteSpace=wrap;rounded=1;fontSize=13;" parent="1" vertex="1">
          <mxGeometry x="-2239" y="6737.5" width="200" height="30" as="geometry" />
        </mxCell>
        <mxCell id="DStSpTCO8v8UND9olX9u-811" value="" style="rounded=1;whiteSpace=wrap;html=1;fillColor=#ffe6cc;strokeColor=#d79b00;" parent="1" vertex="1">
          <mxGeometry x="-2239" y="6783" width="250" height="39" as="geometry" />
        </mxCell>
        <mxCell id="DStSpTCO8v8UND9olX9u-812" value="" style="sketch=0;outlineConnect=0;fontColor=#232F3E;gradientColor=none;fillColor=#232F3D;strokeColor=none;dashed=0;verticalLabelPosition=bottom;verticalAlign=top;align=center;html=1;fontSize=12;fontStyle=0;aspect=fixed;pointerEvents=1;shape=mxgraph.aws4.gear;rounded=1;" parent="1" vertex="1">
          <mxGeometry x="-2019" y="6794" width="17" height="17" as="geometry" />
        </mxCell>
        <mxCell id="DStSpTCO8v8UND9olX9u-813" value="Подтвердить отмену платежа" style="text;html=1;align=center;verticalAlign=middle;whiteSpace=wrap;rounded=1;fontSize=13;" parent="1" vertex="1">
          <mxGeometry x="-2249" y="6787.5" width="210" height="30" as="geometry" />
        </mxCell>
        <mxCell id="DStSpTCO8v8UND9olX9u-814" value="7" style="ellipse;whiteSpace=wrap;html=1;aspect=fixed;rounded=1;fillColor=#FF77BF;" parent="1" vertex="1">
          <mxGeometry x="-2359" y="7943" width="23" height="23" as="geometry" />
        </mxCell>
        <mxCell id="DStSpTCO8v8UND9olX9u-815" value="8" style="ellipse;whiteSpace=wrap;html=1;aspect=fixed;rounded=1;fillColor=#FF77BF;" parent="1" vertex="1">
          <mxGeometry x="-1979" y="6813" width="23" height="23" as="geometry" />
        </mxCell>
        <mxCell id="DStSpTCO8v8UND9olX9u-816" value="9" style="ellipse;whiteSpace=wrap;html=1;aspect=fixed;rounded=1;fillColor=#ff77bf;" parent="1" vertex="1">
          <mxGeometry x="-2359" y="8103" width="23" height="23" as="geometry" />
        </mxCell>
        <mxCell id="DStSpTCO8v8UND9olX9u-817" value="" style="endArrow=classic;html=1;rounded=1;exitX=1;exitY=0.429;exitDx=0;exitDy=0;exitPerimeter=0;curved=0;entryX=0.837;entryY=1.005;entryDx=0;entryDy=0;entryPerimeter=0;" parent="1" target="DStSpTCO8v8UND9olX9u-818" edge="1">
          <mxGeometry width="50" height="50" relative="1" as="geometry">
            <mxPoint x="-2344" y="8193" as="sourcePoint" />
            <mxPoint x="-1799" y="7728" as="targetPoint" />
            <Array as="points" />
          </mxGeometry>
        </mxCell>
        <mxCell id="DStSpTCO8v8UND9olX9u-818" value="10" style="ellipse;whiteSpace=wrap;html=1;aspect=fixed;rounded=1;fillColor=#FF77BF;" parent="1" vertex="1">
          <mxGeometry x="-2359" y="8183" width="23" height="23" as="geometry" />
        </mxCell>
        <mxCell id="DStSpTCO8v8UND9olX9u-819" value="11" style="ellipse;whiteSpace=wrap;html=1;aspect=fixed;rounded=1;fillColor=#FF77BF;" parent="1" vertex="1">
          <mxGeometry x="-1739" y="6813" width="23" height="23" as="geometry" />
        </mxCell>
        <mxCell id="DStSpTCO8v8UND9olX9u-820" value="" style="strokeWidth=2;html=1;shape=mxgraph.flowchart.database;whiteSpace=wrap;rounded=1;movable=1;resizable=1;rotatable=1;deletable=1;editable=1;locked=0;connectable=1;" parent="1" vertex="1">
          <mxGeometry x="-1959" y="6643" width="220" height="171" as="geometry" />
        </mxCell>
        <mxCell id="DStSpTCO8v8UND9olX9u-821" value="&lt;p style=&quot;margin: 0px 0px 0px 13px; text-indent: -13px; font-variant-numeric: normal; font-variant-east-asian: normal; font-variant-alternates: normal; font-kerning: auto; font-optical-sizing: auto; font-feature-settings: normal; font-variation-settings: normal; font-variant-position: normal; font-stretch: normal; font-size: 14px; line-height: normal; text-align: start;&quot; class=&quot;p1&quot;&gt;&lt;span style=&quot;font-size: 12px; text-align: center; text-indent: 0px;&quot;&gt;[Транзакция.Статус]&lt;/span&gt;&lt;br&gt;&lt;/p&gt;" style="rounded=1;whiteSpace=wrap;html=1;fillColor=#B8B8B8;strokeColor=#FFD966;" parent="1" vertex="1">
          <mxGeometry x="-1909" y="6733" width="119" height="21" as="geometry" />
        </mxCell>
        <mxCell id="DStSpTCO8v8UND9olX9u-822" value="&lt;p style=&quot;margin: 0px 0px 0px 13px; text-indent: -13px; font-variant-numeric: normal; font-variant-east-asian: normal; font-variant-alternates: normal; font-kerning: auto; font-optical-sizing: auto; font-feature-settings: normal; font-variation-settings: normal; font-variant-position: normal; font-stretch: normal; font-size: 14px; line-height: normal; text-align: start;&quot; class=&quot;p1&quot;&gt;&lt;span style=&quot;font-size: 12px; text-align: center; text-indent: 0px;&quot;&gt;[Транзакция.ID]&lt;/span&gt;&lt;br&gt;&lt;/p&gt;" style="rounded=1;whiteSpace=wrap;html=1;fillColor=#B8B8B8;strokeColor=#FFD966;" parent="1" vertex="1">
          <mxGeometry x="-1909" y="6763" width="119" height="21" as="geometry" />
        </mxCell>
        <mxCell id="DStSpTCO8v8UND9olX9u-823" value="" style="rounded=1;whiteSpace=wrap;html=1;fillColor=#ffe6cc;strokeColor=#d79b00;" parent="1" vertex="1">
          <mxGeometry x="-2239" y="6633" width="250" height="39" as="geometry" />
        </mxCell>
        <mxCell id="DStSpTCO8v8UND9olX9u-824" value="" style="sketch=0;outlineConnect=0;fontColor=#232F3E;gradientColor=none;fillColor=#232F3D;strokeColor=none;dashed=0;verticalLabelPosition=bottom;verticalAlign=top;align=center;html=1;fontSize=12;fontStyle=0;aspect=fixed;pointerEvents=1;shape=mxgraph.aws4.gear;rounded=1;" parent="1" vertex="1">
          <mxGeometry x="-2019" y="6644" width="17" height="17" as="geometry" />
        </mxCell>
        <mxCell id="DStSpTCO8v8UND9olX9u-825" value="Инициировать платеж" style="text;html=1;align=center;verticalAlign=middle;whiteSpace=wrap;rounded=1;fontSize=13;" parent="1" vertex="1">
          <mxGeometry x="-2249" y="6637.5" width="170" height="30" as="geometry" />
        </mxCell>
        <mxCell id="DStSpTCO8v8UND9olX9u-1215" value="" style="endArrow=classic;html=1;rounded=1;dashed=1;entryX=0.727;entryY=0.031;entryDx=0;entryDy=0;entryPerimeter=0;fontSize=12;" parent="1" edge="1">
          <mxGeometry width="50" height="50" relative="1" as="geometry">
            <mxPoint x="-3472" y="7920" as="sourcePoint" />
            <mxPoint x="-3471.74" y="8089.519" as="targetPoint" />
            <Array as="points" />
          </mxGeometry>
        </mxCell>
        <mxCell id="DStSpTCO8v8UND9olX9u-1221" style="edgeStyle=orthogonalEdgeStyle;rounded=0;orthogonalLoop=1;jettySize=auto;html=1;entryX=0.525;entryY=-0.02;entryDx=0;entryDy=0;entryPerimeter=0;" parent="1" source="DStSpTCO8v8UND9olX9u-744" target="DStSpTCO8v8UND9olX9u-413" edge="1">
          <mxGeometry relative="1" as="geometry">
            <Array as="points">
              <mxPoint x="-3090" y="8705" />
              <mxPoint x="-3007" y="8705" />
            </Array>
          </mxGeometry>
        </mxCell>
        <mxCell id="DStSpTCO8v8UND9olX9u-1223" value="" style="group;fillColor=#E6E6E6;container=0;strokeColor=#CC0000;" parent="1" vertex="1" connectable="0">
          <mxGeometry x="-4613" y="9739" width="2203" height="170" as="geometry" />
        </mxCell>
        <mxCell id="DStSpTCO8v8UND9olX9u-1224" value="Шина данных" style="text;html=1;align=center;verticalAlign=middle;resizable=0;points=[];autosize=1;strokeColor=none;fillColor=none;fontSize=38;" parent="1" vertex="1">
          <mxGeometry x="-3634.4982722513087" y="9794" width="260" height="60" as="geometry" />
        </mxCell>
        <mxCell id="DStSpTCO8v8UND9olX9u-1225" value="&lt;span style=&quot;font-size: 18px;&quot;&gt;&lt;i&gt;Kafka&lt;/i&gt;&lt;/span&gt;" style="text;html=1;align=center;verticalAlign=middle;whiteSpace=wrap;rounded=1;shadow=0;fontSize=23;fontStyle=1;fillColor=#f8cecc;strokeColor=#b85450;" parent="1" vertex="1">
          <mxGeometry x="-3812.2700000000004" y="9799.5" width="161" height="49" as="geometry" />
        </mxCell>
        <mxCell id="DStSpTCO8v8UND9olX9u-1232" style="edgeStyle=orthogonalEdgeStyle;rounded=0;orthogonalLoop=1;jettySize=auto;html=1;exitX=0.685;exitY=0.001;exitDx=0;exitDy=0;entryX=0.018;entryY=1.002;entryDx=0;entryDy=0;entryPerimeter=0;fontFamily=Helvetica;fontSize=18;fontColor=default;labelBackgroundColor=default;resizable=0;exitPerimeter=0;" parent="1" edge="1">
          <mxGeometry relative="1" as="geometry">
            <mxPoint x="-4550" y="9742.17" as="sourcePoint" />
            <mxPoint x="-4549.35" y="9653" as="targetPoint" />
          </mxGeometry>
        </mxCell>
        <mxCell id="DStSpTCO8v8UND9olX9u-1233" value="Новый&lt;div&gt;&amp;nbsp;пользователь&lt;/div&gt;" style="edgeLabel;html=1;align=center;verticalAlign=middle;resizable=0;points=[];fontFamily=Helvetica;fontSize=18;fontColor=default;labelBackgroundColor=default;fillColor=none;gradientColor=none;" parent="DStSpTCO8v8UND9olX9u-1232" vertex="1" connectable="0">
          <mxGeometry x="0.0375" y="-2" relative="1" as="geometry">
            <mxPoint as="offset" />
          </mxGeometry>
        </mxCell>
        <mxCell id="DStSpTCO8v8UND9olX9u-1234" value="" style="edgeStyle=none;orthogonalLoop=1;jettySize=auto;html=1;rounded=0;fontFamily=Helvetica;fontSize=18;fontColor=default;labelBackgroundColor=default;resizable=0;exitX=0.84;exitY=-0.007;exitDx=0;exitDy=0;exitPerimeter=0;entryX=0.666;entryY=1.006;entryDx=0;entryDy=0;entryPerimeter=0;" parent="1" edge="1">
          <mxGeometry width="100" relative="1" as="geometry">
            <mxPoint x="-4411.9400000000005" y="9742" as="sourcePoint" />
            <mxPoint x="-4412.346" y="9655.050000000001" as="targetPoint" />
            <Array as="points" />
          </mxGeometry>
        </mxCell>
        <mxCell id="DStSpTCO8v8UND9olX9u-1235" value="Статус&lt;div&gt;Заказа&lt;/div&gt;" style="edgeLabel;html=1;align=center;verticalAlign=middle;resizable=0;points=[];fontFamily=Helvetica;fontSize=18;fontColor=default;labelBackgroundColor=default;fillColor=none;gradientColor=none;" parent="DStSpTCO8v8UND9olX9u-1234" vertex="1" connectable="0">
          <mxGeometry x="0.0317" y="2" relative="1" as="geometry">
            <mxPoint x="3" as="offset" />
          </mxGeometry>
        </mxCell>
        <mxCell id="DStSpTCO8v8UND9olX9u-1236" style="edgeStyle=orthogonalEdgeStyle;rounded=0;orthogonalLoop=1;jettySize=auto;html=1;entryX=0.7;entryY=1.001;entryDx=0;entryDy=0;fontFamily=Helvetica;fontSize=18;fontColor=default;labelBackgroundColor=default;resizable=0;entryPerimeter=0;exitX=0.848;exitY=-0.001;exitDx=0;exitDy=0;exitPerimeter=0;" parent="1" edge="1">
          <mxGeometry relative="1" as="geometry">
            <mxPoint x="-4287.57" y="9741.83" as="sourcePoint" />
            <mxPoint x="-4287.35" y="9652" as="targetPoint" />
          </mxGeometry>
        </mxCell>
        <mxCell id="DStSpTCO8v8UND9olX9u-1237" value="События&lt;div&gt;Аукциона&lt;/div&gt;" style="edgeLabel;html=1;align=center;verticalAlign=middle;resizable=0;points=[];fontFamily=Helvetica;fontSize=18;fontColor=default;labelBackgroundColor=default;fillColor=none;gradientColor=none;" parent="DStSpTCO8v8UND9olX9u-1236" vertex="1" connectable="0">
          <mxGeometry x="-0.0541" relative="1" as="geometry">
            <mxPoint as="offset" />
          </mxGeometry>
        </mxCell>
        <mxCell id="DStSpTCO8v8UND9olX9u-1255" style="edgeStyle=orthogonalEdgeStyle;rounded=0;orthogonalLoop=1;jettySize=auto;html=1;entryX=1;entryY=0.25;entryDx=0;entryDy=0;" parent="1" source="DStSpTCO8v8UND9olX9u-1239" target="qusNSolM188rsnw8EbCe-64" edge="1">
          <mxGeometry relative="1" as="geometry">
            <Array as="points">
              <mxPoint x="-2181" y="9215" />
              <mxPoint x="-2181" y="9215" />
            </Array>
          </mxGeometry>
        </mxCell>
        <mxCell id="DStSpTCO8v8UND9olX9u-1256" style="edgeStyle=orthogonalEdgeStyle;rounded=0;orthogonalLoop=1;jettySize=auto;html=1;" parent="1" source="DStSpTCO8v8UND9olX9u-1239" target="qusNSolM188rsnw8EbCe-1" edge="1">
          <mxGeometry relative="1" as="geometry">
            <Array as="points">
              <mxPoint x="-2311" y="8954" />
              <mxPoint x="-2311" y="8954" />
            </Array>
          </mxGeometry>
        </mxCell>
        <mxCell id="DStSpTCO8v8UND9olX9u-1239" value="" style="rounded=0;whiteSpace=wrap;html=1;strokeColor=#CC0000;fillColor=#E6E6E6;" parent="1" vertex="1">
          <mxGeometry x="-2128" y="8868" width="227" height="368.5" as="geometry" />
        </mxCell>
        <mxCell id="DStSpTCO8v8UND9olX9u-1254" style="edgeStyle=orthogonalEdgeStyle;rounded=0;orthogonalLoop=1;jettySize=auto;html=1;entryX=1;entryY=0.5;entryDx=0;entryDy=0;" parent="1" source="DStSpTCO8v8UND9olX9u-1240" target="DStSpTCO8v8UND9olX9u-1251" edge="1">
          <mxGeometry relative="1" as="geometry">
            <Array as="points">
              <mxPoint x="-1695" y="9155" />
              <mxPoint x="-1695" y="9155" />
            </Array>
          </mxGeometry>
        </mxCell>
        <mxCell id="DStSpTCO8v8UND9olX9u-1240" value="Администратор" style="shape=umlActor;verticalLabelPosition=bottom;verticalAlign=top;html=1;outlineConnect=0;rounded=1;" parent="1" vertex="1">
          <mxGeometry x="-1631" y="9076" width="65" height="141" as="geometry" />
        </mxCell>
        <mxCell id="DStSpTCO8v8UND9olX9u-1241" value="Редактировать аукцион&lt;div&gt;Валидировать заявку&lt;/div&gt;" style="text;html=1;align=center;verticalAlign=middle;whiteSpace=wrap;rounded=1;fontSize=13;" parent="1" vertex="1">
          <mxGeometry x="-1870" y="9119" width="243" height="30" as="geometry" />
        </mxCell>
        <mxCell id="DStSpTCO8v8UND9olX9u-1253" style="edgeStyle=orthogonalEdgeStyle;rounded=0;orthogonalLoop=1;jettySize=auto;html=1;entryX=1;entryY=0.5;entryDx=0;entryDy=0;" parent="1" source="DStSpTCO8v8UND9olX9u-1242" target="DStSpTCO8v8UND9olX9u-1252" edge="1">
          <mxGeometry relative="1" as="geometry">
            <Array as="points">
              <mxPoint x="-1702.5" y="8931" />
              <mxPoint x="-1702.5" y="8931" />
            </Array>
          </mxGeometry>
        </mxCell>
        <mxCell id="DStSpTCO8v8UND9olX9u-1242" value="Специалист поддержки" style="shape=umlActor;verticalLabelPosition=bottom;verticalAlign=top;html=1;outlineConnect=0;rounded=1;" parent="1" vertex="1">
          <mxGeometry x="-1636.5" y="8866" width="65" height="141" as="geometry" />
        </mxCell>
        <mxCell id="DStSpTCO8v8UND9olX9u-1243" value="&lt;div&gt;Изменить статус заявки&lt;/div&gt;&lt;div&gt;на поддержку&lt;/div&gt;" style="text;html=1;align=center;verticalAlign=middle;whiteSpace=wrap;rounded=1;fontSize=13;" parent="1" vertex="1">
          <mxGeometry x="-1876.5" y="8933" width="243" height="30" as="geometry" />
        </mxCell>
        <mxCell id="DStSpTCO8v8UND9olX9u-1246" value="API Gateway" style="text;html=1;align=center;verticalAlign=middle;resizable=0;points=[];autosize=1;strokeColor=none;fillColor=none;fontSize=30;rotation=0;" parent="1" vertex="1">
          <mxGeometry x="-2109.5" y="8883.5" width="200" height="50" as="geometry" />
        </mxCell>
        <mxCell id="DStSpTCO8v8UND9olX9u-1247" value="" style="endArrow=classic;html=1;rounded=1;dashed=1;" parent="1" target="DStSpTCO8v8UND9olX9u-1248" edge="1">
          <mxGeometry width="50" height="50" relative="1" as="geometry">
            <mxPoint x="-1635" y="9154.434343434343" as="sourcePoint" />
            <mxPoint x="-1420" y="9154" as="targetPoint" />
            <Array as="points" />
          </mxGeometry>
        </mxCell>
        <mxCell id="DStSpTCO8v8UND9olX9u-1248" value="11" style="ellipse;whiteSpace=wrap;html=1;aspect=fixed;rounded=1;fillColor=#FF77BF;" parent="1" vertex="1">
          <mxGeometry x="-1643" y="9145" width="23" height="23" as="geometry" />
        </mxCell>
        <mxCell id="DStSpTCO8v8UND9olX9u-1249" value="" style="endArrow=classic;html=1;rounded=1;dashed=1;" parent="1" target="DStSpTCO8v8UND9olX9u-1250" edge="1">
          <mxGeometry width="50" height="50" relative="1" as="geometry">
            <mxPoint x="-1635.5" y="8936.434343434343" as="sourcePoint" />
            <mxPoint x="-1420.5" y="8936" as="targetPoint" />
            <Array as="points" />
          </mxGeometry>
        </mxCell>
        <mxCell id="DStSpTCO8v8UND9olX9u-1250" value="12" style="ellipse;whiteSpace=wrap;html=1;aspect=fixed;rounded=1;fillColor=#FF77BF;" parent="1" vertex="1">
          <mxGeometry x="-1645.5" y="8920" width="23" height="23" as="geometry" />
        </mxCell>
        <mxCell id="DStSpTCO8v8UND9olX9u-1251" value="11" style="ellipse;whiteSpace=wrap;html=1;aspect=fixed;rounded=1;fillColor=#FF77BF;" parent="1" vertex="1">
          <mxGeometry x="-1907" y="9143" width="23" height="23" as="geometry" />
        </mxCell>
        <mxCell id="DStSpTCO8v8UND9olX9u-1252" value="12" style="ellipse;whiteSpace=wrap;html=1;aspect=fixed;rounded=1;fillColor=#FF77BF;" parent="1" vertex="1">
          <mxGeometry x="-1913" y="8919" width="23" height="23" as="geometry" />
        </mxCell>
        <mxCell id="DStSpTCO8v8UND9olX9u-1258" value="11" style="ellipse;whiteSpace=wrap;html=1;aspect=fixed;rounded=1;fillColor=#FF77BF;" parent="1" vertex="1">
          <mxGeometry x="-2135" y="9202" width="23" height="23" as="geometry" />
        </mxCell>
        <mxCell id="DStSpTCO8v8UND9olX9u-1259" value="12" style="ellipse;whiteSpace=wrap;html=1;aspect=fixed;rounded=1;fillColor=#FF77BF;" parent="1" vertex="1">
          <mxGeometry x="-2140" y="8945" width="23" height="23" as="geometry" />
        </mxCell>
        <mxCell id="DStSpTCO8v8UND9olX9u-1277" value="6" style="ellipse;whiteSpace=wrap;html=1;aspect=fixed;rounded=1;fillColor=#FF77BF;" parent="1" vertex="1">
          <mxGeometry x="-3401" y="9032" width="23" height="23" as="geometry" />
        </mxCell>
        <mxCell id="DStSpTCO8v8UND9olX9u-1278" value="6" style="ellipse;whiteSpace=wrap;html=1;aspect=fixed;rounded=1;fillColor=#FF77BF;" parent="1" vertex="1">
          <mxGeometry x="-2847" y="8892" width="23" height="23" as="geometry" />
        </mxCell>
        <mxCell id="DStSpTCO8v8UND9olX9u-1279" style="edgeStyle=orthogonalEdgeStyle;rounded=0;orthogonalLoop=1;jettySize=auto;html=1;entryX=0;entryY=0.5;entryDx=0;entryDy=0;" parent="1" source="DStSpTCO8v8UND9olX9u-1280" target="DStSpTCO8v8UND9olX9u-1284" edge="1">
          <mxGeometry relative="1" as="geometry">
            <mxPoint x="-4219" y="7866" as="sourcePoint" />
            <Array as="points">
              <mxPoint x="-2817" y="7707" />
              <mxPoint x="-2817" y="7756" />
            </Array>
          </mxGeometry>
        </mxCell>
        <mxCell id="DStSpTCO8v8UND9olX9u-1280" value="6" style="ellipse;whiteSpace=wrap;html=1;aspect=fixed;rounded=1;fillColor=#FF77BF;" parent="1" vertex="1">
          <mxGeometry x="-4231" y="7695" width="23" height="23" as="geometry" />
        </mxCell>
        <mxCell id="DStSpTCO8v8UND9olX9u-1282" value="6" style="ellipse;whiteSpace=wrap;html=1;aspect=fixed;rounded=1;fillColor=#FF77BF;" parent="1" vertex="1">
          <mxGeometry x="-2752" y="7955" width="23" height="23" as="geometry" />
        </mxCell>
        <mxCell id="DStSpTCO8v8UND9olX9u-1283" value="6" style="ellipse;whiteSpace=wrap;html=1;aspect=fixed;rounded=1;fillColor=#FF77BF;" parent="1" vertex="1">
          <mxGeometry x="-2755" y="7826" width="23" height="23" as="geometry" />
        </mxCell>
        <mxCell id="DStSpTCO8v8UND9olX9u-1284" value="6" style="ellipse;whiteSpace=wrap;html=1;aspect=fixed;rounded=1;fillColor=#FF77BF;" parent="1" vertex="1">
          <mxGeometry x="-2753" y="7744" width="23" height="23" as="geometry" />
        </mxCell>
        <mxCell id="DStSpTCO8v8UND9olX9u-1285" value="" style="rounded=1;whiteSpace=wrap;html=1;arcSize=0;" parent="1" vertex="1">
          <mxGeometry x="-4596" y="10100" width="1128" height="343" as="geometry" />
        </mxCell>
        <mxCell id="DStSpTCO8v8UND9olX9u-1286" value="" style="rounded=1;whiteSpace=wrap;html=1;strokeColor=none;fillColor=#1C57CD;" parent="1" vertex="1">
          <mxGeometry x="-4190" y="10129" width="270" height="39" as="geometry" />
        </mxCell>
        <mxCell id="DStSpTCO8v8UND9olX9u-1287" value="" style="sketch=0;outlineConnect=0;fontColor=#FFFFFF;gradientColor=none;fillColor=#FFFFFF;strokeColor=none;dashed=0;verticalLabelPosition=bottom;verticalAlign=top;align=center;html=1;fontSize=12;fontStyle=0;aspect=fixed;pointerEvents=1;shape=mxgraph.aws4.gear;rounded=1;" parent="1" vertex="1">
          <mxGeometry x="-3952" y="10141" width="17" height="17" as="geometry" />
        </mxCell>
        <mxCell id="DStSpTCO8v8UND9olX9u-1288" value="&lt;font style=&quot;font-size: 18px;&quot;&gt;Функция&lt;/font&gt;" style="text;html=1;align=center;verticalAlign=middle;whiteSpace=wrap;rounded=1;fontSize=13;fontColor=#FFFFFF;" parent="1" vertex="1">
          <mxGeometry x="-4168" y="10134" width="78" height="30" as="geometry" />
        </mxCell>
        <mxCell id="DStSpTCO8v8UND9olX9u-1289" value="&lt;p style=&quot;margin: 0px 0px 0px 13px; text-indent: -13px; font-variant-numeric: normal; font-variant-east-asian: normal; font-variant-alternates: normal; font-kerning: auto; font-optical-sizing: auto; font-feature-settings: normal; font-variation-settings: normal; font-variant-position: normal; font-stretch: normal; font-size: 14px; line-height: normal; color: rgb(14, 14, 14); text-align: start;&quot; class=&quot;p1&quot;&gt;&lt;font face=&quot;Times New Roman&quot;&gt;Объект данных&lt;/font&gt;&lt;/p&gt;" style="rounded=1;whiteSpace=wrap;html=1;fillColor=#b1ddf0;strokeColor=#10739e;" parent="1" vertex="1">
          <mxGeometry x="-4176" y="10337" width="101" height="21" as="geometry" />
        </mxCell>
        <mxCell id="DStSpTCO8v8UND9olX9u-1290" value="" style="rounded=1;whiteSpace=wrap;html=1;arcSize=5;fillColor=#E6E6E6;strokeColor=#1C57CD;strokeWidth=3;" parent="1" vertex="1">
          <mxGeometry x="-4553" y="10114" width="331" height="143" as="geometry" />
        </mxCell>
        <mxCell id="DStSpTCO8v8UND9olX9u-1291" value="&lt;font style=&quot;font-size: 23px;&quot;&gt;Система/Сервис&lt;/font&gt;" style="text;html=1;align=center;verticalAlign=middle;whiteSpace=wrap;rounded=1;fontSize=13;" parent="1" vertex="1">
          <mxGeometry x="-4552" y="10120" width="206" height="30" as="geometry" />
        </mxCell>
        <mxCell id="DStSpTCO8v8UND9olX9u-1292" value="" style="rounded=1;whiteSpace=wrap;html=1;arcSize=5;fillColor=#fff2cc;strokeColor=#d6b656;" parent="1" vertex="1">
          <mxGeometry x="-4550" y="10282" width="333" height="145" as="geometry" />
        </mxCell>
        <mxCell id="DStSpTCO8v8UND9olX9u-1293" value="&lt;span style=&quot;font-weight: normal;&quot;&gt;Внешний/Партнерский сервис&lt;/span&gt;" style="text;html=1;align=center;verticalAlign=middle;whiteSpace=wrap;rounded=1;shadow=0;fontSize=23;fontStyle=1" parent="1" vertex="1">
          <mxGeometry x="-4578" y="10283" width="388" height="49" as="geometry" />
        </mxCell>
        <mxCell id="DStSpTCO8v8UND9olX9u-1294" value="&lt;font style=&quot;font-size: 14px;&quot;&gt;СУБД&lt;/font&gt;" style="strokeWidth=2;html=1;shape=mxgraph.flowchart.database;whiteSpace=wrap;rounded=1;movable=1;resizable=1;rotatable=1;deletable=1;editable=1;locked=0;connectable=1;" parent="1" vertex="1">
          <mxGeometry x="-4187" y="10202" width="137" height="87" as="geometry" />
        </mxCell>
        <mxCell id="DStSpTCO8v8UND9olX9u-1295" value="&lt;p style=&quot;margin: 0px 0px 0px 13px; text-indent: -13px; font-variant-numeric: normal; font-variant-east-asian: normal; font-variant-alternates: normal; font-kerning: auto; font-optical-sizing: auto; font-feature-settings: normal; font-variation-settings: normal; font-variant-position: normal; font-stretch: normal; font-size: 14px; line-height: normal; color: rgb(14, 14, 14); text-align: start;&quot; class=&quot;p1&quot;&gt;&lt;br&gt;&lt;/p&gt;" style="rounded=1;whiteSpace=wrap;html=1;fillColor=#FF77BF;strokeColor=none;arcSize=33;" parent="1" vertex="1">
          <mxGeometry x="-3871" y="10137" width="151" height="24" as="geometry" />
        </mxCell>
        <mxCell id="DStSpTCO8v8UND9olX9u-1296" value="&lt;span style=&quot;font-size: 18px;&quot;&gt;&lt;i&gt;Стэк/Окружение&lt;/i&gt;&lt;/span&gt;" style="text;html=1;align=center;verticalAlign=middle;whiteSpace=wrap;rounded=1;shadow=0;fontSize=23;fontStyle=1;fillColor=#f8cecc;strokeColor=#b85450;" parent="1" vertex="1">
          <mxGeometry x="-3876" y="10122" width="161" height="49" as="geometry" />
        </mxCell>
        <mxCell id="DStSpTCO8v8UND9olX9u-1297" value="Пользователь (Роль)" style="shape=umlActor;verticalLabelPosition=bottom;verticalAlign=top;html=1;outlineConnect=0;rounded=1;" parent="1" vertex="1">
          <mxGeometry x="-3584" y="10169" width="65" height="141" as="geometry" />
        </mxCell>
        <mxCell id="DStSpTCO8v8UND9olX9u-1298" value="&lt;p style=&quot;margin: 0px 0px 0px 13px; text-indent: -13px; font-variant-numeric: normal; font-variant-east-asian: normal; font-variant-alternates: normal; font-kerning: auto; font-optical-sizing: auto; font-feature-settings: normal; font-variation-settings: normal; font-variant-position: normal; font-stretch: normal; line-height: normal; text-align: start;&quot; class=&quot;p1&quot;&gt;&lt;span style=&quot;text-align: center; text-indent: 0px;&quot;&gt;&lt;font style=&quot;font-size: 14px;&quot; face=&quot;Times New Roman&quot;&gt;Объект даных внешних сервисов&lt;/font&gt;&lt;/span&gt;&lt;br&gt;&lt;/p&gt;" style="rounded=1;whiteSpace=wrap;html=1;fillColor=#B8B8B8;strokeColor=#FFD966;" parent="1" vertex="1">
          <mxGeometry x="-4178" y="10371" width="204" height="21" as="geometry" />
        </mxCell>
        <mxCell id="DStSpTCO8v8UND9olX9u-1299" value="" style="endArrow=classic;html=1;rounded=1;curved=0;strokeWidth=2;" parent="1" edge="1">
          <mxGeometry width="50" height="50" relative="1" as="geometry">
            <mxPoint x="-3887" y="10283" as="sourcePoint" />
            <mxPoint x="-3677" y="10283" as="targetPoint" />
            <Array as="points">
              <mxPoint x="-3887" y="10283" />
            </Array>
          </mxGeometry>
        </mxCell>
        <mxCell id="DStSpTCO8v8UND9olX9u-1300" value="&lt;font style=&quot;font-size: 12px;&quot;&gt;Подтверждение отмены&amp;nbsp;&lt;/font&gt;&lt;div&gt;&lt;font style=&quot;font-size: 12px;&quot;&gt;платежа&lt;/font&gt;&lt;/div&gt;" style="edgeLabel;html=1;align=center;verticalAlign=middle;resizable=0;points=[];rounded=1;" parent="DStSpTCO8v8UND9olX9u-1299" vertex="1" connectable="0">
          <mxGeometry x="0.1936" y="1" relative="1" as="geometry">
            <mxPoint x="-29" y="-37" as="offset" />
          </mxGeometry>
        </mxCell>
        <mxCell id="DStSpTCO8v8UND9olX9u-1301" value="&lt;font style=&quot;font-size: 12px;&quot;&gt;[Транзакция.Статус]&lt;/font&gt;" style="text;html=1;align=center;verticalAlign=middle;whiteSpace=wrap;rounded=1;fontSize=13;labelBackgroundColor=none;fontColor=#B8B8B8;" parent="1" vertex="1">
          <mxGeometry x="-3872" y="10253" width="160" height="30" as="geometry" />
        </mxCell>
        <mxCell id="DStSpTCO8v8UND9olX9u-1302" value="" style="endArrow=classic;html=1;rounded=1;dashed=1;strokeWidth=2;" parent="1" edge="1">
          <mxGeometry width="50" height="50" relative="1" as="geometry">
            <mxPoint x="-3888" y="10333" as="sourcePoint" />
            <mxPoint x="-3673" y="10333" as="targetPoint" />
            <Array as="points" />
          </mxGeometry>
        </mxCell>
        <mxCell id="DStSpTCO8v8UND9olX9u-1303" value="&lt;span style=&quot;font-size: 12px;&quot;&gt;Пользовательский поток&lt;/span&gt;" style="edgeLabel;html=1;align=center;verticalAlign=middle;resizable=0;points=[];rounded=1;" parent="1" vertex="1" connectable="0">
          <mxGeometry x="-3786.0048148148153" y="10362" as="geometry">
            <mxPoint x="-2" y="-47" as="offset" />
          </mxGeometry>
        </mxCell>
        <mxCell id="DStSpTCO8v8UND9olX9u-1304" value="1" style="ellipse;whiteSpace=wrap;html=1;aspect=fixed;rounded=1;fillColor=#FF77BF;" parent="1" vertex="1">
          <mxGeometry x="-3879" y="10387" width="23" height="23" as="geometry" />
        </mxCell>
        <mxCell id="DStSpTCO8v8UND9olX9u-1305" value="&lt;span style=&quot;font-size: 18px;&quot;&gt;&lt;i&gt;Номер потока&lt;/i&gt;&lt;/span&gt;" style="text;html=1;align=center;verticalAlign=middle;whiteSpace=wrap;rounded=1;shadow=0;fontSize=23;fontStyle=0" parent="1" vertex="1">
          <mxGeometry x="-3868" y="10374" width="161" height="49" as="geometry" />
        </mxCell>
      </root>
    </mxGraphModel>
  </diagram>
</mxfile>
